<?xml version="1.0" encoding="utf-8" standalone="no"?>
<!DOCTYPE svg PUBLIC "-//W3C//DTD SVG 1.1//EN"
  "http://www.w3.org/Graphics/SVG/1.1/DTD/svg11.dtd">
<svg xmlns:xlink="http://www.w3.org/1999/xlink" width="126pt" height="108pt" viewBox="0 0 126 108" xmlns="http://www.w3.org/2000/svg" version="1.1">
 <metadata>
  <rdf:RDF xmlns:dc="http://purl.org/dc/elements/1.1/" xmlns:cc="http://creativecommons.org/ns#" xmlns:rdf="http://www.w3.org/1999/02/22-rdf-syntax-ns#">
   <cc:Work>
    <dc:type rdf:resource="http://purl.org/dc/dcmitype/StillImage"/>
    <dc:date>2026-02-04T14:58:52.626922</dc:date>
    <dc:format>image/svg+xml</dc:format>
    <dc:creator>
     <cc:Agent>
      <dc:title>Matplotlib v3.9.4, https://matplotlib.org/</dc:title>
     </cc:Agent>
    </dc:creator>
   </cc:Work>
  </rdf:RDF>
 </metadata>
 <defs>
  <style type="text/css">*{stroke-linejoin: round; stroke-linecap: butt}</style>
 </defs>
 <g id="figure_1">
  <g id="patch_1">
   <path d="M 0 108 
L 126 108 
L 126 0 
L 0 0 
L 0 108 
z
" style="fill: none"/>
  </g>
  <g id="axes_1">
   <g id="patch_2">
    <path d="M 44.76 65.22 
L 107.325 65.22 
L 107.325 14.76 
L 44.76 14.76 
L 44.76 65.22 
z
" style="fill: none"/>
   </g>
   <g id="patch_3">
    <path d="M 44.76 65.22 
L 44.76 65.22 
L 44.76 -449263016429076469614488929171250632523251712 
L 44.76 -449263016429076469614488929171250632523251712 
z
" clip-path="url(#p76aa80b5e4)" style="fill: #327dfe; opacity: 0.7"/>
   </g>
   <g id="patch_4">
    <path d="M 44.76 65.22 
L 44.76 65.22 
L 44.76 -405106416978427898818949419442060384010240 
L 44.76 -405106416978427898818949419442060384010240 
z
" clip-path="url(#p76aa80b5e4)" style="fill: #327dfe; opacity: 0.7"/>
   </g>
   <g id="patch_5">
    <path d="M 44.76 65.22 
L 44.76 65.22 
L 44.76 -90023648217428421959766537653791196446720 
L 44.76 -90023648217428421959766537653791196446720 
z
" clip-path="url(#p76aa80b5e4)" style="fill: #327dfe; opacity: 0.7"/>
   </g>
   <g id="patch_6">
    <path d="M 44.76 65.22 
L 44.76 65.22 
L 44.76 -45011824108714210979883268826895598223360 
L 44.76 -45011824108714210979883268826895598223360 
z
" clip-path="url(#p76aa80b5e4)" style="fill: #327dfe; opacity: 0.7"/>
   </g>
   <g id="patch_7">
    <path d="M 44.76 65.22 
L 44.76 65.22 
L 44.76 -90023648217428421959766537653791196446720 
L 44.76 -90023648217428421959766537653791196446720 
z
" clip-path="url(#p76aa80b5e4)" style="fill: #327dfe; opacity: 0.7"/>
   </g>
   <g id="patch_8">
    <path d="M 44.76 65.22 
L 44.76 65.22 
L 44.76 -45011824108714210979883268826895598223360 
L 44.76 -45011824108714210979883268826895598223360 
z
" clip-path="url(#p76aa80b5e4)" style="fill: #327dfe; opacity: 0.7"/>
   </g>
   <g id="patch_9">
    <path d="M 44.76 65.22 
L 44.76 65.22 
L 44.76 65.22 
L 44.76 65.22 
z
" clip-path="url(#p76aa80b5e4)" style="fill: #327dfe; opacity: 0.7"/>
   </g>
   <g id="patch_10">
    <path d="M 44.76 65.22 
L 44.76 65.22 
L 44.76 65.22 
L 44.76 65.22 
z
" clip-path="url(#p76aa80b5e4)" style="fill: #327dfe; opacity: 0.7"/>
   </g>
   <g id="patch_11">
    <path d="M 44.76 65.22 
L 44.76 65.22 
L 44.76 -90023648217428421959766537653791196446720 
L 44.76 -90023648217428421959766537653791196446720 
z
" clip-path="url(#p76aa80b5e4)" style="fill: #327dfe; opacity: 0.7"/>
   </g>
   <g id="patch_12">
    <path d="M 44.76 65.22 
L 44.76 65.22 
L 44.76 65.22 
L 44.76 65.22 
z
" clip-path="url(#p76aa80b5e4)" style="fill: #327dfe; opacity: 0.7"/>
   </g>
   <g id="patch_13">
    <path d="M 44.76 65.22 
L 44.76 65.22 
L 44.76 65.22 
L 44.76 65.22 
z
" clip-path="url(#p76aa80b5e4)" style="fill: #327dfe; opacity: 0.7"/>
   </g>
   <g id="patch_14">
    <path d="M 44.76 65.22 
L 44.76 65.22 
L 44.76 65.22 
L 44.76 65.22 
z
" clip-path="url(#p76aa80b5e4)" style="fill: #327dfe; opacity: 0.7"/>
   </g>
   <g id="patch_15">
    <path d="M 44.76 65.22 
L 44.76 65.22 
L 44.76 65.22 
L 44.76 65.22 
z
" clip-path="url(#p76aa80b5e4)" style="fill: #327dfe; opacity: 0.7"/>
   </g>
   <g id="patch_16">
    <path d="M 44.76 65.22 
L 44.76 65.22 
L 44.76 65.22 
L 44.76 65.22 
z
" clip-path="url(#p76aa80b5e4)" style="fill: #327dfe; opacity: 0.7"/>
   </g>
   <g id="patch_17">
    <path d="M 44.76 65.22 
L 44.76 65.22 
L 44.76 65.22 
L 44.76 65.22 
z
" clip-path="url(#p76aa80b5e4)" style="fill: #327dfe; opacity: 0.7"/>
   </g>
   <g id="patch_18">
    <path d="M 44.76 65.22 
L 44.76 65.22 
L 44.76 65.22 
L 44.76 65.22 
z
" clip-path="url(#p76aa80b5e4)" style="fill: #327dfe; opacity: 0.7"/>
   </g>
   <g id="patch_19">
    <path d="M 44.76 65.22 
L 44.76 65.22 
L 44.76 65.22 
L 44.76 65.22 
z
" clip-path="url(#p76aa80b5e4)" style="fill: #327dfe; opacity: 0.7"/>
   </g>
   <g id="patch_20">
    <path d="M 44.76 65.22 
L 44.76 65.22 
L 44.76 65.22 
L 44.76 65.22 
z
" clip-path="url(#p76aa80b5e4)" style="fill: #327dfe; opacity: 0.7"/>
   </g>
   <g id="patch_21">
    <path d="M 44.76 65.22 
L 44.76 65.22 
L 44.76 65.22 
L 44.76 65.22 
z
" clip-path="url(#p76aa80b5e4)" style="fill: #327dfe; opacity: 0.7"/>
   </g>
   <g id="patch_22">
    <path d="M 44.76 65.22 
L 44.76 65.22 
L 44.76 65.22 
L 44.76 65.22 
z
" clip-path="url(#p76aa80b5e4)" style="fill: #327dfe; opacity: 0.7"/>
   </g>
   <g id="patch_23">
    <path d="M 44.76 65.22 
L 44.76 65.22 
L 44.76 65.22 
L 44.76 65.22 
z
" clip-path="url(#p76aa80b5e4)" style="fill: #327dfe; opacity: 0.7"/>
   </g>
   <g id="patch_24">
    <path d="M 44.76 65.22 
L 44.76 65.22 
L 44.76 65.22 
L 44.76 65.22 
z
" clip-path="url(#p76aa80b5e4)" style="fill: #327dfe; opacity: 0.7"/>
   </g>
   <g id="patch_25">
    <path d="M 44.76 65.22 
L 44.76 65.22 
L 44.76 65.22 
L 44.76 65.22 
z
" clip-path="url(#p76aa80b5e4)" style="fill: #327dfe; opacity: 0.7"/>
   </g>
   <g id="patch_26">
    <path d="M 44.76 65.22 
L 44.76 65.22 
L 44.76 -45011824108714210979883268826895598223360 
L 44.76 -45011824108714210979883268826895598223360 
z
" clip-path="url(#p76aa80b5e4)" style="fill: #327dfe; opacity: 0.7"/>
   </g>
   <g id="patch_27">
    <path d="M 44.76 65.22 
L 44.76 65.22 
L 44.76 65.22 
L 44.76 65.22 
z
" clip-path="url(#p76aa80b5e4)" style="fill: #327dfe; opacity: 0.7"/>
   </g>
   <g id="patch_28">
    <path d="M 44.76 65.22 
L 44.76 65.22 
L 44.76 65.22 
L 44.76 65.22 
z
" clip-path="url(#p76aa80b5e4)" style="fill: #327dfe; opacity: 0.7"/>
   </g>
   <g id="patch_29">
    <path d="M 44.76 65.22 
L 44.76 65.22 
L 44.76 65.22 
L 44.76 65.22 
z
" clip-path="url(#p76aa80b5e4)" style="fill: #327dfe; opacity: 0.7"/>
   </g>
   <g id="patch_30">
    <path d="M 44.76 65.22 
L 44.76 65.22 
L 44.76 65.22 
L 44.76 65.22 
z
" clip-path="url(#p76aa80b5e4)" style="fill: #327dfe; opacity: 0.7"/>
   </g>
   <g id="patch_31">
    <path d="M 44.76 65.22 
L 44.76 65.22 
L 44.76 -45011824108714210979883268826895598223360 
L 44.76 -45011824108714210979883268826895598223360 
z
" clip-path="url(#p76aa80b5e4)" style="fill: #327dfe; opacity: 0.7"/>
   </g>
   <g id="patch_32">
    <path d="M 44.76 65.22 
L 44.76 65.22 
L 44.76 65.22 
L 44.76 65.22 
z
" clip-path="url(#p76aa80b5e4)" style="fill: #327dfe; opacity: 0.7"/>
   </g>
   <g id="patch_33">
    <path d="M -59.515 65.22 
L -52.563334 65.22 
L -52.563334 65.22 
L -59.515 65.22 
z
" clip-path="url(#p76aa80b5e4)" style="fill: #ff667b; opacity: 0.7"/>
   </g>
   <g id="patch_34">
    <path d="M -52.563334 65.22 
L -45.611667 65.22 
L -45.611667 65.22 
L -52.563334 65.22 
z
" clip-path="url(#p76aa80b5e4)" style="fill: #ff667b; opacity: 0.7"/>
   </g>
   <g id="patch_35">
    <path d="M -45.611667 65.22 
L -38.659995 65.22 
L -38.659995 65.22 
L -45.611667 65.22 
z
" clip-path="url(#p76aa80b5e4)" style="fill: #ff667b; opacity: 0.7"/>
   </g>
   <g id="patch_36">
    <path d="M -38.659995 65.22 
L -31.708335 65.22 
L -31.708335 65.22 
L -38.659995 65.22 
z
" clip-path="url(#p76aa80b5e4)" style="fill: #ff667b; opacity: 0.7"/>
   </g>
   <g id="patch_37">
    <path d="M -31.708335 65.22 
L -24.756663 65.22 
L -24.756663 65.22 
L -31.708335 65.22 
z
" clip-path="url(#p76aa80b5e4)" style="fill: #ff667b; opacity: 0.7"/>
   </g>
   <g id="patch_38">
    <path d="M -24.756663 65.22 
L -17.804996 65.22 
L -17.804996 65.22 
L -24.756663 65.22 
z
" clip-path="url(#p76aa80b5e4)" style="fill: #ff667b; opacity: 0.7"/>
   </g>
   <g id="patch_39">
    <path d="M -17.804996 65.22 
L -10.85333 65.22 
L -10.85333 65.22 
L -17.804996 65.22 
z
" clip-path="url(#p76aa80b5e4)" style="fill: #ff667b; opacity: 0.7"/>
   </g>
   <g id="patch_40">
    <path d="M -10.85333 65.22 
L -3.901664 65.22 
L -3.901664 65.22 
L -10.85333 65.22 
z
" clip-path="url(#p76aa80b5e4)" style="fill: #ff667b; opacity: 0.7"/>
   </g>
   <g id="patch_41">
    <path d="M -3.901664 65.22 
L 3.050002 65.22 
L 3.050002 65.22 
L -3.901664 65.22 
z
" clip-path="url(#p76aa80b5e4)" style="fill: #ff667b; opacity: 0.7"/>
   </g>
   <g id="patch_42">
    <path d="M 3.050002 65.22 
L 10.001669 65.22 
L 10.001669 65.22 
L 3.050002 65.22 
z
" clip-path="url(#p76aa80b5e4)" style="fill: #ff667b; opacity: 0.7"/>
   </g>
   <g id="patch_43">
    <path d="M 10.001669 65.22 
L 16.953335 65.22 
L 16.953335 65.22 
L 10.001669 65.22 
z
" clip-path="url(#p76aa80b5e4)" style="fill: #ff667b; opacity: 0.7"/>
   </g>
   <g id="patch_44">
    <path d="M 16.953335 65.22 
L 23.905007 65.22 
L 23.905007 65.22 
L 16.953335 65.22 
z
" clip-path="url(#p76aa80b5e4)" style="fill: #ff667b; opacity: 0.7"/>
   </g>
   <g id="patch_45">
    <path d="M 23.905007 65.22 
L 30.856674 65.22 
L 30.856674 65.22 
L 23.905007 65.22 
z
" clip-path="url(#p76aa80b5e4)" style="fill: #ff667b; opacity: 0.7"/>
   </g>
   <g id="patch_46">
    <path d="M 30.856674 65.22 
L 37.80834 65.22 
L 37.80834 65.22 
L 30.856674 65.22 
z
" clip-path="url(#p76aa80b5e4)" style="fill: #ff667b; opacity: 0.7"/>
   </g>
   <g id="patch_47">
    <path d="M 37.80834 65.22 
L 44.76 65.22 
L 44.76 65.22 
L 37.80834 65.22 
z
" clip-path="url(#p76aa80b5e4)" style="fill: #ff667b; opacity: 0.7"/>
   </g>
   <g id="patch_48">
    <path d="M 44.76 65.22 
L 51.711672 65.22 
L 51.711672 -29.392421 
L 44.76 -29.392421 
z
" clip-path="url(#p76aa80b5e4)" style="fill: #ff667b; opacity: 0.7"/>
   </g>
   <g id="patch_49">
    <path d="M 51.711672 65.22 
L 58.663345 65.22 
L 58.663345 65.22 
L 51.711672 65.22 
z
" clip-path="url(#p76aa80b5e4)" style="fill: #ff667b; opacity: 0.7"/>
   </g>
   <g id="patch_50">
    <path d="M 58.663345 65.22 
L 65.615005 65.22 
L 65.615005 65.22 
L 58.663345 65.22 
z
" clip-path="url(#p76aa80b5e4)" style="fill: #ff667b; opacity: 0.7"/>
   </g>
   <g id="patch_51">
    <path d="M 65.615005 65.22 
L 72.566677 65.22 
L 72.566677 65.22 
L 65.615005 65.22 
z
" clip-path="url(#p76aa80b5e4)" style="fill: #ff667b; opacity: 0.7"/>
   </g>
   <g id="patch_52">
    <path d="M 72.566677 65.22 
L 79.518337 65.22 
L 79.518337 65.22 
L 72.566677 65.22 
z
" clip-path="url(#p76aa80b5e4)" style="fill: #ff667b; opacity: 0.7"/>
   </g>
   <g id="patch_53">
    <path d="M 79.518337 65.22 
L 86.47001 65.22 
L 86.47001 65.22 
L 79.518337 65.22 
z
" clip-path="url(#p76aa80b5e4)" style="fill: #ff667b; opacity: 0.7"/>
   </g>
   <g id="patch_54">
    <path d="M 86.47001 65.22 
L 93.42167 65.22 
L 93.42167 65.22 
L 86.47001 65.22 
z
" clip-path="url(#p76aa80b5e4)" style="fill: #ff667b; opacity: 0.7"/>
   </g>
   <g id="patch_55">
    <path d="M 93.42167 65.22 
L 100.373342 65.22 
L 100.373342 65.22 
L 93.42167 65.22 
z
" clip-path="url(#p76aa80b5e4)" style="fill: #ff667b; opacity: 0.7"/>
   </g>
   <g id="patch_56">
    <path d="M 100.373342 65.22 
L 107.325015 65.22 
L 107.325015 65.22 
L 100.373342 65.22 
z
" clip-path="url(#p76aa80b5e4)" style="fill: #ff667b; opacity: 0.7"/>
   </g>
   <g id="patch_57">
    <path d="M 107.325015 65.22 
L 114.276675 65.22 
L 114.276675 65.22 
L 107.325015 65.22 
z
" clip-path="url(#p76aa80b5e4)" style="fill: #ff667b; opacity: 0.7"/>
   </g>
   <g id="patch_58">
    <path d="M 114.276675 65.22 
L 121.228347 65.22 
L 121.228347 65.22 
L 114.276675 65.22 
z
" clip-path="url(#p76aa80b5e4)" style="fill: #ff667b; opacity: 0.7"/>
   </g>
   <g id="patch_59">
    <path d="M 121.228347 65.22 
L 128.180007 65.22 
L 128.180007 65.22 
L 121.228347 65.22 
z
" clip-path="url(#p76aa80b5e4)" style="fill: #ff667b; opacity: 0.7"/>
   </g>
   <g id="patch_60">
    <path d="M 128.180007 65.22 
L 135.13168 65.22 
L 135.13168 65.22 
L 128.180007 65.22 
z
" clip-path="url(#p76aa80b5e4)" style="fill: #ff667b; opacity: 0.7"/>
   </g>
   <g id="patch_61">
    <path d="M 135.13168 65.22 
L 142.08334 65.22 
L 142.08334 65.22 
L 135.13168 65.22 
z
" clip-path="url(#p76aa80b5e4)" style="fill: #ff667b; opacity: 0.7"/>
   </g>
   <g id="patch_62">
    <path d="M 142.08334 65.22 
L 149.035 65.22 
L 149.035 65.22 
L 142.08334 65.22 
z
" clip-path="url(#p76aa80b5e4)" style="fill: #ff667b; opacity: 0.7"/>
   </g>
   <g id="matplotlib.axis_1">
    <g id="xtick_1">
     <g id="line2d_1">
      <defs>
       <path id="m58235d6e66" d="M 0 0 
L 0 3.6 
" style="stroke: #000000; stroke-width: 1.2"/>
      </defs>
      <g>
       <use xlink:href="#m58235d6e66" x="44.76" y="65.22" style="stroke: #000000; stroke-width: 1.2"/>
      </g>
     </g>
     <g id="text_1">
      <!-- 0.0 -->
      <g transform="translate(36.808437 79.918438) scale(0.1 -0.1)">
       <defs>
        <path id="DejaVuSans-30" d="M 2034 4250 
Q 1547 4250 1301 3770 
Q 1056 3291 1056 2328 
Q 1056 1369 1301 889 
Q 1547 409 2034 409 
Q 2525 409 2770 889 
Q 3016 1369 3016 2328 
Q 3016 3291 2770 3770 
Q 2525 4250 2034 4250 
z
M 2034 4750 
Q 2819 4750 3233 4129 
Q 3647 3509 3647 2328 
Q 3647 1150 3233 529 
Q 2819 -91 2034 -91 
Q 1250 -91 836 529 
Q 422 1150 422 2328 
Q 422 3509 836 4129 
Q 1250 4750 2034 4750 
z
" transform="scale(0.015625)"/>
        <path id="DejaVuSans-2e" d="M 684 794 
L 1344 794 
L 1344 0 
L 684 0 
L 684 794 
z
" transform="scale(0.015625)"/>
       </defs>
       <use xlink:href="#DejaVuSans-30"/>
       <use xlink:href="#DejaVuSans-2e" x="63.623047"/>
       <use xlink:href="#DejaVuSans-30" x="95.410156"/>
      </g>
     </g>
    </g>
    <g id="xtick_2">
     <g id="line2d_2">
      <g>
       <use xlink:href="#m58235d6e66" x="65.615" y="65.22" style="stroke: #000000; stroke-width: 1.2"/>
      </g>
     </g>
     <g id="text_2">
      <!-- 0.1 -->
      <g transform="translate(57.663438 79.918438) scale(0.1 -0.1)">
       <defs>
        <path id="DejaVuSans-31" d="M 794 531 
L 1825 531 
L 1825 4091 
L 703 3866 
L 703 4441 
L 1819 4666 
L 2450 4666 
L 2450 531 
L 3481 531 
L 3481 0 
L 794 0 
L 794 531 
z
" transform="scale(0.015625)"/>
       </defs>
       <use xlink:href="#DejaVuSans-30"/>
       <use xlink:href="#DejaVuSans-2e" x="63.623047"/>
       <use xlink:href="#DejaVuSans-31" x="95.410156"/>
      </g>
     </g>
    </g>
    <g id="xtick_3">
     <g id="line2d_3">
      <g>
       <use xlink:href="#m58235d6e66" x="86.47" y="65.22" style="stroke: #000000; stroke-width: 1.2"/>
      </g>
     </g>
     <g id="text_3">
      <!-- 0.2 -->
      <g transform="translate(78.518438 79.918438) scale(0.1 -0.1)">
       <defs>
        <path id="DejaVuSans-32" d="M 1228 531 
L 3431 531 
L 3431 0 
L 469 0 
L 469 531 
Q 828 903 1448 1529 
Q 2069 2156 2228 2338 
Q 2531 2678 2651 2914 
Q 2772 3150 2772 3378 
Q 2772 3750 2511 3984 
Q 2250 4219 1831 4219 
Q 1534 4219 1204 4116 
Q 875 4013 500 3803 
L 500 4441 
Q 881 4594 1212 4672 
Q 1544 4750 1819 4750 
Q 2544 4750 2975 4387 
Q 3406 4025 3406 3419 
Q 3406 3131 3298 2873 
Q 3191 2616 2906 2266 
Q 2828 2175 2409 1742 
Q 1991 1309 1228 531 
z
" transform="scale(0.015625)"/>
       </defs>
       <use xlink:href="#DejaVuSans-30"/>
       <use xlink:href="#DejaVuSans-2e" x="63.623047"/>
       <use xlink:href="#DejaVuSans-32" x="95.410156"/>
      </g>
     </g>
    </g>
    <g id="xtick_4">
     <g id="line2d_4">
      <g>
       <use xlink:href="#m58235d6e66" x="107.325" y="65.22" style="stroke: #000000; stroke-width: 1.2"/>
      </g>
     </g>
     <g id="text_4">
      <!-- 0.3 -->
      <g transform="translate(99.373437 79.918438) scale(0.1 -0.1)">
       <defs>
        <path id="DejaVuSans-33" d="M 2597 2516 
Q 3050 2419 3304 2112 
Q 3559 1806 3559 1356 
Q 3559 666 3084 287 
Q 2609 -91 1734 -91 
Q 1441 -91 1130 -33 
Q 819 25 488 141 
L 488 750 
Q 750 597 1062 519 
Q 1375 441 1716 441 
Q 2309 441 2620 675 
Q 2931 909 2931 1356 
Q 2931 1769 2642 2001 
Q 2353 2234 1838 2234 
L 1294 2234 
L 1294 2753 
L 1863 2753 
Q 2328 2753 2575 2939 
Q 2822 3125 2822 3475 
Q 2822 3834 2567 4026 
Q 2313 4219 1838 4219 
Q 1578 4219 1281 4162 
Q 984 4106 628 3988 
L 628 4550 
Q 988 4650 1302 4700 
Q 1616 4750 1894 4750 
Q 2613 4750 3031 4423 
Q 3450 4097 3450 3541 
Q 3450 3153 3228 2886 
Q 3006 2619 2597 2516 
z
" transform="scale(0.015625)"/>
       </defs>
       <use xlink:href="#DejaVuSans-30"/>
       <use xlink:href="#DejaVuSans-2e" x="63.623047"/>
       <use xlink:href="#DejaVuSans-33" x="95.410156"/>
      </g>
     </g>
    </g>
    <g id="text_5">
     <!-- $q_{4}$ -->
     <g transform="translate(70.4925 93.57625) scale(0.1 -0.1)">
      <defs>
       <path id="DejaVuSans-Oblique-71" d="M 2669 525 
Q 2438 222 2123 65 
Q 1809 -91 1428 -91 
Q 897 -91 595 267 
Q 294 625 294 1253 
Q 294 1759 480 2231 
Q 666 2703 1013 3078 
Q 1238 3322 1530 3453 
Q 1822 3584 2144 3584 
Q 2531 3584 2781 3431 
Q 3031 3278 3144 2969 
L 3244 3494 
L 3822 3494 
L 2888 -1319 
L 2309 -1319 
L 2669 525 
z
M 891 1338 
Q 891 875 1084 633 
Q 1278 391 1644 391 
Q 2188 391 2572 911 
Q 2956 1431 2956 2175 
Q 2956 2625 2757 2864 
Q 2559 3103 2188 3103 
Q 1916 3103 1684 2976 
Q 1453 2850 1281 2606 
Q 1100 2350 995 2006 
Q 891 1663 891 1338 
z
" transform="scale(0.015625)"/>
       <path id="DejaVuSans-34" d="M 2419 4116 
L 825 1625 
L 2419 1625 
L 2419 4116 
z
M 2253 4666 
L 3047 4666 
L 3047 1625 
L 3713 1625 
L 3713 1100 
L 3047 1100 
L 3047 0 
L 2419 0 
L 2419 1100 
L 313 1100 
L 313 1709 
L 2253 4666 
z
" transform="scale(0.015625)"/>
      </defs>
      <use xlink:href="#DejaVuSans-Oblique-71"/>
      <use xlink:href="#DejaVuSans-34" transform="translate(63.476562 -16.40625) scale(0.7)"/>
     </g>
    </g>
   </g>
   <g id="matplotlib.axis_2">
    <g id="ytick_1">
     <g id="line2d_5">
      <defs>
       <path id="m42df0d360b" d="M 0 0 
L -3.6 0 
" style="stroke: #000000; stroke-width: 1.2"/>
      </defs>
      <g>
       <use xlink:href="#m42df0d360b" x="44.76" y="65.22" style="stroke: #000000; stroke-width: 1.2"/>
      </g>
     </g>
     <g id="text_6">
      <!-- 0 -->
      <g transform="translate(31.2975 69.019219) scale(0.1 -0.1)">
       <use xlink:href="#DejaVuSans-30"/>
      </g>
     </g>
    </g>
    <g id="ytick_2">
     <g id="line2d_6">
      <g>
       <use xlink:href="#m42df0d360b" x="44.76" y="39.99" style="stroke: #000000; stroke-width: 1.2"/>
      </g>
     </g>
     <g id="text_7">
      <!-- 8 -->
      <g transform="translate(31.2975 43.789219) scale(0.1 -0.1)">
       <defs>
        <path id="DejaVuSans-38" d="M 2034 2216 
Q 1584 2216 1326 1975 
Q 1069 1734 1069 1313 
Q 1069 891 1326 650 
Q 1584 409 2034 409 
Q 2484 409 2743 651 
Q 3003 894 3003 1313 
Q 3003 1734 2745 1975 
Q 2488 2216 2034 2216 
z
M 1403 2484 
Q 997 2584 770 2862 
Q 544 3141 544 3541 
Q 544 4100 942 4425 
Q 1341 4750 2034 4750 
Q 2731 4750 3128 4425 
Q 3525 4100 3525 3541 
Q 3525 3141 3298 2862 
Q 3072 2584 2669 2484 
Q 3125 2378 3379 2068 
Q 3634 1759 3634 1313 
Q 3634 634 3220 271 
Q 2806 -91 2034 -91 
Q 1263 -91 848 271 
Q 434 634 434 1313 
Q 434 1759 690 2068 
Q 947 2378 1403 2484 
z
M 1172 3481 
Q 1172 3119 1398 2916 
Q 1625 2713 2034 2713 
Q 2441 2713 2670 2916 
Q 2900 3119 2900 3481 
Q 2900 3844 2670 4047 
Q 2441 4250 2034 4250 
Q 1625 4250 1398 4047 
Q 1172 3844 1172 3481 
z
" transform="scale(0.015625)"/>
       </defs>
       <use xlink:href="#DejaVuSans-38"/>
      </g>
     </g>
    </g>
    <g id="ytick_3">
     <g id="line2d_7">
      <g>
       <use xlink:href="#m42df0d360b" x="44.76" y="14.76" style="stroke: #000000; stroke-width: 1.2"/>
      </g>
     </g>
     <g id="text_8">
      <!-- 16 -->
      <g transform="translate(24.935 18.559219) scale(0.1 -0.1)">
       <defs>
        <path id="DejaVuSans-36" d="M 2113 2584 
Q 1688 2584 1439 2293 
Q 1191 2003 1191 1497 
Q 1191 994 1439 701 
Q 1688 409 2113 409 
Q 2538 409 2786 701 
Q 3034 994 3034 1497 
Q 3034 2003 2786 2293 
Q 2538 2584 2113 2584 
z
M 3366 4563 
L 3366 3988 
Q 3128 4100 2886 4159 
Q 2644 4219 2406 4219 
Q 1781 4219 1451 3797 
Q 1122 3375 1075 2522 
Q 1259 2794 1537 2939 
Q 1816 3084 2150 3084 
Q 2853 3084 3261 2657 
Q 3669 2231 3669 1497 
Q 3669 778 3244 343 
Q 2819 -91 2113 -91 
Q 1303 -91 875 529 
Q 447 1150 447 2328 
Q 447 3434 972 4092 
Q 1497 4750 2381 4750 
Q 2619 4750 2861 4703 
Q 3103 4656 3366 4563 
z
" transform="scale(0.015625)"/>
       </defs>
       <use xlink:href="#DejaVuSans-31"/>
       <use xlink:href="#DejaVuSans-36" x="63.623047"/>
      </g>
     </g>
    </g>
    <g id="text_9">
     <!-- Density -->
     <g transform="translate(18.855312 58.998594) rotate(-90) scale(0.1 -0.1)">
      <defs>
       <path id="DejaVuSans-44" d="M 1259 4147 
L 1259 519 
L 2022 519 
Q 2988 519 3436 956 
Q 3884 1394 3884 2338 
Q 3884 3275 3436 3711 
Q 2988 4147 2022 4147 
L 1259 4147 
z
M 628 4666 
L 1925 4666 
Q 3281 4666 3915 4102 
Q 4550 3538 4550 2338 
Q 4550 1131 3912 565 
Q 3275 0 1925 0 
L 628 0 
L 628 4666 
z
" transform="scale(0.015625)"/>
       <path id="DejaVuSans-65" d="M 3597 1894 
L 3597 1613 
L 953 1613 
Q 991 1019 1311 708 
Q 1631 397 2203 397 
Q 2534 397 2845 478 
Q 3156 559 3463 722 
L 3463 178 
Q 3153 47 2828 -22 
Q 2503 -91 2169 -91 
Q 1331 -91 842 396 
Q 353 884 353 1716 
Q 353 2575 817 3079 
Q 1281 3584 2069 3584 
Q 2775 3584 3186 3129 
Q 3597 2675 3597 1894 
z
M 3022 2063 
Q 3016 2534 2758 2815 
Q 2500 3097 2075 3097 
Q 1594 3097 1305 2825 
Q 1016 2553 972 2059 
L 3022 2063 
z
" transform="scale(0.015625)"/>
       <path id="DejaVuSans-6e" d="M 3513 2113 
L 3513 0 
L 2938 0 
L 2938 2094 
Q 2938 2591 2744 2837 
Q 2550 3084 2163 3084 
Q 1697 3084 1428 2787 
Q 1159 2491 1159 1978 
L 1159 0 
L 581 0 
L 581 3500 
L 1159 3500 
L 1159 2956 
Q 1366 3272 1645 3428 
Q 1925 3584 2291 3584 
Q 2894 3584 3203 3211 
Q 3513 2838 3513 2113 
z
" transform="scale(0.015625)"/>
       <path id="DejaVuSans-73" d="M 2834 3397 
L 2834 2853 
Q 2591 2978 2328 3040 
Q 2066 3103 1784 3103 
Q 1356 3103 1142 2972 
Q 928 2841 928 2578 
Q 928 2378 1081 2264 
Q 1234 2150 1697 2047 
L 1894 2003 
Q 2506 1872 2764 1633 
Q 3022 1394 3022 966 
Q 3022 478 2636 193 
Q 2250 -91 1575 -91 
Q 1294 -91 989 -36 
Q 684 19 347 128 
L 347 722 
Q 666 556 975 473 
Q 1284 391 1588 391 
Q 1994 391 2212 530 
Q 2431 669 2431 922 
Q 2431 1156 2273 1281 
Q 2116 1406 1581 1522 
L 1381 1569 
Q 847 1681 609 1914 
Q 372 2147 372 2553 
Q 372 3047 722 3315 
Q 1072 3584 1716 3584 
Q 2034 3584 2315 3537 
Q 2597 3491 2834 3397 
z
" transform="scale(0.015625)"/>
       <path id="DejaVuSans-69" d="M 603 3500 
L 1178 3500 
L 1178 0 
L 603 0 
L 603 3500 
z
M 603 4863 
L 1178 4863 
L 1178 4134 
L 603 4134 
L 603 4863 
z
" transform="scale(0.015625)"/>
       <path id="DejaVuSans-74" d="M 1172 4494 
L 1172 3500 
L 2356 3500 
L 2356 3053 
L 1172 3053 
L 1172 1153 
Q 1172 725 1289 603 
Q 1406 481 1766 481 
L 2356 481 
L 2356 0 
L 1766 0 
Q 1100 0 847 248 
Q 594 497 594 1153 
L 594 3053 
L 172 3053 
L 172 3500 
L 594 3500 
L 594 4494 
L 1172 4494 
z
" transform="scale(0.015625)"/>
       <path id="DejaVuSans-79" d="M 2059 -325 
Q 1816 -950 1584 -1140 
Q 1353 -1331 966 -1331 
L 506 -1331 
L 506 -850 
L 844 -850 
Q 1081 -850 1212 -737 
Q 1344 -625 1503 -206 
L 1606 56 
L 191 3500 
L 800 3500 
L 1894 763 
L 2988 3500 
L 3597 3500 
L 2059 -325 
z
" transform="scale(0.015625)"/>
      </defs>
      <use xlink:href="#DejaVuSans-44"/>
      <use xlink:href="#DejaVuSans-65" x="77.001953"/>
      <use xlink:href="#DejaVuSans-6e" x="138.525391"/>
      <use xlink:href="#DejaVuSans-73" x="201.904297"/>
      <use xlink:href="#DejaVuSans-69" x="254.003906"/>
      <use xlink:href="#DejaVuSans-74" x="281.787109"/>
      <use xlink:href="#DejaVuSans-79" x="320.996094"/>
     </g>
    </g>
   </g>
   <g id="patch_63">
    <path d="M 44.76 65.22 
L 44.76 14.76 
" style="fill: none; stroke: #000000; stroke-width: 1.3; stroke-linejoin: miter; stroke-linecap: square"/>
   </g>
   <g id="patch_64">
    <path d="M 44.76 65.22 
L 107.325 65.22 
" style="fill: none; stroke: #000000; stroke-width: 1.3; stroke-linejoin: miter; stroke-linecap: square"/>
   </g>
  </g>
 </g>
 <defs>
  <clipPath id="p76aa80b5e4">
   <rect x="44.76" y="14.76" width="62.565" height="50.46"/>
  </clipPath>
 </defs>
</svg>
