<?xml version="1.0" encoding="utf-8" standalone="no"?>
<!DOCTYPE svg PUBLIC "-//W3C//DTD SVG 1.1//EN"
  "http://www.w3.org/Graphics/SVG/1.1/DTD/svg11.dtd">
<svg xmlns:xlink="http://www.w3.org/1999/xlink" width="126pt" height="108pt" viewBox="0 0 126 108" xmlns="http://www.w3.org/2000/svg" version="1.1">
 <metadata>
  <rdf:RDF xmlns:dc="http://purl.org/dc/elements/1.1/" xmlns:cc="http://creativecommons.org/ns#" xmlns:rdf="http://www.w3.org/1999/02/22-rdf-syntax-ns#">
   <cc:Work>
    <dc:type rdf:resource="http://purl.org/dc/dcmitype/StillImage"/>
    <dc:date>2025-10-10T14:43:58.282948</dc:date>
    <dc:format>image/svg+xml</dc:format>
    <dc:creator>
     <cc:Agent>
      <dc:title>Matplotlib v3.10.5, https://matplotlib.org/</dc:title>
     </cc:Agent>
    </dc:creator>
   </cc:Work>
  </rdf:RDF>
 </metadata>
 <defs>
  <style type="text/css">*{stroke-linejoin: round; stroke-linecap: butt}</style>
 </defs>
 <g id="figure_1">
  <g id="patch_1">
   <path d="M 0 108 
L 126 108 
L 126 0 
L 0 0 
L 0 108 
z
" style="fill: none"/>
  </g>
  <g id="axes_1">
   <g id="patch_2">
    <path d="M 44.4 61.188 
L 109.62 61.188 
L 109.62 14.04 
L 44.4 14.04 
L 44.4 61.188 
z
" style="fill: none"/>
   </g>
   <g id="patch_3">
    <path d="M 47.237894 61.188 
L 49.093833 61.188 
L 49.093833 61.105158 
L 47.237894 61.105158 
z
" clip-path="url(#p625cf2f8ee)" style="fill: #4da5fe; opacity: 0.7"/>
   </g>
   <g id="patch_4">
    <path d="M 49.093833 61.188 
L 50.949772 61.188 
L 50.949772 61.105158 
L 49.093833 61.105158 
z
" clip-path="url(#p625cf2f8ee)" style="fill: #4da5fe; opacity: 0.7"/>
   </g>
   <g id="patch_5">
    <path d="M 50.949772 61.188 
L 52.805711 61.188 
L 52.805711 61.146579 
L 50.949772 61.146579 
z
" clip-path="url(#p625cf2f8ee)" style="fill: #4da5fe; opacity: 0.7"/>
   </g>
   <g id="patch_6">
    <path d="M 52.805711 61.188 
L 54.661643 61.188 
L 54.661643 61.063737 
L 52.805711 61.063737 
z
" clip-path="url(#p625cf2f8ee)" style="fill: #4da5fe; opacity: 0.7"/>
   </g>
   <g id="patch_7">
    <path d="M 54.661643 61.188 
L 56.517582 61.188 
L 56.517582 60.690948 
L 54.661643 60.690948 
z
" clip-path="url(#p625cf2f8ee)" style="fill: #4da5fe; opacity: 0.7"/>
   </g>
   <g id="patch_8">
    <path d="M 56.517582 61.188 
L 58.373521 61.188 
L 58.373521 60.649527 
L 56.517582 60.649527 
z
" clip-path="url(#p625cf2f8ee)" style="fill: #4da5fe; opacity: 0.7"/>
   </g>
   <g id="patch_9">
    <path d="M 58.373521 61.188 
L 60.229454 61.188 
L 60.229454 59.862524 
L 58.373521 59.862524 
z
" clip-path="url(#p625cf2f8ee)" style="fill: #4da5fe; opacity: 0.7"/>
   </g>
   <g id="patch_10">
    <path d="M 60.229454 61.188 
L 62.085399 61.188 
L 62.085399 59.406904 
L 60.229454 59.406904 
z
" clip-path="url(#p625cf2f8ee)" style="fill: #4da5fe; opacity: 0.7"/>
   </g>
   <g id="patch_11">
    <path d="M 62.085399 61.188 
L 63.941332 61.188 
L 63.941332 57.625784 
L 62.085399 57.625784 
z
" clip-path="url(#p625cf2f8ee)" style="fill: #4da5fe; opacity: 0.7"/>
   </g>
   <g id="patch_12">
    <path d="M 63.941332 61.188 
L 65.797277 61.188 
L 65.797277 56.134657 
L 63.941332 56.134657 
z
" clip-path="url(#p625cf2f8ee)" style="fill: #4da5fe; opacity: 0.7"/>
   </g>
   <g id="patch_13">
    <path d="M 65.797277 61.188 
L 67.65321 61.188 
L 67.65321 53.815041 
L 65.797277 53.815041 
z
" clip-path="url(#p625cf2f8ee)" style="fill: #4da5fe; opacity: 0.7"/>
   </g>
   <g id="patch_14">
    <path d="M 67.65321 61.188 
L 69.509143 61.188 
L 69.509143 50.252824 
L 67.65321 50.252824 
z
" clip-path="url(#p625cf2f8ee)" style="fill: #4da5fe; opacity: 0.7"/>
   </g>
   <g id="patch_15">
    <path d="M 69.509143 61.188 
L 71.365088 61.188 
L 71.365088 47.104913 
L 69.509143 47.104913 
z
" clip-path="url(#p625cf2f8ee)" style="fill: #4da5fe; opacity: 0.7"/>
   </g>
   <g id="patch_16">
    <path d="M 71.365088 61.188 
L 73.221021 61.188 
L 73.221021 41.637231 
L 71.365088 41.637231 
z
" clip-path="url(#p625cf2f8ee)" style="fill: #4da5fe; opacity: 0.7"/>
   </g>
   <g id="patch_17">
    <path d="M 73.221021 61.188 
L 75.076966 61.188 
L 75.076966 38.737903 
L 73.221021 38.737903 
z
" clip-path="url(#p625cf2f8ee)" style="fill: #4da5fe; opacity: 0.7"/>
   </g>
   <g id="patch_18">
    <path d="M 75.076966 61.188 
L 76.932899 61.188 
L 76.932899 34.471377 
L 75.076966 34.471377 
z
" clip-path="url(#p625cf2f8ee)" style="fill: #4da5fe; opacity: 0.7"/>
   </g>
   <g id="patch_19">
    <path d="M 76.932899 61.188 
L 78.788844 61.188 
L 78.788844 31.69636 
L 76.932899 31.69636 
z
" clip-path="url(#p625cf2f8ee)" style="fill: #4da5fe; opacity: 0.7"/>
   </g>
   <g id="patch_20">
    <path d="M 78.788844 61.188 
L 80.644777 61.188 
L 80.644777 28.258209 
L 78.788844 28.258209 
z
" clip-path="url(#p625cf2f8ee)" style="fill: #4da5fe; opacity: 0.7"/>
   </g>
   <g id="patch_21">
    <path d="M 80.644777 61.188 
L 82.500709 61.188 
L 82.500709 24.364624 
L 80.644777 24.364624 
z
" clip-path="url(#p625cf2f8ee)" style="fill: #4da5fe; opacity: 0.7"/>
   </g>
   <g id="patch_22">
    <path d="M 82.500709 61.188 
L 84.356654 61.188 
L 84.356654 21.258307 
L 82.500709 21.258307 
z
" clip-path="url(#p625cf2f8ee)" style="fill: #4da5fe; opacity: 0.7"/>
   </g>
   <g id="patch_23">
    <path d="M 84.356654 61.188 
L 86.212587 61.188 
L 86.212587 21.920778 
L 84.356654 21.920778 
z
" clip-path="url(#p625cf2f8ee)" style="fill: #4da5fe; opacity: 0.7"/>
   </g>
   <g id="patch_24">
    <path d="M 86.212587 61.188 
L 88.068532 61.188 
L 88.068532 23.867821 
L 86.212587 23.867821 
z
" clip-path="url(#p625cf2f8ee)" style="fill: #4da5fe; opacity: 0.7"/>
   </g>
   <g id="patch_25">
    <path d="M 88.068532 61.188 
L 89.924465 61.188 
L 89.924465 30.163581 
L 88.068532 30.163581 
z
" clip-path="url(#p625cf2f8ee)" style="fill: #4da5fe; opacity: 0.7"/>
   </g>
   <g id="patch_26">
    <path d="M 89.924465 61.188 
L 91.78041 61.188 
L 91.78041 37.868065 
L 89.924465 37.868065 
z
" clip-path="url(#p625cf2f8ee)" style="fill: #4da5fe; opacity: 0.7"/>
   </g>
   <g id="patch_27">
    <path d="M 91.78041 61.188 
L 93.636343 61.188 
L 93.636343 45.613659 
L 91.78041 45.613659 
z
" clip-path="url(#p625cf2f8ee)" style="fill: #4da5fe; opacity: 0.7"/>
   </g>
   <g id="patch_28">
    <path d="M 93.636343 61.188 
L 95.492276 61.188 
L 95.492276 53.317987 
L 93.636343 53.317987 
z
" clip-path="url(#p625cf2f8ee)" style="fill: #4da5fe; opacity: 0.7"/>
   </g>
   <g id="patch_29">
    <path d="M 95.492276 61.188 
L 97.348221 61.188 
L 97.348221 57.087337 
L 95.492276 57.087337 
z
" clip-path="url(#p625cf2f8ee)" style="fill: #4da5fe; opacity: 0.7"/>
   </g>
   <g id="patch_30">
    <path d="M 97.348221 61.188 
L 99.204154 61.188 
L 99.204154 59.613997 
L 97.348221 59.613997 
z
" clip-path="url(#p625cf2f8ee)" style="fill: #4da5fe; opacity: 0.7"/>
   </g>
   <g id="patch_31">
    <path d="M 99.204154 61.188 
L 101.060099 61.188 
L 101.060099 60.649529 
L 99.204154 60.649529 
z
" clip-path="url(#p625cf2f8ee)" style="fill: #4da5fe; opacity: 0.7"/>
   </g>
   <g id="patch_32">
    <path d="M 101.060099 61.188 
L 102.916032 61.188 
L 102.916032 60.939473 
L 101.060099 60.939473 
z
" clip-path="url(#p625cf2f8ee)" style="fill: #4da5fe; opacity: 0.7"/>
   </g>
   <g id="patch_33">
    <path d="M 45.14815 61.188 
L 46.936678 61.188 
L 46.936678 61.102036 
L 45.14815 61.102036 
z
" clip-path="url(#p625cf2f8ee)" style="fill: #f9a54b; opacity: 0.7"/>
   </g>
   <g id="patch_34">
    <path d="M 46.936678 61.188 
L 48.725206 61.188 
L 48.725206 61.016071 
L 46.936678 61.016071 
z
" clip-path="url(#p625cf2f8ee)" style="fill: #f9a54b; opacity: 0.7"/>
   </g>
   <g id="patch_35">
    <path d="M 48.725206 61.188 
L 50.513728 61.188 
L 50.513728 60.887124 
L 48.725206 60.887124 
z
" clip-path="url(#p625cf2f8ee)" style="fill: #f9a54b; opacity: 0.7"/>
   </g>
   <g id="patch_36">
    <path d="M 50.513728 61.188 
L 52.302256 61.188 
L 52.302256 60.672214 
L 50.513728 60.672214 
z
" clip-path="url(#p625cf2f8ee)" style="fill: #f9a54b; opacity: 0.7"/>
   </g>
   <g id="patch_37">
    <path d="M 52.302256 61.188 
L 54.090784 61.188 
L 54.090784 60.672214 
L 52.302256 60.672214 
z
" clip-path="url(#p625cf2f8ee)" style="fill: #f9a54b; opacity: 0.7"/>
   </g>
   <g id="patch_38">
    <path d="M 54.090784 61.188 
L 55.879312 61.188 
L 55.879312 59.726606 
L 54.090784 59.726606 
z
" clip-path="url(#p625cf2f8ee)" style="fill: #f9a54b; opacity: 0.7"/>
   </g>
   <g id="patch_39">
    <path d="M 55.879312 61.188 
L 57.66784 61.188 
L 57.66784 59.21082 
L 55.879312 59.21082 
z
" clip-path="url(#p625cf2f8ee)" style="fill: #f9a54b; opacity: 0.7"/>
   </g>
   <g id="patch_40">
    <path d="M 57.66784 61.188 
L 59.456362 61.188 
L 59.456362 56.674857 
L 57.66784 56.674857 
z
" clip-path="url(#p625cf2f8ee)" style="fill: #f9a54b; opacity: 0.7"/>
   </g>
   <g id="patch_41">
    <path d="M 59.456362 61.188 
L 61.244897 61.188 
L 61.244897 55.944194 
L 59.456362 55.944194 
z
" clip-path="url(#p625cf2f8ee)" style="fill: #f9a54b; opacity: 0.7"/>
   </g>
   <g id="patch_42">
    <path d="M 61.244897 61.188 
L 63.033418 61.188 
L 63.033418 54.267847 
L 61.244897 54.267847 
z
" clip-path="url(#p625cf2f8ee)" style="fill: #f9a54b; opacity: 0.7"/>
   </g>
   <g id="patch_43">
    <path d="M 63.033418 61.188 
L 64.82194 61.188 
L 64.82194 49.539792 
L 63.033418 49.539792 
z
" clip-path="url(#p625cf2f8ee)" style="fill: #f9a54b; opacity: 0.7"/>
   </g>
   <g id="patch_44">
    <path d="M 64.82194 61.188 
L 66.610475 61.188 
L 66.610475 48.035502 
L 64.82194 48.035502 
z
" clip-path="url(#p625cf2f8ee)" style="fill: #f9a54b; opacity: 0.7"/>
   </g>
   <g id="patch_45">
    <path d="M 66.610475 61.188 
L 68.398997 61.188 
L 68.398997 43.393321 
L 66.610475 43.393321 
z
" clip-path="url(#p625cf2f8ee)" style="fill: #f9a54b; opacity: 0.7"/>
   </g>
   <g id="patch_46">
    <path d="M 68.398997 61.188 
L 70.187531 61.188 
L 70.187531 40.341721 
L 68.398997 40.341721 
z
" clip-path="url(#p625cf2f8ee)" style="fill: #f9a54b; opacity: 0.7"/>
   </g>
   <g id="patch_47">
    <path d="M 70.187531 61.188 
L 71.976053 61.188 
L 71.976053 38.665266 
L 70.187531 38.665266 
z
" clip-path="url(#p625cf2f8ee)" style="fill: #f9a54b; opacity: 0.7"/>
   </g>
   <g id="patch_48">
    <path d="M 71.976053 61.188 
L 73.764575 61.188 
L 73.764575 30.455643 
L 71.976053 30.455643 
z
" clip-path="url(#p625cf2f8ee)" style="fill: #f9a54b; opacity: 0.7"/>
   </g>
   <g id="patch_49">
    <path d="M 73.764575 61.188 
L 75.553109 61.188 
L 75.553109 27.53308 
L 73.764575 27.53308 
z
" clip-path="url(#p625cf2f8ee)" style="fill: #f9a54b; opacity: 0.7"/>
   </g>
   <g id="patch_50">
    <path d="M 75.553109 61.188 
L 77.341631 61.188 
L 77.341631 24.008296 
L 75.553109 24.008296 
z
" clip-path="url(#p625cf2f8ee)" style="fill: #f9a54b; opacity: 0.7"/>
   </g>
   <g id="patch_51">
    <path d="M 77.341631 61.188 
L 79.130165 61.188 
L 79.130165 20.827885 
L 77.341631 20.827885 
z
" clip-path="url(#p625cf2f8ee)" style="fill: #f9a54b; opacity: 0.7"/>
   </g>
   <g id="patch_52">
    <path d="M 79.130165 61.188 
L 80.918687 61.188 
L 80.918687 20.311816 
L 79.130165 20.311816 
z
" clip-path="url(#p625cf2f8ee)" style="fill: #f9a54b; opacity: 0.7"/>
   </g>
   <g id="patch_53">
    <path d="M 80.918687 61.188 
L 82.707209 61.188 
L 82.707209 21.343392 
L 80.918687 21.343392 
z
" clip-path="url(#p625cf2f8ee)" style="fill: #f9a54b; opacity: 0.7"/>
   </g>
   <g id="patch_54">
    <path d="M 82.707209 61.188 
L 84.495743 61.188 
L 84.495743 26.888349 
L 82.707209 26.888349 
z
" clip-path="url(#p625cf2f8ee)" style="fill: #f9a54b; opacity: 0.7"/>
   </g>
   <g id="patch_55">
    <path d="M 84.495743 61.188 
L 86.284265 61.188 
L 86.284265 35.484574 
L 84.495743 35.484574 
z
" clip-path="url(#p625cf2f8ee)" style="fill: #f9a54b; opacity: 0.7"/>
   </g>
   <g id="patch_56">
    <path d="M 86.284265 61.188 
L 88.072799 61.188 
L 88.072799 43.264498 
L 86.284265 43.264498 
z
" clip-path="url(#p625cf2f8ee)" style="fill: #f9a54b; opacity: 0.7"/>
   </g>
   <g id="patch_57">
    <path d="M 88.072799 61.188 
L 89.861321 61.188 
L 89.861321 50.184527 
L 88.072799 50.184527 
z
" clip-path="url(#p625cf2f8ee)" style="fill: #f9a54b; opacity: 0.7"/>
   </g>
   <g id="patch_58">
    <path d="M 89.861321 61.188 
L 91.649843 61.188 
L 91.649843 54.869599 
L 89.861321 54.869599 
z
" clip-path="url(#p625cf2f8ee)" style="fill: #f9a54b; opacity: 0.7"/>
   </g>
   <g id="patch_59">
    <path d="M 91.649843 61.188 
L 93.438377 61.188 
L 93.438377 58.523115 
L 91.649843 58.523115 
z
" clip-path="url(#p625cf2f8ee)" style="fill: #f9a54b; opacity: 0.7"/>
   </g>
   <g id="patch_60">
    <path d="M 93.438377 61.188 
L 95.226899 61.188 
L 95.226899 60.113442 
L 93.438377 60.113442 
z
" clip-path="url(#p625cf2f8ee)" style="fill: #f9a54b; opacity: 0.7"/>
   </g>
   <g id="patch_61">
    <path d="M 95.226899 61.188 
L 97.015433 61.188 
L 97.015433 60.715198 
L 95.226899 60.715198 
z
" clip-path="url(#p625cf2f8ee)" style="fill: #f9a54b; opacity: 0.7"/>
   </g>
   <g id="patch_62">
    <path d="M 97.015433 61.188 
L 98.803955 61.188 
L 98.803955 61.145018 
L 97.015433 61.145018 
z
" clip-path="url(#p625cf2f8ee)" style="fill: #f9a54b; opacity: 0.7"/>
   </g>
   <g id="matplotlib.axis_1">
    <g id="xtick_1">
     <g id="line2d_1">
      <defs>
       <path id="meea83629df" d="M 0 0 
L 0 3.6 
" style="stroke: #000000; stroke-width: 1.2"/>
      </defs>
      <g>
       <use xlink:href="#meea83629df" x="57.444" y="61.188" style="stroke: #000000; stroke-width: 1.2"/>
      </g>
     </g>
     <g id="text_1">
      <!-- 8 -->
      <g transform="translate(54.664313 75.428625) scale(0.1 -0.1)">
       <defs>
        <path id="HelveticaNeue-38" d="M 992 3360 
Q 992 3533 1056 3661 
Q 1120 3789 1225 3878 
Q 1331 3968 1478 4013 
Q 1626 4058 1786 4058 
Q 2118 4058 2332 3882 
Q 2547 3706 2547 3360 
Q 2547 3014 2336 2822 
Q 2125 2630 1798 2630 
Q 1632 2630 1485 2675 
Q 1338 2720 1229 2809 
Q 1120 2899 1056 3036 
Q 992 3174 992 3360 
z
M 416 3379 
Q 416 3072 589 2813 
Q 762 2554 1050 2438 
Q 666 2304 461 2006 
Q 256 1709 256 1306 
Q 256 960 374 701 
Q 493 442 701 269 
Q 909 96 1190 13 
Q 1472 -70 1798 -70 
Q 2112 -70 2387 19 
Q 2662 109 2864 285 
Q 3066 461 3184 717 
Q 3302 973 3302 1306 
Q 3302 1728 3104 2019 
Q 2906 2310 2496 2438 
Q 2784 2566 2953 2819 
Q 3123 3072 3123 3379 
Q 3123 3597 3046 3805 
Q 2970 4013 2806 4176 
Q 2643 4339 2380 4438 
Q 2118 4538 1747 4538 
Q 1485 4538 1245 4461 
Q 1005 4384 819 4237 
Q 634 4090 525 3875 
Q 416 3661 416 3379 
z
M 832 1280 
Q 832 1478 905 1638 
Q 979 1798 1110 1913 
Q 1242 2029 1418 2089 
Q 1594 2150 1792 2150 
Q 1984 2150 2153 2083 
Q 2323 2016 2451 1901 
Q 2579 1786 2652 1629 
Q 2726 1472 2726 1286 
Q 2726 1094 2659 934 
Q 2592 774 2467 656 
Q 2342 538 2172 470 
Q 2003 403 1798 403 
Q 1376 403 1104 636 
Q 832 870 832 1280 
z
" transform="scale(0.015625)"/>
       </defs>
       <use xlink:href="#HelveticaNeue-38"/>
      </g>
     </g>
    </g>
    <g id="xtick_2">
     <g id="line2d_2">
      <g>
       <use xlink:href="#meea83629df" x="83.532" y="61.188" style="stroke: #000000; stroke-width: 1.2"/>
      </g>
     </g>
     <g id="text_2">
      <!-- 10 -->
      <g transform="translate(77.972625 75.428625) scale(0.1 -0.1)">
       <defs>
        <path id="HelveticaNeue-31" d="M 2278 0 
L 2278 4538 
L 1862 4538 
Q 1818 4282 1696 4115 
Q 1574 3949 1398 3853 
Q 1222 3757 1004 3721 
Q 787 3686 557 3686 
L 557 3251 
L 1734 3251 
L 1734 0 
L 2278 0 
z
" transform="scale(0.015625)"/>
        <path id="HelveticaNeue-30" d="M 845 2234 
Q 845 2400 848 2601 
Q 851 2803 880 3004 
Q 909 3206 963 3398 
Q 1018 3590 1123 3734 
Q 1229 3878 1389 3968 
Q 1549 4058 1779 4058 
Q 2010 4058 2170 3968 
Q 2330 3878 2435 3734 
Q 2541 3590 2595 3398 
Q 2650 3206 2678 3004 
Q 2707 2803 2710 2601 
Q 2714 2400 2714 2234 
Q 2714 1978 2698 1661 
Q 2682 1344 2595 1065 
Q 2509 787 2317 595 
Q 2125 403 1779 403 
Q 1434 403 1242 595 
Q 1050 787 963 1065 
Q 877 1344 861 1661 
Q 845 1978 845 2234 
z
M 269 2227 
Q 269 1978 281 1709 
Q 294 1440 345 1184 
Q 397 928 493 701 
Q 589 474 755 301 
Q 922 128 1174 29 
Q 1427 -70 1779 -70 
Q 2138 -70 2387 29 
Q 2637 128 2803 301 
Q 2970 474 3066 701 
Q 3162 928 3213 1184 
Q 3264 1440 3277 1709 
Q 3290 1978 3290 2227 
Q 3290 2477 3277 2745 
Q 3264 3014 3213 3270 
Q 3162 3526 3066 3756 
Q 2970 3987 2803 4160 
Q 2637 4333 2384 4435 
Q 2131 4538 1779 4538 
Q 1427 4538 1174 4435 
Q 922 4333 755 4160 
Q 589 3987 493 3756 
Q 397 3526 345 3270 
Q 294 3014 281 2745 
Q 269 2477 269 2227 
z
" transform="scale(0.015625)"/>
       </defs>
       <use xlink:href="#HelveticaNeue-31"/>
       <use xlink:href="#HelveticaNeue-30" transform="translate(55.599991 0)"/>
      </g>
     </g>
    </g>
    <g id="xtick_3">
     <g id="line2d_3">
      <g>
       <use xlink:href="#meea83629df" x="109.62" y="61.188" style="stroke: #000000; stroke-width: 1.2"/>
      </g>
     </g>
     <g id="text_3">
      <!-- 12 -->
      <g transform="translate(104.060625 75.428625) scale(0.1 -0.1)">
       <defs>
        <path id="HelveticaNeue-32" d="M 282 2931 
L 826 2931 
Q 819 3136 867 3337 
Q 915 3539 1024 3699 
Q 1133 3859 1302 3958 
Q 1472 4058 1709 4058 
Q 1888 4058 2048 4000 
Q 2208 3942 2326 3833 
Q 2445 3725 2515 3574 
Q 2586 3424 2586 3238 
Q 2586 3002 2512 2822 
Q 2438 2643 2294 2489 
Q 2150 2336 1932 2185 
Q 1715 2035 1427 1856 
Q 1190 1715 972 1555 
Q 755 1395 582 1184 
Q 410 973 298 688 
Q 186 403 154 0 
L 3117 0 
L 3117 480 
L 787 480 
Q 826 691 950 854 
Q 1075 1018 1251 1158 
Q 1427 1299 1638 1424 
Q 1850 1549 2061 1677 
Q 2272 1811 2470 1958 
Q 2669 2106 2822 2288 
Q 2976 2470 3069 2700 
Q 3162 2931 3162 3232 
Q 3162 3552 3050 3795 
Q 2938 4038 2746 4201 
Q 2554 4365 2294 4451 
Q 2035 4538 1741 4538 
Q 1382 4538 1100 4416 
Q 819 4294 630 4080 
Q 442 3866 352 3571 
Q 262 3277 282 2931 
z
" transform="scale(0.015625)"/>
       </defs>
       <use xlink:href="#HelveticaNeue-31"/>
       <use xlink:href="#HelveticaNeue-32" transform="translate(55.599991 0)"/>
      </g>
     </g>
    </g>
    <g id="text_4">
     <!-- $G_{1}^{H}$ -->
     <g transform="translate(69.96 90.398937) scale(0.1 -0.1)">
      <defs>
       <path id="DejaVuSans-Oblique-47" d="M 3494 697 
L 3738 1919 
L 2700 1919 
L 2797 2438 
L 4453 2438 
L 4050 384 
Q 3634 156 3143 32 
Q 2653 -91 2156 -91 
Q 1278 -91 783 396 
Q 288 884 288 1753 
Q 288 2475 589 3126 
Q 891 3778 1422 4213 
Q 1756 4484 2153 4617 
Q 2550 4750 3034 4750 
Q 3472 4750 3873 4639 
Q 4275 4528 4641 4306 
L 4513 3634 
Q 4231 3928 3853 4083 
Q 3475 4238 3047 4238 
Q 2550 4238 2172 4048 
Q 1794 3859 1497 3463 
Q 1244 3125 1098 2667 
Q 953 2209 953 1734 
Q 953 1081 1287 751 
Q 1622 422 2284 422 
Q 2616 422 2925 492 
Q 3234 563 3494 697 
z
" transform="scale(0.015625)"/>
       <path id="DejaVuSans-Oblique-48" d="M 1081 4666 
L 1716 4666 
L 1344 2753 
L 3634 2753 
L 4006 4666 
L 4641 4666 
L 3731 0 
L 3097 0 
L 3531 2222 
L 1241 2222 
L 806 0 
L 172 0 
L 1081 4666 
z
" transform="scale(0.015625)"/>
       <path id="DejaVuSans-31" d="M 794 531 
L 1825 531 
L 1825 4091 
L 703 3866 
L 703 4441 
L 1819 4666 
L 2450 4666 
L 2450 531 
L 3481 531 
L 3481 0 
L 794 0 
L 794 531 
z
" transform="scale(0.015625)"/>
      </defs>
      <use xlink:href="#DejaVuSans-Oblique-47" transform="translate(0 0.684375)"/>
      <use xlink:href="#DejaVuSans-Oblique-48" transform="translate(84.690755 38.965625) scale(0.7)"/>
      <use xlink:href="#DejaVuSans-31" transform="translate(77.490234 -26.659375) scale(0.7)"/>
     </g>
    </g>
   </g>
   <g id="matplotlib.axis_2">
    <g id="ytick_1">
     <g id="line2d_4">
      <defs>
       <path id="m116e507624" d="M 0 0 
L -3.6 0 
" style="stroke: #000000; stroke-width: 1.2"/>
      </defs>
      <g>
       <use xlink:href="#m116e507624" x="44.4" y="61.188" style="stroke: #000000; stroke-width: 1.2"/>
      </g>
     </g>
     <g id="text_5">
      <!-- 0.0 -->
      <g transform="translate(23.401563 64.758312) scale(0.1 -0.1)">
       <defs>
        <path id="HelveticaNeue-2e" d="M 531 710 
L 531 0 
L 1242 0 
L 1242 710 
L 531 710 
z
" transform="scale(0.015625)"/>
       </defs>
       <use xlink:href="#HelveticaNeue-30"/>
       <use xlink:href="#HelveticaNeue-2e" transform="translate(55.599991 0)"/>
       <use xlink:href="#HelveticaNeue-30" transform="translate(83.399979 0)"/>
      </g>
     </g>
    </g>
    <g id="ytick_2">
     <g id="line2d_5">
      <g>
       <use xlink:href="#m116e507624" x="44.4" y="37.614" style="stroke: #000000; stroke-width: 1.2"/>
      </g>
     </g>
     <g id="text_6">
      <!-- 0.4 -->
      <g transform="translate(23.401563 41.184313) scale(0.1 -0.1)">
       <defs>
        <path id="HelveticaNeue-34" d="M 2170 1542 
L 646 1542 
L 2157 3763 
L 2170 3763 
L 2170 1542 
z
M 2682 1542 
L 2682 4538 
L 2246 4538 
L 179 1587 
L 179 1062 
L 2170 1062 
L 2170 0 
L 2682 0 
L 2682 1062 
L 3296 1062 
L 3296 1542 
L 2682 1542 
z
" transform="scale(0.015625)"/>
       </defs>
       <use xlink:href="#HelveticaNeue-30"/>
       <use xlink:href="#HelveticaNeue-2e" transform="translate(55.599991 0)"/>
       <use xlink:href="#HelveticaNeue-34" transform="translate(83.399979 0)"/>
      </g>
     </g>
    </g>
    <g id="ytick_3">
     <g id="line2d_6">
      <g>
       <use xlink:href="#m116e507624" x="44.4" y="14.04" style="stroke: #000000; stroke-width: 1.2"/>
      </g>
     </g>
     <g id="text_7">
      <!-- 0.8 -->
      <g transform="translate(23.401563 17.610313) scale(0.1 -0.1)">
       <use xlink:href="#HelveticaNeue-30"/>
       <use xlink:href="#HelveticaNeue-2e" transform="translate(55.599991 0)"/>
       <use xlink:href="#HelveticaNeue-38" transform="translate(83.399979 0)"/>
      </g>
     </g>
    </g>
    <g id="text_8">
     <!-- Density -->
     <g transform="translate(17.33125 54.284313) rotate(-90) scale(0.1 -0.1)">
      <defs>
       <path id="HelveticaNeue-44" d="M 1107 512 
L 1107 4058 
L 2131 4058 
Q 2554 4058 2842 3939 
Q 3130 3821 3312 3593 
Q 3494 3366 3574 3043 
Q 3654 2720 3654 2310 
Q 3654 1888 3568 1590 
Q 3482 1293 3347 1094 
Q 3213 896 3043 781 
Q 2874 666 2701 605 
Q 2528 544 2374 528 
Q 2221 512 2118 512 
L 1107 512 
z
M 499 4570 
L 499 0 
L 2067 0 
Q 2637 0 3053 160 
Q 3469 320 3737 624 
Q 4006 928 4134 1373 
Q 4262 1818 4262 2394 
Q 4262 3494 3692 4032 
Q 3123 4570 2067 4570 
L 499 4570 
z
" transform="scale(0.015625)"/>
       <path id="HelveticaNeue-65" d="M 2707 1971 
L 806 1971 
Q 819 2163 889 2332 
Q 960 2502 1081 2630 
Q 1203 2758 1372 2832 
Q 1542 2906 1754 2906 
Q 1958 2906 2128 2832 
Q 2298 2758 2422 2633 
Q 2547 2509 2620 2336 
Q 2694 2163 2707 1971 
z
M 3232 1050 
L 2694 1050 
Q 2624 723 2403 563 
Q 2182 403 1837 403 
Q 1568 403 1369 492 
Q 1171 582 1043 732 
Q 915 883 857 1078 
Q 800 1274 806 1491 
L 3283 1491 
Q 3296 1792 3229 2125 
Q 3162 2458 2986 2739 
Q 2810 3021 2518 3203 
Q 2227 3386 1786 3386 
Q 1446 3386 1161 3258 
Q 877 3130 669 2899 
Q 461 2669 345 2355 
Q 230 2042 230 1664 
Q 243 1286 342 966 
Q 442 646 640 416 
Q 838 186 1129 58 
Q 1421 -70 1818 -70 
Q 2381 -70 2752 211 
Q 3123 493 3232 1050 
z
" transform="scale(0.015625)"/>
       <path id="HelveticaNeue-6e" d="M 410 3309 
L 410 0 
L 954 0 
L 954 1869 
Q 954 2093 1014 2281 
Q 1075 2470 1196 2611 
Q 1318 2752 1500 2829 
Q 1683 2906 1933 2906 
Q 2246 2906 2425 2726 
Q 2605 2547 2605 2240 
L 2605 0 
L 3149 0 
L 3149 2176 
Q 3149 2445 3094 2665 
Q 3040 2886 2905 3046 
Q 2771 3206 2553 3296 
Q 2336 3386 2010 3386 
Q 1274 3386 934 2784 
L 922 2784 
L 922 3309 
L 410 3309 
z
" transform="scale(0.015625)"/>
       <path id="HelveticaNeue-73" d="M 742 1043 
L 198 1043 
Q 211 736 326 521 
Q 442 307 634 176 
Q 826 45 1075 -12 
Q 1325 -70 1600 -70 
Q 1850 -70 2102 -22 
Q 2355 26 2556 147 
Q 2758 269 2883 467 
Q 3008 666 3008 966 
Q 3008 1203 2915 1363 
Q 2822 1523 2672 1628 
Q 2522 1734 2326 1798 
Q 2131 1862 1926 1907 
Q 1734 1952 1542 1993 
Q 1350 2035 1196 2096 
Q 1043 2157 944 2249 
Q 845 2342 845 2483 
Q 845 2611 909 2691 
Q 973 2771 1075 2819 
Q 1178 2867 1302 2886 
Q 1427 2906 1549 2906 
Q 1683 2906 1814 2877 
Q 1946 2848 2054 2784 
Q 2163 2720 2233 2614 
Q 2304 2509 2317 2349 
L 2861 2349 
Q 2842 2650 2733 2851 
Q 2624 3053 2441 3171 
Q 2259 3290 2022 3338 
Q 1786 3386 1504 3386 
Q 1286 3386 1065 3331 
Q 845 3277 669 3165 
Q 493 3053 381 2873 
Q 269 2694 269 2445 
Q 269 2125 429 1945 
Q 589 1766 829 1667 
Q 1069 1568 1350 1513 
Q 1632 1459 1872 1392 
Q 2112 1325 2272 1216 
Q 2432 1107 2432 896 
Q 2432 742 2355 643 
Q 2278 544 2160 493 
Q 2042 442 1901 422 
Q 1760 403 1632 403 
Q 1466 403 1309 435 
Q 1152 467 1027 540 
Q 902 614 825 739 
Q 749 864 742 1043 
z
" transform="scale(0.015625)"/>
       <path id="HelveticaNeue-69" d="M 986 3904 
L 986 4570 
L 442 4570 
L 442 3904 
L 986 3904 
z
M 442 3309 
L 442 0 
L 986 0 
L 986 3309 
L 442 3309 
z
" transform="scale(0.015625)"/>
       <path id="HelveticaNeue-74" d="M 1165 3309 
L 1165 4301 
L 621 4301 
L 621 3309 
L 58 3309 
L 58 2829 
L 621 2829 
L 621 723 
Q 621 493 665 352 
Q 710 211 803 134 
Q 896 58 1046 29 
Q 1197 0 1408 0 
L 1824 0 
L 1824 480 
L 1574 480 
Q 1446 480 1366 489 
Q 1286 499 1241 531 
Q 1197 563 1181 620 
Q 1165 678 1165 774 
L 1165 2829 
L 1824 2829 
L 1824 3309 
L 1165 3309 
z
" transform="scale(0.015625)"/>
       <path id="HelveticaNeue-79" d="M 1709 -442 
Q 1613 -685 1520 -851 
Q 1427 -1018 1315 -1123 
Q 1203 -1229 1065 -1277 
Q 928 -1325 749 -1325 
Q 653 -1325 557 -1312 
Q 461 -1299 371 -1267 
L 371 -768 
Q 442 -800 534 -822 
Q 627 -845 691 -845 
Q 858 -845 970 -765 
Q 1082 -685 1139 -538 
L 1363 19 
L 51 3309 
L 666 3309 
L 1632 602 
L 1645 602 
L 2573 3309 
L 3149 3309 
L 1709 -442 
z
" transform="scale(0.015625)"/>
      </defs>
      <use xlink:href="#HelveticaNeue-44"/>
      <use xlink:href="#HelveticaNeue-65" transform="translate(70.399994 0)"/>
      <use xlink:href="#HelveticaNeue-6e" transform="translate(124.099991 0)"/>
      <use xlink:href="#HelveticaNeue-73" transform="translate(179.699982 0)"/>
      <use xlink:href="#HelveticaNeue-69" transform="translate(229.699966 0)"/>
      <use xlink:href="#HelveticaNeue-74" transform="translate(251.899963 0)"/>
      <use xlink:href="#HelveticaNeue-79" transform="translate(283.399948 0)"/>
     </g>
    </g>
   </g>
   <g id="patch_63">
    <path d="M 44.4 61.188 
L 44.4 14.04 
" style="fill: none; stroke: #000000; stroke-width: 1.3; stroke-linejoin: miter; stroke-linecap: square"/>
   </g>
   <g id="patch_64">
    <path d="M 44.4 61.188 
L 109.62 61.188 
" style="fill: none; stroke: #000000; stroke-width: 1.3; stroke-linejoin: miter; stroke-linecap: square"/>
   </g>
  </g>
 </g>
 <defs>
  <clipPath id="p625cf2f8ee">
   <rect x="44.4" y="14.04" width="65.22" height="47.148"/>
  </clipPath>
 </defs>
</svg>
