<?xml version="1.0" encoding="utf-8" standalone="no"?>
<!DOCTYPE svg PUBLIC "-//W3C//DTD SVG 1.1//EN"
  "http://www.w3.org/Graphics/SVG/1.1/DTD/svg11.dtd">
<svg xmlns:xlink="http://www.w3.org/1999/xlink" width="126pt" height="108pt" viewBox="0 0 126 108" xmlns="http://www.w3.org/2000/svg" version="1.1">
 <metadata>
  <rdf:RDF xmlns:dc="http://purl.org/dc/elements/1.1/" xmlns:cc="http://creativecommons.org/ns#" xmlns:rdf="http://www.w3.org/1999/02/22-rdf-syntax-ns#">
   <cc:Work>
    <dc:type rdf:resource="http://purl.org/dc/dcmitype/StillImage"/>
    <dc:date>2025-10-10T14:44:42.312132</dc:date>
    <dc:format>image/svg+xml</dc:format>
    <dc:creator>
     <cc:Agent>
      <dc:title>Matplotlib v3.10.5, https://matplotlib.org/</dc:title>
     </cc:Agent>
    </dc:creator>
   </cc:Work>
  </rdf:RDF>
 </metadata>
 <defs>
  <style type="text/css">*{stroke-linejoin: round; stroke-linecap: butt}</style>
 </defs>
 <g id="figure_1">
  <g id="patch_1">
   <path d="M 0 108 
L 126 108 
L 126 0 
L 0 0 
L 0 108 
z
" style="fill: none"/>
  </g>
  <g id="axes_1">
   <g id="patch_2">
    <path d="M 44.4 61.188 
L 115.2 61.188 
L 115.2 10.841538 
L 44.4 10.841538 
L 44.4 61.188 
z
" style="fill: none"/>
   </g>
   <g id="patch_3">
    <path d="M 42.857595 61.188 
L 45.411967 61.188 
L 45.411967 61.154455 
L 42.857595 61.154455 
z
" clip-path="url(#p32980ea5b9)" style="fill: #4da5fe; opacity: 0.7"/>
   </g>
   <g id="patch_4">
    <path d="M 45.411967 61.188 
L 47.966338 61.188 
L 47.966338 61.12091 
L 45.411967 61.12091 
z
" clip-path="url(#p32980ea5b9)" style="fill: #4da5fe; opacity: 0.7"/>
   </g>
   <g id="patch_5">
    <path d="M 47.966338 61.188 
L 50.520709 61.188 
L 50.520709 61.12091 
L 47.966338 61.12091 
z
" clip-path="url(#p32980ea5b9)" style="fill: #4da5fe; opacity: 0.7"/>
   </g>
   <g id="patch_6">
    <path d="M 50.520709 61.188 
L 53.075081 61.188 
L 53.075081 60.785463 
L 50.520709 60.785463 
z
" clip-path="url(#p32980ea5b9)" style="fill: #4da5fe; opacity: 0.7"/>
   </g>
   <g id="patch_7">
    <path d="M 53.075081 61.188 
L 55.629452 61.188 
L 55.629452 60.919642 
L 53.075081 60.919642 
z
" clip-path="url(#p32980ea5b9)" style="fill: #4da5fe; opacity: 0.7"/>
   </g>
   <g id="patch_8">
    <path d="M 55.629452 61.188 
L 58.183823 61.188 
L 58.183823 60.215202 
L 55.629452 60.215202 
z
" clip-path="url(#p32980ea5b9)" style="fill: #4da5fe; opacity: 0.7"/>
   </g>
   <g id="patch_9">
    <path d="M 58.183823 61.188 
L 60.738195 61.188 
L 60.738195 58.672142 
L 58.183823 58.672142 
z
" clip-path="url(#p32980ea5b9)" style="fill: #4da5fe; opacity: 0.7"/>
   </g>
   <g id="patch_10">
    <path d="M 60.738195 61.188 
L 63.292566 61.188 
L 63.292566 57.867068 
L 60.738195 57.867068 
z
" clip-path="url(#p32980ea5b9)" style="fill: #4da5fe; opacity: 0.7"/>
   </g>
   <g id="patch_11">
    <path d="M 63.292566 61.188 
L 65.846937 61.188 
L 65.846937 56.659456 
L 63.292566 56.659456 
z
" clip-path="url(#p32980ea5b9)" style="fill: #4da5fe; opacity: 0.7"/>
   </g>
   <g id="patch_12">
    <path d="M 65.846937 61.188 
L 68.401309 61.188 
L 68.401309 53.170799 
L 65.846937 53.170799 
z
" clip-path="url(#p32980ea5b9)" style="fill: #4da5fe; opacity: 0.7"/>
   </g>
   <g id="patch_13">
    <path d="M 68.401309 61.188 
L 70.95568 61.188 
L 70.95568 50.85621 
L 68.401309 50.85621 
z
" clip-path="url(#p32980ea5b9)" style="fill: #4da5fe; opacity: 0.7"/>
   </g>
   <g id="patch_14">
    <path d="M 70.95568 61.188 
L 73.510051 61.188 
L 73.510051 44.95233 
L 70.95568 44.95233 
z
" clip-path="url(#p32980ea5b9)" style="fill: #4da5fe; opacity: 0.7"/>
   </g>
   <g id="patch_15">
    <path d="M 73.510051 61.188 
L 76.064423 61.188 
L 76.064423 41.597853 
L 73.510051 41.597853 
z
" clip-path="url(#p32980ea5b9)" style="fill: #4da5fe; opacity: 0.7"/>
   </g>
   <g id="patch_16">
    <path d="M 76.064423 61.188 
L 78.618794 61.188 
L 78.618794 35.693973 
L 76.064423 35.693973 
z
" clip-path="url(#p32980ea5b9)" style="fill: #4da5fe; opacity: 0.7"/>
   </g>
   <g id="patch_17">
    <path d="M 78.618794 61.188 
L 81.173166 61.188 
L 81.173166 31.299608 
L 78.618794 31.299608 
z
" clip-path="url(#p32980ea5b9)" style="fill: #4da5fe; opacity: 0.7"/>
   </g>
   <g id="patch_18">
    <path d="M 81.173166 61.188 
L 83.727516 61.188 
L 83.727516 28.146127 
L 81.173166 28.146127 
z
" clip-path="url(#p32980ea5b9)" style="fill: #4da5fe; opacity: 0.7"/>
   </g>
   <g id="patch_19">
    <path d="M 83.727516 61.188 
L 86.281887 61.188 
L 86.281887 23.215318 
L 83.727516 23.215318 
z
" clip-path="url(#p32980ea5b9)" style="fill: #4da5fe; opacity: 0.7"/>
   </g>
   <g id="patch_20">
    <path d="M 86.281887 61.188 
L 88.836259 61.188 
L 88.836259 26.033079 
L 86.281887 26.033079 
z
" clip-path="url(#p32980ea5b9)" style="fill: #4da5fe; opacity: 0.7"/>
   </g>
   <g id="patch_21">
    <path d="M 88.836259 61.188 
L 91.39063 61.188 
L 91.39063 31.433787 
L 88.836259 31.433787 
z
" clip-path="url(#p32980ea5b9)" style="fill: #4da5fe; opacity: 0.7"/>
   </g>
   <g id="patch_22">
    <path d="M 91.39063 61.188 
L 93.945001 61.188 
L 93.945001 38.142742 
L 91.39063 38.142742 
z
" clip-path="url(#p32980ea5b9)" style="fill: #4da5fe; opacity: 0.7"/>
   </g>
   <g id="patch_23">
    <path d="M 93.945001 61.188 
L 96.499373 61.188 
L 96.499373 40.692144 
L 93.945001 40.692144 
z
" clip-path="url(#p32980ea5b9)" style="fill: #4da5fe; opacity: 0.7"/>
   </g>
   <g id="patch_24">
    <path d="M 96.499373 61.188 
L 99.053744 61.188 
L 99.053744 47.501733 
L 96.499373 47.501733 
z
" clip-path="url(#p32980ea5b9)" style="fill: #4da5fe; opacity: 0.7"/>
   </g>
   <g id="patch_25">
    <path d="M 99.053744 61.188 
L 101.608115 61.188 
L 101.608115 51.963188 
L 99.053744 51.963188 
z
" clip-path="url(#p32980ea5b9)" style="fill: #4da5fe; opacity: 0.7"/>
   </g>
   <g id="patch_26">
    <path d="M 101.608115 61.188 
L 104.162487 61.188 
L 104.162487 55.955016 
L 101.608115 55.955016 
z
" clip-path="url(#p32980ea5b9)" style="fill: #4da5fe; opacity: 0.7"/>
   </g>
   <g id="patch_27">
    <path d="M 104.162487 61.188 
L 106.716858 61.188 
L 106.716858 57.934157 
L 104.162487 57.934157 
z
" clip-path="url(#p32980ea5b9)" style="fill: #4da5fe; opacity: 0.7"/>
   </g>
   <g id="patch_28">
    <path d="M 106.716858 61.188 
L 109.271229 61.188 
L 109.271229 59.477217 
L 106.716858 59.477217 
z
" clip-path="url(#p32980ea5b9)" style="fill: #4da5fe; opacity: 0.7"/>
   </g>
   <g id="patch_29">
    <path d="M 109.271229 61.188 
L 111.825601 61.188 
L 111.825601 60.651284 
L 109.271229 60.651284 
z
" clip-path="url(#p32980ea5b9)" style="fill: #4da5fe; opacity: 0.7"/>
   </g>
   <g id="patch_30">
    <path d="M 111.825601 61.188 
L 114.379972 61.188 
L 114.379972 60.886097 
L 111.825601 60.886097 
z
" clip-path="url(#p32980ea5b9)" style="fill: #4da5fe; opacity: 0.7"/>
   </g>
   <g id="patch_31">
    <path d="M 114.379972 61.188 
L 116.934343 61.188 
L 116.934343 60.986731 
L 114.379972 60.986731 
z
" clip-path="url(#p32980ea5b9)" style="fill: #4da5fe; opacity: 0.7"/>
   </g>
   <g id="patch_32">
    <path d="M 116.934343 61.188 
L 119.488715 61.188 
L 119.488715 61.087366 
L 116.934343 61.087366 
z
" clip-path="url(#p32980ea5b9)" style="fill: #4da5fe; opacity: 0.7"/>
   </g>
   <g id="patch_33">
    <path d="M 43.209639 61.188 
L 45.230327 61.188 
L 45.230327 61.103191 
L 43.209639 61.103191 
z
" clip-path="url(#p32980ea5b9)" style="fill: #f9a54b; opacity: 0.7"/>
   </g>
   <g id="patch_34">
    <path d="M 45.230327 61.188 
L 47.251015 61.188 
L 47.251015 60.933574 
L 45.230327 60.933574 
z
" clip-path="url(#p32980ea5b9)" style="fill: #f9a54b; opacity: 0.7"/>
   </g>
   <g id="patch_35">
    <path d="M 47.251015 61.188 
L 49.271703 61.188 
L 49.271703 60.806362 
L 47.251015 60.806362 
z
" clip-path="url(#p32980ea5b9)" style="fill: #f9a54b; opacity: 0.7"/>
   </g>
   <g id="patch_36">
    <path d="M 49.271703 61.188 
L 51.292391 61.188 
L 51.292391 60.721553 
L 49.271703 60.721553 
z
" clip-path="url(#p32980ea5b9)" style="fill: #f9a54b; opacity: 0.7"/>
   </g>
   <g id="patch_37">
    <path d="M 51.292391 61.188 
L 53.313068 61.188 
L 53.313068 60.170292 
L 51.292391 60.170292 
z
" clip-path="url(#p32980ea5b9)" style="fill: #f9a54b; opacity: 0.7"/>
   </g>
   <g id="patch_38">
    <path d="M 53.313068 61.188 
L 55.333756 61.188 
L 55.333756 58.050084 
L 53.313068 58.050084 
z
" clip-path="url(#p32980ea5b9)" style="fill: #f9a54b; opacity: 0.7"/>
   </g>
   <g id="patch_39">
    <path d="M 55.333756 61.188 
L 57.354444 61.188 
L 57.354444 55.845061 
L 55.333756 55.845061 
z
" clip-path="url(#p32980ea5b9)" style="fill: #f9a54b; opacity: 0.7"/>
   </g>
   <g id="patch_40">
    <path d="M 57.354444 61.188 
L 59.375132 61.188 
L 59.375132 52.622337 
L 57.354444 52.622337 
z
" clip-path="url(#p32980ea5b9)" style="fill: #f9a54b; opacity: 0.7"/>
   </g>
   <g id="patch_41">
    <path d="M 59.375132 61.188 
L 61.39582 61.188 
L 61.39582 49.314803 
L 59.375132 49.314803 
z
" clip-path="url(#p32980ea5b9)" style="fill: #f9a54b; opacity: 0.7"/>
   </g>
   <g id="patch_42">
    <path d="M 61.39582 61.188 
L 63.416508 61.188 
L 63.416508 43.463014 
L 61.39582 43.463014 
z
" clip-path="url(#p32980ea5b9)" style="fill: #f9a54b; opacity: 0.7"/>
   </g>
   <g id="patch_43">
    <path d="M 63.416508 61.188 
L 65.437196 61.188 
L 65.437196 37.102372 
L 63.416508 37.102372 
z
" clip-path="url(#p32980ea5b9)" style="fill: #f9a54b; opacity: 0.7"/>
   </g>
   <g id="patch_44">
    <path d="M 65.437196 61.188 
L 67.457884 61.188 
L 67.457884 30.020859 
L 65.437196 30.020859 
z
" clip-path="url(#p32980ea5b9)" style="fill: #f9a54b; opacity: 0.7"/>
   </g>
   <g id="patch_45">
    <path d="M 67.457884 61.188 
L 69.478572 61.188 
L 69.478572 23.575409 
L 67.457884 23.575409 
z
" clip-path="url(#p32980ea5b9)" style="fill: #f9a54b; opacity: 0.7"/>
   </g>
   <g id="patch_46">
    <path d="M 69.478572 61.188 
L 71.499259 61.188 
L 71.499259 18.741322 
L 69.478572 18.741322 
z
" clip-path="url(#p32980ea5b9)" style="fill: #f9a54b; opacity: 0.7"/>
   </g>
   <g id="patch_47">
    <path d="M 71.499259 61.188 
L 73.519947 61.188 
L 73.519947 16.366683 
L 71.499259 16.366683 
z
" clip-path="url(#p32980ea5b9)" style="fill: #f9a54b; opacity: 0.7"/>
   </g>
   <g id="patch_48">
    <path d="M 73.519947 61.188 
L 75.540635 61.188 
L 75.540635 13.86483 
L 73.519947 13.86483 
z
" clip-path="url(#p32980ea5b9)" style="fill: #f9a54b; opacity: 0.7"/>
   </g>
   <g id="patch_49">
    <path d="M 75.540635 61.188 
L 77.561323 61.188 
L 77.561323 21.20077 
L 75.540635 21.20077 
z
" clip-path="url(#p32980ea5b9)" style="fill: #f9a54b; opacity: 0.7"/>
   </g>
   <g id="patch_50">
    <path d="M 77.561323 61.188 
L 79.582011 61.188 
L 79.582011 28.282283 
L 77.561323 28.282283 
z
" clip-path="url(#p32980ea5b9)" style="fill: #f9a54b; opacity: 0.7"/>
   </g>
   <g id="patch_51">
    <path d="M 79.582011 61.188 
L 81.602699 61.188 
L 81.602699 35.448606 
L 79.582011 35.448606 
z
" clip-path="url(#p32980ea5b9)" style="fill: #f9a54b; opacity: 0.7"/>
   </g>
   <g id="patch_52">
    <path d="M 81.602699 61.188 
L 83.623387 61.188 
L 83.623387 43.335801 
L 81.602699 43.335801 
z
" clip-path="url(#p32980ea5b9)" style="fill: #f9a54b; opacity: 0.7"/>
   </g>
   <g id="patch_53">
    <path d="M 83.623387 61.188 
L 85.644054 61.188 
L 85.644054 48.50899 
L 83.623387 48.50899 
z
" clip-path="url(#p32980ea5b9)" style="fill: #f9a54b; opacity: 0.7"/>
   </g>
   <g id="patch_54">
    <path d="M 85.644054 61.188 
L 87.664742 61.188 
L 87.664742 52.791954 
L 85.644054 52.791954 
z
" clip-path="url(#p32980ea5b9)" style="fill: #f9a54b; opacity: 0.7"/>
   </g>
   <g id="patch_55">
    <path d="M 87.664742 61.188 
L 89.68543 61.188 
L 89.68543 57.456424 
L 87.664742 57.456424 
z
" clip-path="url(#p32980ea5b9)" style="fill: #f9a54b; opacity: 0.7"/>
   </g>
   <g id="patch_56">
    <path d="M 89.68543 61.188 
L 91.706118 61.188 
L 91.706118 57.965275 
L 89.68543 57.965275 
z
" clip-path="url(#p32980ea5b9)" style="fill: #f9a54b; opacity: 0.7"/>
   </g>
   <g id="patch_57">
    <path d="M 91.706118 61.188 
L 93.726806 61.188 
L 93.726806 59.449425 
L 91.706118 59.449425 
z
" clip-path="url(#p32980ea5b9)" style="fill: #f9a54b; opacity: 0.7"/>
   </g>
   <g id="patch_58">
    <path d="M 93.726806 61.188 
L 95.747494 61.188 
L 95.747494 60.339915 
L 93.726806 60.339915 
z
" clip-path="url(#p32980ea5b9)" style="fill: #f9a54b; opacity: 0.7"/>
   </g>
   <g id="patch_59">
    <path d="M 95.747494 61.188 
L 97.768182 61.188 
L 97.768182 60.806362 
L 95.747494 60.806362 
z
" clip-path="url(#p32980ea5b9)" style="fill: #f9a54b; opacity: 0.7"/>
   </g>
   <g id="patch_60">
    <path d="M 97.768182 61.188 
L 99.78887 61.188 
L 99.78887 61.188 
L 97.768182 61.188 
z
" clip-path="url(#p32980ea5b9)" style="fill: #f9a54b; opacity: 0.7"/>
   </g>
   <g id="patch_61">
    <path d="M 99.78887 61.188 
L 101.809557 61.188 
L 101.809557 60.975979 
L 99.78887 60.975979 
z
" clip-path="url(#p32980ea5b9)" style="fill: #f9a54b; opacity: 0.7"/>
   </g>
   <g id="patch_62">
    <path d="M 101.809557 61.188 
L 103.830245 61.188 
L 103.830245 61.145596 
L 101.809557 61.145596 
z
" clip-path="url(#p32980ea5b9)" style="fill: #f9a54b; opacity: 0.7"/>
   </g>
   <g id="matplotlib.axis_1">
    <g id="xtick_1">
     <g id="line2d_1">
      <defs>
       <path id="m7ef77c174f" d="M 0 0 
L 0 3.6 
" style="stroke: #000000; stroke-width: 1.2"/>
      </defs>
      <g>
       <use xlink:href="#m7ef77c174f" x="53.25" y="61.188" style="stroke: #000000; stroke-width: 1.2"/>
      </g>
     </g>
     <g id="text_1">
      <!-- 2.0 -->
      <g transform="translate(46.300781 75.428625) scale(0.1 -0.1)">
       <defs>
        <path id="HelveticaNeue-32" d="M 282 2931 
L 826 2931 
Q 819 3136 867 3337 
Q 915 3539 1024 3699 
Q 1133 3859 1302 3958 
Q 1472 4058 1709 4058 
Q 1888 4058 2048 4000 
Q 2208 3942 2326 3833 
Q 2445 3725 2515 3574 
Q 2586 3424 2586 3238 
Q 2586 3002 2512 2822 
Q 2438 2643 2294 2489 
Q 2150 2336 1932 2185 
Q 1715 2035 1427 1856 
Q 1190 1715 972 1555 
Q 755 1395 582 1184 
Q 410 973 298 688 
Q 186 403 154 0 
L 3117 0 
L 3117 480 
L 787 480 
Q 826 691 950 854 
Q 1075 1018 1251 1158 
Q 1427 1299 1638 1424 
Q 1850 1549 2061 1677 
Q 2272 1811 2470 1958 
Q 2669 2106 2822 2288 
Q 2976 2470 3069 2700 
Q 3162 2931 3162 3232 
Q 3162 3552 3050 3795 
Q 2938 4038 2746 4201 
Q 2554 4365 2294 4451 
Q 2035 4538 1741 4538 
Q 1382 4538 1100 4416 
Q 819 4294 630 4080 
Q 442 3866 352 3571 
Q 262 3277 282 2931 
z
" transform="scale(0.015625)"/>
        <path id="HelveticaNeue-2e" d="M 531 710 
L 531 0 
L 1242 0 
L 1242 710 
L 531 710 
z
" transform="scale(0.015625)"/>
        <path id="HelveticaNeue-30" d="M 845 2234 
Q 845 2400 848 2601 
Q 851 2803 880 3004 
Q 909 3206 963 3398 
Q 1018 3590 1123 3734 
Q 1229 3878 1389 3968 
Q 1549 4058 1779 4058 
Q 2010 4058 2170 3968 
Q 2330 3878 2435 3734 
Q 2541 3590 2595 3398 
Q 2650 3206 2678 3004 
Q 2707 2803 2710 2601 
Q 2714 2400 2714 2234 
Q 2714 1978 2698 1661 
Q 2682 1344 2595 1065 
Q 2509 787 2317 595 
Q 2125 403 1779 403 
Q 1434 403 1242 595 
Q 1050 787 963 1065 
Q 877 1344 861 1661 
Q 845 1978 845 2234 
z
M 269 2227 
Q 269 1978 281 1709 
Q 294 1440 345 1184 
Q 397 928 493 701 
Q 589 474 755 301 
Q 922 128 1174 29 
Q 1427 -70 1779 -70 
Q 2138 -70 2387 29 
Q 2637 128 2803 301 
Q 2970 474 3066 701 
Q 3162 928 3213 1184 
Q 3264 1440 3277 1709 
Q 3290 1978 3290 2227 
Q 3290 2477 3277 2745 
Q 3264 3014 3213 3270 
Q 3162 3526 3066 3756 
Q 2970 3987 2803 4160 
Q 2637 4333 2384 4435 
Q 2131 4538 1779 4538 
Q 1427 4538 1174 4435 
Q 922 4333 755 4160 
Q 589 3987 493 3756 
Q 397 3526 345 3270 
Q 294 3014 281 2745 
Q 269 2477 269 2227 
z
" transform="scale(0.015625)"/>
       </defs>
       <use xlink:href="#HelveticaNeue-32"/>
       <use xlink:href="#HelveticaNeue-2e" transform="translate(55.599991 0)"/>
       <use xlink:href="#HelveticaNeue-30" transform="translate(83.399979 0)"/>
      </g>
     </g>
    </g>
    <g id="xtick_2">
     <g id="line2d_2">
      <g>
       <use xlink:href="#m7ef77c174f" x="97.5" y="61.188" style="stroke: #000000; stroke-width: 1.2"/>
      </g>
     </g>
     <g id="text_2">
      <!-- 2.5 -->
      <g transform="translate(90.550781 75.428625) scale(0.1 -0.1)">
       <defs>
        <path id="HelveticaNeue-35" d="M 3008 3981 
L 3008 4461 
L 768 4461 
L 346 2106 
L 813 2080 
Q 973 2272 1181 2390 
Q 1389 2509 1658 2509 
Q 1888 2509 2077 2432 
Q 2266 2355 2400 2217 
Q 2534 2080 2608 1891 
Q 2682 1702 2682 1478 
Q 2682 1210 2605 1008 
Q 2528 806 2397 672 
Q 2266 538 2090 470 
Q 1914 403 1722 403 
Q 1517 403 1347 464 
Q 1178 525 1053 637 
Q 928 749 854 899 
Q 781 1050 768 1222 
L 224 1222 
Q 230 915 345 672 
Q 461 429 659 265 
Q 858 102 1117 16 
Q 1376 -70 1670 -70 
Q 2067 -70 2364 54 
Q 2662 179 2860 390 
Q 3059 602 3158 874 
Q 3258 1146 3258 1434 
Q 3258 1824 3142 2115 
Q 3027 2406 2828 2601 
Q 2630 2797 2361 2893 
Q 2093 2989 1792 2989 
Q 1562 2989 1328 2909 
Q 1094 2829 947 2662 
L 934 2675 
L 1178 3981 
L 3008 3981 
z
" transform="scale(0.015625)"/>
       </defs>
       <use xlink:href="#HelveticaNeue-32"/>
       <use xlink:href="#HelveticaNeue-2e" transform="translate(55.599991 0)"/>
       <use xlink:href="#HelveticaNeue-35" transform="translate(83.399979 0)"/>
      </g>
     </g>
    </g>
    <g id="text_3">
     <!-- $G_{2}^{H}$(2.0, 1.0) -->
     <g transform="translate(53.5 90.398937) scale(0.1 -0.1)">
      <defs>
       <path id="DejaVuSans-Oblique-47" d="M 3494 697 
L 3738 1919 
L 2700 1919 
L 2797 2438 
L 4453 2438 
L 4050 384 
Q 3634 156 3143 32 
Q 2653 -91 2156 -91 
Q 1278 -91 783 396 
Q 288 884 288 1753 
Q 288 2475 589 3126 
Q 891 3778 1422 4213 
Q 1756 4484 2153 4617 
Q 2550 4750 3034 4750 
Q 3472 4750 3873 4639 
Q 4275 4528 4641 4306 
L 4513 3634 
Q 4231 3928 3853 4083 
Q 3475 4238 3047 4238 
Q 2550 4238 2172 4048 
Q 1794 3859 1497 3463 
Q 1244 3125 1098 2667 
Q 953 2209 953 1734 
Q 953 1081 1287 751 
Q 1622 422 2284 422 
Q 2616 422 2925 492 
Q 3234 563 3494 697 
z
" transform="scale(0.015625)"/>
       <path id="DejaVuSans-Oblique-48" d="M 1081 4666 
L 1716 4666 
L 1344 2753 
L 3634 2753 
L 4006 4666 
L 4641 4666 
L 3731 0 
L 3097 0 
L 3531 2222 
L 1241 2222 
L 806 0 
L 172 0 
L 1081 4666 
z
" transform="scale(0.015625)"/>
       <path id="DejaVuSans-32" d="M 1228 531 
L 3431 531 
L 3431 0 
L 469 0 
L 469 531 
Q 828 903 1448 1529 
Q 2069 2156 2228 2338 
Q 2531 2678 2651 2914 
Q 2772 3150 2772 3378 
Q 2772 3750 2511 3984 
Q 2250 4219 1831 4219 
Q 1534 4219 1204 4116 
Q 875 4013 500 3803 
L 500 4441 
Q 881 4594 1212 4672 
Q 1544 4750 1819 4750 
Q 2544 4750 2975 4387 
Q 3406 4025 3406 3419 
Q 3406 3131 3298 2873 
Q 3191 2616 2906 2266 
Q 2828 2175 2409 1742 
Q 1991 1309 1228 531 
z
" transform="scale(0.015625)"/>
       <path id="HelveticaNeue-28" d="M 1306 -1261 
L 1722 -1261 
Q 1267 -525 1072 198 
Q 877 922 877 1728 
Q 877 2515 1069 3232 
Q 1261 3949 1722 4678 
L 1306 4678 
Q 806 4019 553 3251 
Q 301 2483 301 1728 
Q 301 1306 371 922 
Q 442 538 573 173 
Q 704 -192 889 -547 
Q 1075 -902 1306 -1261 
z
" transform="scale(0.015625)"/>
       <path id="HelveticaNeue-2c" d="M 531 710 
L 531 0 
L 909 0 
Q 915 -77 899 -166 
Q 883 -256 838 -342 
Q 794 -429 720 -502 
Q 646 -576 538 -614 
L 538 -934 
Q 909 -826 1075 -563 
Q 1242 -301 1242 64 
L 1242 710 
L 531 710 
z
" transform="scale(0.015625)"/>
       <path id="HelveticaNeue-20" transform="scale(0.015625)"/>
       <path id="HelveticaNeue-31" d="M 2278 0 
L 2278 4538 
L 1862 4538 
Q 1818 4282 1696 4115 
Q 1574 3949 1398 3853 
Q 1222 3757 1004 3721 
Q 787 3686 557 3686 
L 557 3251 
L 1734 3251 
L 1734 0 
L 2278 0 
z
" transform="scale(0.015625)"/>
       <path id="HelveticaNeue-29" d="M -58 -1261 
L 352 -1261 
Q 851 -602 1104 163 
Q 1357 928 1357 1683 
Q 1357 2106 1286 2490 
Q 1216 2874 1085 3242 
Q 954 3610 768 3965 
Q 582 4320 352 4678 
L -58 4678 
Q 390 3942 585 3216 
Q 781 2490 781 1683 
Q 781 902 589 182 
Q 397 -538 -58 -1261 
z
" transform="scale(0.015625)"/>
      </defs>
      <use xlink:href="#DejaVuSans-Oblique-47" transform="translate(0 0.684375)"/>
      <use xlink:href="#DejaVuSans-Oblique-48" transform="translate(84.690755 38.965625) scale(0.7)"/>
      <use xlink:href="#DejaVuSans-32" transform="translate(77.490234 -26.659375) scale(0.7)"/>
      <use xlink:href="#HelveticaNeue-28" transform="translate(140.061849 0.684375)"/>
      <use xlink:href="#HelveticaNeue-32" transform="translate(165.961843 0.684375)"/>
      <use xlink:href="#HelveticaNeue-2e" transform="translate(221.561834 0.684375)"/>
      <use xlink:href="#HelveticaNeue-30" transform="translate(249.361821 0.684375)"/>
      <use xlink:href="#HelveticaNeue-2c" transform="translate(304.961812 0.684375)"/>
      <use xlink:href="#HelveticaNeue-20" transform="translate(332.7618 0.684375)"/>
      <use xlink:href="#HelveticaNeue-31" transform="translate(360.561788 0.684375)"/>
      <use xlink:href="#HelveticaNeue-2e" transform="translate(416.161779 0.684375)"/>
      <use xlink:href="#HelveticaNeue-30" transform="translate(443.961767 0.684375)"/>
      <use xlink:href="#HelveticaNeue-29" transform="translate(499.561757 0.684375)"/>
     </g>
    </g>
   </g>
   <g id="matplotlib.axis_2">
    <g id="ytick_1">
     <g id="line2d_3">
      <defs>
       <path id="m6d67c38da6" d="M 0 0 
L -3.6 0 
" style="stroke: #000000; stroke-width: 1.2"/>
      </defs>
      <g>
       <use xlink:href="#m6d67c38da6" x="44.4" y="61.188" style="stroke: #000000; stroke-width: 1.2"/>
      </g>
     </g>
     <g id="text_4">
      <!-- 0.0 -->
      <g transform="translate(23.401563 64.758312) scale(0.1 -0.1)">
       <use xlink:href="#HelveticaNeue-30"/>
       <use xlink:href="#HelveticaNeue-2e" transform="translate(55.599991 0)"/>
       <use xlink:href="#HelveticaNeue-30" transform="translate(83.399979 0)"/>
      </g>
     </g>
    </g>
    <g id="ytick_2">
     <g id="line2d_4">
      <g>
       <use xlink:href="#m6d67c38da6" x="44.4" y="36.98297" style="stroke: #000000; stroke-width: 1.2"/>
      </g>
     </g>
     <g id="text_5">
      <!-- 2.5 -->
      <g transform="translate(23.401563 40.553283) scale(0.1 -0.1)">
       <use xlink:href="#HelveticaNeue-32"/>
       <use xlink:href="#HelveticaNeue-2e" transform="translate(55.599991 0)"/>
       <use xlink:href="#HelveticaNeue-35" transform="translate(83.399979 0)"/>
      </g>
     </g>
    </g>
    <g id="ytick_3">
     <g id="line2d_5">
      <g>
       <use xlink:href="#m6d67c38da6" x="44.4" y="12.777941" style="stroke: #000000; stroke-width: 1.2"/>
      </g>
     </g>
     <g id="text_6">
      <!-- 5.0 -->
      <g transform="translate(23.401563 16.348253) scale(0.1 -0.1)">
       <use xlink:href="#HelveticaNeue-35"/>
       <use xlink:href="#HelveticaNeue-2e" transform="translate(55.599991 0)"/>
       <use xlink:href="#HelveticaNeue-30" transform="translate(83.399979 0)"/>
      </g>
     </g>
    </g>
    <g id="text_7">
     <!-- Density -->
     <g transform="translate(17.33125 52.685082) rotate(-90) scale(0.1 -0.1)">
      <defs>
       <path id="HelveticaNeue-44" d="M 1107 512 
L 1107 4058 
L 2131 4058 
Q 2554 4058 2842 3939 
Q 3130 3821 3312 3593 
Q 3494 3366 3574 3043 
Q 3654 2720 3654 2310 
Q 3654 1888 3568 1590 
Q 3482 1293 3347 1094 
Q 3213 896 3043 781 
Q 2874 666 2701 605 
Q 2528 544 2374 528 
Q 2221 512 2118 512 
L 1107 512 
z
M 499 4570 
L 499 0 
L 2067 0 
Q 2637 0 3053 160 
Q 3469 320 3737 624 
Q 4006 928 4134 1373 
Q 4262 1818 4262 2394 
Q 4262 3494 3692 4032 
Q 3123 4570 2067 4570 
L 499 4570 
z
" transform="scale(0.015625)"/>
       <path id="HelveticaNeue-65" d="M 2707 1971 
L 806 1971 
Q 819 2163 889 2332 
Q 960 2502 1081 2630 
Q 1203 2758 1372 2832 
Q 1542 2906 1754 2906 
Q 1958 2906 2128 2832 
Q 2298 2758 2422 2633 
Q 2547 2509 2620 2336 
Q 2694 2163 2707 1971 
z
M 3232 1050 
L 2694 1050 
Q 2624 723 2403 563 
Q 2182 403 1837 403 
Q 1568 403 1369 492 
Q 1171 582 1043 732 
Q 915 883 857 1078 
Q 800 1274 806 1491 
L 3283 1491 
Q 3296 1792 3229 2125 
Q 3162 2458 2986 2739 
Q 2810 3021 2518 3203 
Q 2227 3386 1786 3386 
Q 1446 3386 1161 3258 
Q 877 3130 669 2899 
Q 461 2669 345 2355 
Q 230 2042 230 1664 
Q 243 1286 342 966 
Q 442 646 640 416 
Q 838 186 1129 58 
Q 1421 -70 1818 -70 
Q 2381 -70 2752 211 
Q 3123 493 3232 1050 
z
" transform="scale(0.015625)"/>
       <path id="HelveticaNeue-6e" d="M 410 3309 
L 410 0 
L 954 0 
L 954 1869 
Q 954 2093 1014 2281 
Q 1075 2470 1196 2611 
Q 1318 2752 1500 2829 
Q 1683 2906 1933 2906 
Q 2246 2906 2425 2726 
Q 2605 2547 2605 2240 
L 2605 0 
L 3149 0 
L 3149 2176 
Q 3149 2445 3094 2665 
Q 3040 2886 2905 3046 
Q 2771 3206 2553 3296 
Q 2336 3386 2010 3386 
Q 1274 3386 934 2784 
L 922 2784 
L 922 3309 
L 410 3309 
z
" transform="scale(0.015625)"/>
       <path id="HelveticaNeue-73" d="M 742 1043 
L 198 1043 
Q 211 736 326 521 
Q 442 307 634 176 
Q 826 45 1075 -12 
Q 1325 -70 1600 -70 
Q 1850 -70 2102 -22 
Q 2355 26 2556 147 
Q 2758 269 2883 467 
Q 3008 666 3008 966 
Q 3008 1203 2915 1363 
Q 2822 1523 2672 1628 
Q 2522 1734 2326 1798 
Q 2131 1862 1926 1907 
Q 1734 1952 1542 1993 
Q 1350 2035 1196 2096 
Q 1043 2157 944 2249 
Q 845 2342 845 2483 
Q 845 2611 909 2691 
Q 973 2771 1075 2819 
Q 1178 2867 1302 2886 
Q 1427 2906 1549 2906 
Q 1683 2906 1814 2877 
Q 1946 2848 2054 2784 
Q 2163 2720 2233 2614 
Q 2304 2509 2317 2349 
L 2861 2349 
Q 2842 2650 2733 2851 
Q 2624 3053 2441 3171 
Q 2259 3290 2022 3338 
Q 1786 3386 1504 3386 
Q 1286 3386 1065 3331 
Q 845 3277 669 3165 
Q 493 3053 381 2873 
Q 269 2694 269 2445 
Q 269 2125 429 1945 
Q 589 1766 829 1667 
Q 1069 1568 1350 1513 
Q 1632 1459 1872 1392 
Q 2112 1325 2272 1216 
Q 2432 1107 2432 896 
Q 2432 742 2355 643 
Q 2278 544 2160 493 
Q 2042 442 1901 422 
Q 1760 403 1632 403 
Q 1466 403 1309 435 
Q 1152 467 1027 540 
Q 902 614 825 739 
Q 749 864 742 1043 
z
" transform="scale(0.015625)"/>
       <path id="HelveticaNeue-69" d="M 986 3904 
L 986 4570 
L 442 4570 
L 442 3904 
L 986 3904 
z
M 442 3309 
L 442 0 
L 986 0 
L 986 3309 
L 442 3309 
z
" transform="scale(0.015625)"/>
       <path id="HelveticaNeue-74" d="M 1165 3309 
L 1165 4301 
L 621 4301 
L 621 3309 
L 58 3309 
L 58 2829 
L 621 2829 
L 621 723 
Q 621 493 665 352 
Q 710 211 803 134 
Q 896 58 1046 29 
Q 1197 0 1408 0 
L 1824 0 
L 1824 480 
L 1574 480 
Q 1446 480 1366 489 
Q 1286 499 1241 531 
Q 1197 563 1181 620 
Q 1165 678 1165 774 
L 1165 2829 
L 1824 2829 
L 1824 3309 
L 1165 3309 
z
" transform="scale(0.015625)"/>
       <path id="HelveticaNeue-79" d="M 1709 -442 
Q 1613 -685 1520 -851 
Q 1427 -1018 1315 -1123 
Q 1203 -1229 1065 -1277 
Q 928 -1325 749 -1325 
Q 653 -1325 557 -1312 
Q 461 -1299 371 -1267 
L 371 -768 
Q 442 -800 534 -822 
Q 627 -845 691 -845 
Q 858 -845 970 -765 
Q 1082 -685 1139 -538 
L 1363 19 
L 51 3309 
L 666 3309 
L 1632 602 
L 1645 602 
L 2573 3309 
L 3149 3309 
L 1709 -442 
z
" transform="scale(0.015625)"/>
      </defs>
      <use xlink:href="#HelveticaNeue-44"/>
      <use xlink:href="#HelveticaNeue-65" transform="translate(70.399994 0)"/>
      <use xlink:href="#HelveticaNeue-6e" transform="translate(124.099991 0)"/>
      <use xlink:href="#HelveticaNeue-73" transform="translate(179.699982 0)"/>
      <use xlink:href="#HelveticaNeue-69" transform="translate(229.699966 0)"/>
      <use xlink:href="#HelveticaNeue-74" transform="translate(251.899963 0)"/>
      <use xlink:href="#HelveticaNeue-79" transform="translate(283.399948 0)"/>
     </g>
    </g>
   </g>
   <g id="patch_63">
    <path d="M 44.4 61.188 
L 44.4 10.841538 
" style="fill: none; stroke: #000000; stroke-width: 1.3; stroke-linejoin: miter; stroke-linecap: square"/>
   </g>
   <g id="patch_64">
    <path d="M 44.4 61.188 
L 115.2 61.188 
" style="fill: none; stroke: #000000; stroke-width: 1.3; stroke-linejoin: miter; stroke-linecap: square"/>
   </g>
  </g>
 </g>
 <defs>
  <clipPath id="p32980ea5b9">
   <rect x="44.4" y="10.841538" width="70.8" height="50.346462"/>
  </clipPath>
 </defs>
</svg>
