<?xml version="1.0" encoding="utf-8" standalone="no"?>
<!DOCTYPE svg PUBLIC "-//W3C//DTD SVG 1.1//EN"
  "http://www.w3.org/Graphics/SVG/1.1/DTD/svg11.dtd">
<svg xmlns:xlink="http://www.w3.org/1999/xlink" width="126pt" height="108pt" viewBox="0 0 126 108" xmlns="http://www.w3.org/2000/svg" version="1.1">
 <metadata>
  <rdf:RDF xmlns:dc="http://purl.org/dc/elements/1.1/" xmlns:cc="http://creativecommons.org/ns#" xmlns:rdf="http://www.w3.org/1999/02/22-rdf-syntax-ns#">
   <cc:Work>
    <dc:type rdf:resource="http://purl.org/dc/dcmitype/StillImage"/>
    <dc:date>2026-02-04T15:06:37.182373</dc:date>
    <dc:format>image/svg+xml</dc:format>
    <dc:creator>
     <cc:Agent>
      <dc:title>Matplotlib v3.9.4, https://matplotlib.org/</dc:title>
     </cc:Agent>
    </dc:creator>
   </cc:Work>
  </rdf:RDF>
 </metadata>
 <defs>
  <style type="text/css">*{stroke-linejoin: round; stroke-linecap: butt}</style>
 </defs>
 <g id="figure_1">
  <g id="patch_1">
   <path d="M 0 108 
L 126 108 
L 126 0 
L 0 0 
L 0 108 
z
" style="fill: none"/>
  </g>
  <g id="axes_1">
   <g id="patch_2">
    <path d="M 38.37 59.748 
L 112.005 59.748 
L 112.005 10.8 
L 38.37 10.8 
L 38.37 59.748 
z
" style="fill: none"/>
   </g>
   <g id="patch_3">
    <path d="M -28.936018 59.748 
L -26.458522 59.748 
L -26.458522 59.716825 
L -28.936018 59.716825 
z
" clip-path="url(#p7aaac8a1c6)" style="fill: #327dfe; opacity: 0.7"/>
   </g>
   <g id="patch_4">
    <path d="M -26.458522 59.748 
L -23.981035 59.748 
L -23.981035 59.685651 
L -26.458522 59.685651 
z
" clip-path="url(#p7aaac8a1c6)" style="fill: #327dfe; opacity: 0.7"/>
   </g>
   <g id="patch_5">
    <path d="M -23.981035 59.748 
L -21.503539 59.748 
L -21.503539 59.519387 
L -23.981035 59.519387 
z
" clip-path="url(#p7aaac8a1c6)" style="fill: #327dfe; opacity: 0.7"/>
   </g>
   <g id="patch_6">
    <path d="M -21.503539 59.748 
L -19.026052 59.748 
L -19.026052 58.999809 
L -21.503539 58.999809 
z
" clip-path="url(#p7aaac8a1c6)" style="fill: #327dfe; opacity: 0.7"/>
   </g>
   <g id="patch_7">
    <path d="M -19.026052 59.748 
L -16.548556 59.748 
L -16.548556 58.376322 
L -19.026052 58.376322 
z
" clip-path="url(#p7aaac8a1c6)" style="fill: #327dfe; opacity: 0.7"/>
   </g>
   <g id="patch_8">
    <path d="M -16.548556 59.748 
L -14.071068 59.748 
L -14.071068 57.025417 
L -16.548556 57.025417 
z
" clip-path="url(#p7aaac8a1c6)" style="fill: #327dfe; opacity: 0.7"/>
   </g>
   <g id="patch_9">
    <path d="M -14.071068 59.748 
L -11.593572 59.748 
L -11.593572 55.477093 
L -14.071068 55.477093 
z
" clip-path="url(#p7aaac8a1c6)" style="fill: #327dfe; opacity: 0.7"/>
   </g>
   <g id="patch_10">
    <path d="M -11.593572 59.748 
L -9.116085 59.748 
L -9.116085 53.949522 
L -11.593572 53.949522 
z
" clip-path="url(#p7aaac8a1c6)" style="fill: #327dfe; opacity: 0.7"/>
   </g>
   <g id="patch_11">
    <path d="M -9.116085 59.748 
L -6.638589 59.748 
L -6.638589 51.995941 
L -9.116085 51.995941 
z
" clip-path="url(#p7aaac8a1c6)" style="fill: #327dfe; opacity: 0.7"/>
   </g>
   <g id="patch_12">
    <path d="M -6.638589 59.748 
L -4.161102 59.748 
L -4.161102 50.35405 
L -6.638589 50.35405 
z
" clip-path="url(#p7aaac8a1c6)" style="fill: #327dfe; opacity: 0.7"/>
   </g>
   <g id="patch_13">
    <path d="M -4.161102 59.748 
L -1.683606 59.748 
L -1.683606 49.408457 
L -4.161102 49.408457 
z
" clip-path="url(#p7aaac8a1c6)" style="fill: #327dfe; opacity: 0.7"/>
   </g>
   <g id="patch_14">
    <path d="M -1.683606 59.748 
L 0.79389 59.748 
L 0.79389 49.470806 
L -1.683606 49.470806 
z
" clip-path="url(#p7aaac8a1c6)" style="fill: #327dfe; opacity: 0.7"/>
   </g>
   <g id="patch_15">
    <path d="M 0.79389 59.748 
L 3.271377 59.748 
L 3.271377 50.509924 
L 0.79389 50.509924 
z
" clip-path="url(#p7aaac8a1c6)" style="fill: #327dfe; opacity: 0.7"/>
   </g>
   <g id="patch_16">
    <path d="M 3.271377 59.748 
L 5.748864 59.748 
L 5.748864 50.748929 
L 3.271377 50.748929 
z
" clip-path="url(#p7aaac8a1c6)" style="fill: #327dfe; opacity: 0.7"/>
   </g>
   <g id="patch_17">
    <path d="M 5.748864 59.748 
L 8.22636 59.748 
L 8.22636 52.432384 
L 5.748864 52.432384 
z
" clip-path="url(#p7aaac8a1c6)" style="fill: #327dfe; opacity: 0.7"/>
   </g>
   <g id="patch_18">
    <path d="M 8.22636 59.748 
L 10.703856 59.748 
L 10.703856 53.606623 
L 8.22636 53.606623 
z
" clip-path="url(#p7aaac8a1c6)" style="fill: #327dfe; opacity: 0.7"/>
   </g>
   <g id="patch_19">
    <path d="M 10.703856 59.748 
L 13.181343 59.748 
L 13.181343 54.760062 
L 10.703856 54.760062 
z
" clip-path="url(#p7aaac8a1c6)" style="fill: #327dfe; opacity: 0.7"/>
   </g>
   <g id="patch_20">
    <path d="M 13.181343 59.748 
L 15.65883 59.748 
L 15.65883 55.840782 
L 13.181343 55.840782 
z
" clip-path="url(#p7aaac8a1c6)" style="fill: #327dfe; opacity: 0.7"/>
   </g>
   <g id="patch_21">
    <path d="M 15.65883 59.748 
L 18.136326 59.748 
L 18.136326 56.651333 
L 15.65883 56.651333 
z
" clip-path="url(#p7aaac8a1c6)" style="fill: #327dfe; opacity: 0.7"/>
   </g>
   <g id="patch_22">
    <path d="M 18.136326 59.748 
L 20.613818 59.748 
L 20.613818 57.524215 
L 18.136326 57.524215 
z
" clip-path="url(#p7aaac8a1c6)" style="fill: #327dfe; opacity: 0.7"/>
   </g>
   <g id="patch_23">
    <path d="M 20.613818 59.748 
L 23.091309 59.748 
L 23.091309 58.023008 
L 20.613818 58.023008 
z
" clip-path="url(#p7aaac8a1c6)" style="fill: #327dfe; opacity: 0.7"/>
   </g>
   <g id="patch_24">
    <path d="M 23.091309 59.748 
L 25.568801 59.748 
L 25.568801 58.469843 
L 23.091309 58.469843 
z
" clip-path="url(#p7aaac8a1c6)" style="fill: #327dfe; opacity: 0.7"/>
   </g>
   <g id="patch_25">
    <path d="M 25.568801 59.748 
L 28.046293 59.748 
L 28.046293 58.968636 
L 25.568801 58.968636 
z
" clip-path="url(#p7aaac8a1c6)" style="fill: #327dfe; opacity: 0.7"/>
   </g>
   <g id="patch_26">
    <path d="M 28.046293 59.748 
L 30.523789 59.748 
L 30.523789 59.166076 
L 28.046293 59.166076 
z
" clip-path="url(#p7aaac8a1c6)" style="fill: #327dfe; opacity: 0.7"/>
   </g>
   <g id="patch_27">
    <path d="M 30.523789 59.748 
L 33.00128 59.748 
L 33.00128 59.508995 
L 30.523789 59.508995 
z
" clip-path="url(#p7aaac8a1c6)" style="fill: #327dfe; opacity: 0.7"/>
   </g>
   <g id="patch_28">
    <path d="M 33.00128 59.748 
L 35.478772 59.748 
L 35.478772 59.54017 
L 33.00128 59.54017 
z
" clip-path="url(#p7aaac8a1c6)" style="fill: #327dfe; opacity: 0.7"/>
   </g>
   <g id="patch_29">
    <path d="M 35.478772 59.748 
L 37.956263 59.748 
L 37.956263 59.654476 
L 35.478772 59.654476 
z
" clip-path="url(#p7aaac8a1c6)" style="fill: #327dfe; opacity: 0.7"/>
   </g>
   <g id="patch_30">
    <path d="M 37.956263 59.748 
L 40.433755 59.748 
L 40.433755 59.685651 
L 37.956263 59.685651 
z
" clip-path="url(#p7aaac8a1c6)" style="fill: #327dfe; opacity: 0.7"/>
   </g>
   <g id="patch_31">
    <path d="M 40.433755 59.748 
L 42.911246 59.748 
L 42.911246 59.727217 
L 40.433755 59.727217 
z
" clip-path="url(#p7aaac8a1c6)" style="fill: #327dfe; opacity: 0.7"/>
   </g>
   <g id="patch_32">
    <path d="M 42.911246 59.748 
L 45.388742 59.748 
L 45.388742 59.727217 
L 42.911246 59.727217 
z
" clip-path="url(#p7aaac8a1c6)" style="fill: #327dfe; opacity: 0.7"/>
   </g>
   <g id="patch_33">
    <path d="M 8.6636 59.748 
L 10.659527 59.748 
L 10.659527 59.722203 
L 8.6636 59.722203 
z
" clip-path="url(#p7aaac8a1c6)" style="fill: #ff667b; opacity: 0.7"/>
   </g>
   <g id="patch_34">
    <path d="M 10.659527 59.748 
L 12.655455 59.748 
L 12.655455 59.722203 
L 10.659527 59.722203 
z
" clip-path="url(#p7aaac8a1c6)" style="fill: #ff667b; opacity: 0.7"/>
   </g>
   <g id="patch_35">
    <path d="M 12.655455 59.748 
L 14.651382 59.748 
L 14.651382 59.593215 
L 12.655455 59.593215 
z
" clip-path="url(#p7aaac8a1c6)" style="fill: #ff667b; opacity: 0.7"/>
   </g>
   <g id="patch_36">
    <path d="M 14.651382 59.748 
L 16.647309 59.748 
L 16.647309 59.722203 
L 14.651382 59.722203 
z
" clip-path="url(#p7aaac8a1c6)" style="fill: #ff667b; opacity: 0.7"/>
   </g>
   <g id="patch_37">
    <path d="M 16.647309 59.748 
L 18.643237 59.748 
L 18.643237 59.631912 
L 16.647309 59.631912 
z
" clip-path="url(#p7aaac8a1c6)" style="fill: #ff667b; opacity: 0.7"/>
   </g>
   <g id="patch_38">
    <path d="M 18.643237 59.748 
L 20.639164 59.748 
L 20.639164 59.593215 
L 18.643237 59.593215 
z
" clip-path="url(#p7aaac8a1c6)" style="fill: #ff667b; opacity: 0.7"/>
   </g>
   <g id="patch_39">
    <path d="M 20.639164 59.748 
L 22.635092 59.748 
L 22.635092 59.541621 
L 20.639164 59.541621 
z
" clip-path="url(#p7aaac8a1c6)" style="fill: #ff667b; opacity: 0.7"/>
   </g>
   <g id="patch_40">
    <path d="M 22.635092 59.748 
L 24.631019 59.748 
L 24.631019 59.335241 
L 22.635092 59.335241 
z
" clip-path="url(#p7aaac8a1c6)" style="fill: #ff667b; opacity: 0.7"/>
   </g>
   <g id="patch_41">
    <path d="M 24.631019 59.748 
L 26.626947 59.748 
L 26.626947 59.14176 
L 24.631019 59.14176 
z
" clip-path="url(#p7aaac8a1c6)" style="fill: #ff667b; opacity: 0.7"/>
   </g>
   <g id="patch_42">
    <path d="M 26.626947 59.748 
L 28.622874 59.748 
L 28.622874 58.664508 
L 26.626947 58.664508 
z
" clip-path="url(#p7aaac8a1c6)" style="fill: #ff667b; opacity: 0.7"/>
   </g>
   <g id="patch_43">
    <path d="M 28.622874 59.748 
L 30.618801 59.748 
L 30.618801 58.44523 
L 28.622874 58.44523 
z
" clip-path="url(#p7aaac8a1c6)" style="fill: #ff667b; opacity: 0.7"/>
   </g>
   <g id="patch_44">
    <path d="M 30.618801 59.748 
L 32.614729 59.748 
L 32.614729 58.225952 
L 30.618801 58.225952 
z
" clip-path="url(#p7aaac8a1c6)" style="fill: #ff667b; opacity: 0.7"/>
   </g>
   <g id="patch_45">
    <path d="M 32.614729 59.748 
L 34.610656 59.748 
L 34.610656 57.658408 
L 32.614729 57.658408 
z
" clip-path="url(#p7aaac8a1c6)" style="fill: #ff667b; opacity: 0.7"/>
   </g>
   <g id="patch_46">
    <path d="M 34.610656 59.748 
L 36.606584 59.748 
L 36.606584 56.420131 
L 34.610656 56.420131 
z
" clip-path="url(#p7aaac8a1c6)" style="fill: #ff667b; opacity: 0.7"/>
   </g>
   <g id="patch_47">
    <path d="M 36.606584 59.748 
L 38.602511 59.748 
L 38.602511 55.788094 
L 36.606584 55.788094 
z
" clip-path="url(#p7aaac8a1c6)" style="fill: #ff667b; opacity: 0.7"/>
   </g>
   <g id="patch_48">
    <path d="M 38.602511 59.748 
L 40.598438 59.748 
L 40.598438 53.82749 
L 38.602511 53.82749 
z
" clip-path="url(#p7aaac8a1c6)" style="fill: #ff667b; opacity: 0.7"/>
   </g>
   <g id="patch_49">
    <path d="M 40.598438 59.748 
L 42.594366 59.748 
L 42.594366 52.976174 
L 40.598438 52.976174 
z
" clip-path="url(#p7aaac8a1c6)" style="fill: #ff667b; opacity: 0.7"/>
   </g>
   <g id="patch_50">
    <path d="M 42.594366 59.748 
L 44.590293 59.748 
L 44.590293 51.325139 
L 42.594366 51.325139 
z
" clip-path="url(#p7aaac8a1c6)" style="fill: #ff667b; opacity: 0.7"/>
   </g>
   <g id="patch_51">
    <path d="M 44.590293 59.748 
L 46.586216 59.748 
L 46.586216 48.538992 
L 44.590293 48.538992 
z
" clip-path="url(#p7aaac8a1c6)" style="fill: #ff667b; opacity: 0.7"/>
   </g>
   <g id="patch_52">
    <path d="M 46.586216 59.748 
L 48.582144 59.748 
L 48.582144 47.571613 
L 46.586216 47.571613 
z
" clip-path="url(#p7aaac8a1c6)" style="fill: #ff667b; opacity: 0.7"/>
   </g>
   <g id="patch_53">
    <path d="M 48.582144 59.748 
L 50.578071 59.748 
L 50.578071 46.849285 
L 48.582144 46.849285 
z
" clip-path="url(#p7aaac8a1c6)" style="fill: #ff667b; opacity: 0.7"/>
   </g>
   <g id="patch_54">
    <path d="M 50.578071 59.748 
L 52.573999 59.748 
L 52.573999 46.617108 
L 50.578071 46.617108 
z
" clip-path="url(#p7aaac8a1c6)" style="fill: #ff667b; opacity: 0.7"/>
   </g>
   <g id="patch_55">
    <path d="M 52.573999 59.748 
L 54.569926 59.748 
L 54.569926 47.339436 
L 52.573999 47.339436 
z
" clip-path="url(#p7aaac8a1c6)" style="fill: #ff667b; opacity: 0.7"/>
   </g>
   <g id="patch_56">
    <path d="M 54.569926 59.748 
L 56.565853 59.748 
L 56.565853 48.551915 
L 54.569926 48.551915 
z
" clip-path="url(#p7aaac8a1c6)" style="fill: #ff667b; opacity: 0.7"/>
   </g>
   <g id="patch_57">
    <path d="M 56.565853 59.748 
L 58.561781 59.748 
L 58.561781 50.976873 
L 56.565853 50.976873 
z
" clip-path="url(#p7aaac8a1c6)" style="fill: #ff667b; opacity: 0.7"/>
   </g>
   <g id="patch_58">
    <path d="M 58.561781 59.748 
L 60.557708 59.748 
L 60.557708 53.956477 
L 58.561781 53.956477 
z
" clip-path="url(#p7aaac8a1c6)" style="fill: #ff667b; opacity: 0.7"/>
   </g>
   <g id="patch_59">
    <path d="M 60.557708 59.748 
L 62.553636 59.748 
L 62.553636 56.626511 
L 60.557708 56.626511 
z
" clip-path="url(#p7aaac8a1c6)" style="fill: #ff667b; opacity: 0.7"/>
   </g>
   <g id="patch_60">
    <path d="M 62.553636 59.748 
L 64.549563 59.748 
L 64.549563 58.23885 
L 62.553636 58.23885 
z
" clip-path="url(#p7aaac8a1c6)" style="fill: #ff667b; opacity: 0.7"/>
   </g>
   <g id="patch_61">
    <path d="M 64.549563 59.748 
L 66.54549 59.748 
L 66.54549 59.219153 
L 64.549563 59.219153 
z
" clip-path="url(#p7aaac8a1c6)" style="fill: #ff667b; opacity: 0.7"/>
   </g>
   <g id="patch_62">
    <path d="M 66.54549 59.748 
L 68.541418 59.748 
L 68.541418 59.631912 
L 66.54549 59.631912 
z
" clip-path="url(#p7aaac8a1c6)" style="fill: #ff667b; opacity: 0.7"/>
   </g>
   <g id="matplotlib.axis_1">
    <g id="xtick_1">
     <g id="line2d_1">
      <defs>
       <path id="m0f5e75899f" d="M 0 0 
L 0 3.6 
" style="stroke: #000000; stroke-width: 1.2"/>
      </defs>
      <g>
       <use xlink:href="#m0f5e75899f" x="56.77875" y="59.748" style="stroke: #000000; stroke-width: 1.2"/>
      </g>
     </g>
     <g id="text_1">
      <!-- −2 -->
      <g transform="translate(49.407656 74.446438) scale(0.1 -0.1)">
       <defs>
        <path id="DejaVuSans-2212" d="M 678 2272 
L 4684 2272 
L 4684 1741 
L 678 1741 
L 678 2272 
z
" transform="scale(0.015625)"/>
        <path id="DejaVuSans-32" d="M 1228 531 
L 3431 531 
L 3431 0 
L 469 0 
L 469 531 
Q 828 903 1448 1529 
Q 2069 2156 2228 2338 
Q 2531 2678 2651 2914 
Q 2772 3150 2772 3378 
Q 2772 3750 2511 3984 
Q 2250 4219 1831 4219 
Q 1534 4219 1204 4116 
Q 875 4013 500 3803 
L 500 4441 
Q 881 4594 1212 4672 
Q 1544 4750 1819 4750 
Q 2544 4750 2975 4387 
Q 3406 4025 3406 3419 
Q 3406 3131 3298 2873 
Q 3191 2616 2906 2266 
Q 2828 2175 2409 1742 
Q 1991 1309 1228 531 
z
" transform="scale(0.015625)"/>
       </defs>
       <use xlink:href="#DejaVuSans-2212"/>
       <use xlink:href="#DejaVuSans-32" x="83.789062"/>
      </g>
     </g>
    </g>
    <g id="xtick_2">
     <g id="line2d_2">
      <g>
       <use xlink:href="#m0f5e75899f" x="75.1875" y="59.748" style="stroke: #000000; stroke-width: 1.2"/>
      </g>
     </g>
     <g id="text_2">
      <!-- −1 -->
      <g transform="translate(67.816406 74.446438) scale(0.1 -0.1)">
       <defs>
        <path id="DejaVuSans-31" d="M 794 531 
L 1825 531 
L 1825 4091 
L 703 3866 
L 703 4441 
L 1819 4666 
L 2450 4666 
L 2450 531 
L 3481 531 
L 3481 0 
L 794 0 
L 794 531 
z
" transform="scale(0.015625)"/>
       </defs>
       <use xlink:href="#DejaVuSans-2212"/>
       <use xlink:href="#DejaVuSans-31" x="83.789062"/>
      </g>
     </g>
    </g>
    <g id="xtick_3">
     <g id="line2d_3">
      <g>
       <use xlink:href="#m0f5e75899f" x="93.59625" y="59.748" style="stroke: #000000; stroke-width: 1.2"/>
      </g>
     </g>
     <g id="text_3">
      <!-- 0 -->
      <g transform="translate(90.415 74.446438) scale(0.1 -0.1)">
       <defs>
        <path id="DejaVuSans-30" d="M 2034 4250 
Q 1547 4250 1301 3770 
Q 1056 3291 1056 2328 
Q 1056 1369 1301 889 
Q 1547 409 2034 409 
Q 2525 409 2770 889 
Q 3016 1369 3016 2328 
Q 3016 3291 2770 3770 
Q 2525 4250 2034 4250 
z
M 2034 4750 
Q 2819 4750 3233 4129 
Q 3647 3509 3647 2328 
Q 3647 1150 3233 529 
Q 2819 -91 2034 -91 
Q 1250 -91 836 529 
Q 422 1150 422 2328 
Q 422 3509 836 4129 
Q 1250 4750 2034 4750 
z
" transform="scale(0.015625)"/>
       </defs>
       <use xlink:href="#DejaVuSans-30"/>
      </g>
     </g>
    </g>
    <g id="xtick_4">
     <g id="line2d_4">
      <g>
       <use xlink:href="#m0f5e75899f" x="112.005" y="59.748" style="stroke: #000000; stroke-width: 1.2"/>
      </g>
     </g>
     <g id="text_4">
      <!-- 1 -->
      <g transform="translate(108.82375 74.446438) scale(0.1 -0.1)">
       <use xlink:href="#DejaVuSans-31"/>
      </g>
     </g>
    </g>
    <g id="text_5">
     <!-- $G^{3}_{\text{H}}(\kappa=1.5)$ -->
     <g transform="translate(47.5875 89.626125) scale(0.1 -0.1)">
      <defs>
       <path id="DejaVuSans-Oblique-47" d="M 3494 697 
L 3738 1919 
L 2700 1919 
L 2797 2438 
L 4453 2438 
L 4050 384 
Q 3634 156 3143 32 
Q 2653 -91 2156 -91 
Q 1278 -91 783 396 
Q 288 884 288 1753 
Q 288 2475 589 3126 
Q 891 3778 1422 4213 
Q 1756 4484 2153 4617 
Q 2550 4750 3034 4750 
Q 3472 4750 3873 4639 
Q 4275 4528 4641 4306 
L 4513 3634 
Q 4231 3928 3853 4083 
Q 3475 4238 3047 4238 
Q 2550 4238 2172 4048 
Q 1794 3859 1497 3463 
Q 1244 3125 1098 2667 
Q 953 2209 953 1734 
Q 953 1081 1287 751 
Q 1622 422 2284 422 
Q 2616 422 2925 492 
Q 3234 563 3494 697 
z
" transform="scale(0.015625)"/>
       <path id="DejaVuSans-33" d="M 2597 2516 
Q 3050 2419 3304 2112 
Q 3559 1806 3559 1356 
Q 3559 666 3084 287 
Q 2609 -91 1734 -91 
Q 1441 -91 1130 -33 
Q 819 25 488 141 
L 488 750 
Q 750 597 1062 519 
Q 1375 441 1716 441 
Q 2309 441 2620 675 
Q 2931 909 2931 1356 
Q 2931 1769 2642 2001 
Q 2353 2234 1838 2234 
L 1294 2234 
L 1294 2753 
L 1863 2753 
Q 2328 2753 2575 2939 
Q 2822 3125 2822 3475 
Q 2822 3834 2567 4026 
Q 2313 4219 1838 4219 
Q 1578 4219 1281 4162 
Q 984 4106 628 3988 
L 628 4550 
Q 988 4650 1302 4700 
Q 1616 4750 1894 4750 
Q 2613 4750 3031 4423 
Q 3450 4097 3450 3541 
Q 3450 3153 3228 2886 
Q 3006 2619 2597 2516 
z
" transform="scale(0.015625)"/>
       <path id="DejaVuSans-48" d="M 628 4666 
L 1259 4666 
L 1259 2753 
L 3553 2753 
L 3553 4666 
L 4184 4666 
L 4184 0 
L 3553 0 
L 3553 2222 
L 1259 2222 
L 1259 0 
L 628 0 
L 628 4666 
z
" transform="scale(0.015625)"/>
       <path id="DejaVuSans-28" d="M 1984 4856 
Q 1566 4138 1362 3434 
Q 1159 2731 1159 2009 
Q 1159 1288 1364 580 
Q 1569 -128 1984 -844 
L 1484 -844 
Q 1016 -109 783 600 
Q 550 1309 550 2009 
Q 550 2706 781 3412 
Q 1013 4119 1484 4856 
L 1984 4856 
z
" transform="scale(0.015625)"/>
       <path id="DejaVuSans-Oblique-3ba" d="M 938 3500 
L 1531 3500 
L 1247 2047 
L 3041 3500 
L 3741 3500 
L 2106 2181 
L 3275 0 
L 2572 0 
L 1628 1806 
L 1122 1403 
L 850 0 
L 256 0 
L 938 3500 
z
" transform="scale(0.015625)"/>
       <path id="DejaVuSans-3d" d="M 678 2906 
L 4684 2906 
L 4684 2381 
L 678 2381 
L 678 2906 
z
M 678 1631 
L 4684 1631 
L 4684 1100 
L 678 1100 
L 678 1631 
z
" transform="scale(0.015625)"/>
       <path id="DejaVuSans-2e" d="M 684 794 
L 1344 794 
L 1344 0 
L 684 0 
L 684 794 
z
" transform="scale(0.015625)"/>
       <path id="DejaVuSans-35" d="M 691 4666 
L 3169 4666 
L 3169 4134 
L 1269 4134 
L 1269 2991 
Q 1406 3038 1543 3061 
Q 1681 3084 1819 3084 
Q 2600 3084 3056 2656 
Q 3513 2228 3513 1497 
Q 3513 744 3044 326 
Q 2575 -91 1722 -91 
Q 1428 -91 1123 -41 
Q 819 9 494 109 
L 494 744 
Q 775 591 1075 516 
Q 1375 441 1709 441 
Q 2250 441 2565 725 
Q 2881 1009 2881 1497 
Q 2881 1984 2565 2268 
Q 2250 2553 1709 2553 
Q 1456 2553 1204 2497 
Q 953 2441 691 2322 
L 691 4666 
z
" transform="scale(0.015625)"/>
       <path id="DejaVuSans-29" d="M 513 4856 
L 1013 4856 
Q 1481 4119 1714 3412 
Q 1947 2706 1947 2009 
Q 1947 1309 1714 600 
Q 1481 -109 1013 -844 
L 513 -844 
Q 928 -128 1133 580 
Q 1338 1288 1338 2009 
Q 1338 2731 1133 3434 
Q 928 4138 513 4856 
z
" transform="scale(0.015625)"/>
      </defs>
      <use xlink:href="#DejaVuSans-Oblique-47" transform="translate(0 0.765625)"/>
      <use xlink:href="#DejaVuSans-33" transform="translate(84.690755 39.046875) scale(0.7)"/>
      <use xlink:href="#DejaVuSans-48" transform="translate(77.490234 -26.578125) scale(0.7)"/>
      <use xlink:href="#DejaVuSans-28" transform="translate(132.861328 0.765625)"/>
      <use xlink:href="#DejaVuSans-Oblique-3ba" transform="translate(171.875 0.765625)"/>
      <use xlink:href="#DejaVuSans-3d" transform="translate(250.292969 0.765625)"/>
      <use xlink:href="#DejaVuSans-31" transform="translate(353.564453 0.765625)"/>
      <use xlink:href="#DejaVuSans-2e" transform="translate(417.1875 0.765625)"/>
      <use xlink:href="#DejaVuSans-35" transform="translate(448.974609 0.765625)"/>
      <use xlink:href="#DejaVuSans-29" transform="translate(512.597656 0.765625)"/>
     </g>
    </g>
   </g>
   <g id="matplotlib.axis_2">
    <g id="ytick_1">
     <g id="line2d_5">
      <defs>
       <path id="m6afbd5e4de" d="M 0 0 
L -3.6 0 
" style="stroke: #000000; stroke-width: 1.2"/>
      </defs>
      <g>
       <use xlink:href="#m6afbd5e4de" x="38.37" y="59.748" style="stroke: #000000; stroke-width: 1.2"/>
      </g>
     </g>
     <g id="text_6">
      <!-- 0 -->
      <g transform="translate(24.9075 63.547219) scale(0.1 -0.1)">
       <use xlink:href="#DejaVuSans-30"/>
      </g>
     </g>
    </g>
    <g id="ytick_2">
     <g id="line2d_6">
      <g>
       <use xlink:href="#m6afbd5e4de" x="38.37" y="45.762857" style="stroke: #000000; stroke-width: 1.2"/>
      </g>
     </g>
     <g id="text_7">
      <!-- 1 -->
      <g transform="translate(24.9075 49.562076) scale(0.1 -0.1)">
       <use xlink:href="#DejaVuSans-31"/>
      </g>
     </g>
    </g>
    <g id="ytick_3">
     <g id="line2d_7">
      <g>
       <use xlink:href="#m6afbd5e4de" x="38.37" y="31.777714" style="stroke: #000000; stroke-width: 1.2"/>
      </g>
     </g>
     <g id="text_8">
      <!-- 2 -->
      <g transform="translate(24.9075 35.576933) scale(0.1 -0.1)">
       <use xlink:href="#DejaVuSans-32"/>
      </g>
     </g>
    </g>
    <g id="ytick_4">
     <g id="line2d_8">
      <g>
       <use xlink:href="#m6afbd5e4de" x="38.37" y="17.792571" style="stroke: #000000; stroke-width: 1.2"/>
      </g>
     </g>
     <g id="text_9">
      <!-- 3 -->
      <g transform="translate(24.9075 21.59179) scale(0.1 -0.1)">
       <use xlink:href="#DejaVuSans-33"/>
      </g>
     </g>
    </g>
    <g id="text_10">
     <!-- Density -->
     <g transform="translate(18.827812 54.282594) rotate(-90) scale(0.1 -0.1)">
      <defs>
       <path id="DejaVuSans-44" d="M 1259 4147 
L 1259 519 
L 2022 519 
Q 2988 519 3436 956 
Q 3884 1394 3884 2338 
Q 3884 3275 3436 3711 
Q 2988 4147 2022 4147 
L 1259 4147 
z
M 628 4666 
L 1925 4666 
Q 3281 4666 3915 4102 
Q 4550 3538 4550 2338 
Q 4550 1131 3912 565 
Q 3275 0 1925 0 
L 628 0 
L 628 4666 
z
" transform="scale(0.015625)"/>
       <path id="DejaVuSans-65" d="M 3597 1894 
L 3597 1613 
L 953 1613 
Q 991 1019 1311 708 
Q 1631 397 2203 397 
Q 2534 397 2845 478 
Q 3156 559 3463 722 
L 3463 178 
Q 3153 47 2828 -22 
Q 2503 -91 2169 -91 
Q 1331 -91 842 396 
Q 353 884 353 1716 
Q 353 2575 817 3079 
Q 1281 3584 2069 3584 
Q 2775 3584 3186 3129 
Q 3597 2675 3597 1894 
z
M 3022 2063 
Q 3016 2534 2758 2815 
Q 2500 3097 2075 3097 
Q 1594 3097 1305 2825 
Q 1016 2553 972 2059 
L 3022 2063 
z
" transform="scale(0.015625)"/>
       <path id="DejaVuSans-6e" d="M 3513 2113 
L 3513 0 
L 2938 0 
L 2938 2094 
Q 2938 2591 2744 2837 
Q 2550 3084 2163 3084 
Q 1697 3084 1428 2787 
Q 1159 2491 1159 1978 
L 1159 0 
L 581 0 
L 581 3500 
L 1159 3500 
L 1159 2956 
Q 1366 3272 1645 3428 
Q 1925 3584 2291 3584 
Q 2894 3584 3203 3211 
Q 3513 2838 3513 2113 
z
" transform="scale(0.015625)"/>
       <path id="DejaVuSans-73" d="M 2834 3397 
L 2834 2853 
Q 2591 2978 2328 3040 
Q 2066 3103 1784 3103 
Q 1356 3103 1142 2972 
Q 928 2841 928 2578 
Q 928 2378 1081 2264 
Q 1234 2150 1697 2047 
L 1894 2003 
Q 2506 1872 2764 1633 
Q 3022 1394 3022 966 
Q 3022 478 2636 193 
Q 2250 -91 1575 -91 
Q 1294 -91 989 -36 
Q 684 19 347 128 
L 347 722 
Q 666 556 975 473 
Q 1284 391 1588 391 
Q 1994 391 2212 530 
Q 2431 669 2431 922 
Q 2431 1156 2273 1281 
Q 2116 1406 1581 1522 
L 1381 1569 
Q 847 1681 609 1914 
Q 372 2147 372 2553 
Q 372 3047 722 3315 
Q 1072 3584 1716 3584 
Q 2034 3584 2315 3537 
Q 2597 3491 2834 3397 
z
" transform="scale(0.015625)"/>
       <path id="DejaVuSans-69" d="M 603 3500 
L 1178 3500 
L 1178 0 
L 603 0 
L 603 3500 
z
M 603 4863 
L 1178 4863 
L 1178 4134 
L 603 4134 
L 603 4863 
z
" transform="scale(0.015625)"/>
       <path id="DejaVuSans-74" d="M 1172 4494 
L 1172 3500 
L 2356 3500 
L 2356 3053 
L 1172 3053 
L 1172 1153 
Q 1172 725 1289 603 
Q 1406 481 1766 481 
L 2356 481 
L 2356 0 
L 1766 0 
Q 1100 0 847 248 
Q 594 497 594 1153 
L 594 3053 
L 172 3053 
L 172 3500 
L 594 3500 
L 594 4494 
L 1172 4494 
z
" transform="scale(0.015625)"/>
       <path id="DejaVuSans-79" d="M 2059 -325 
Q 1816 -950 1584 -1140 
Q 1353 -1331 966 -1331 
L 506 -1331 
L 506 -850 
L 844 -850 
Q 1081 -850 1212 -737 
Q 1344 -625 1503 -206 
L 1606 56 
L 191 3500 
L 800 3500 
L 1894 763 
L 2988 3500 
L 3597 3500 
L 2059 -325 
z
" transform="scale(0.015625)"/>
      </defs>
      <use xlink:href="#DejaVuSans-44"/>
      <use xlink:href="#DejaVuSans-65" x="77.001953"/>
      <use xlink:href="#DejaVuSans-6e" x="138.525391"/>
      <use xlink:href="#DejaVuSans-73" x="201.904297"/>
      <use xlink:href="#DejaVuSans-69" x="254.003906"/>
      <use xlink:href="#DejaVuSans-74" x="281.787109"/>
      <use xlink:href="#DejaVuSans-79" x="320.996094"/>
     </g>
    </g>
   </g>
   <g id="patch_63">
    <path d="M 38.37 59.748 
L 38.37 10.8 
" style="fill: none; stroke: #000000; stroke-width: 1.3; stroke-linejoin: miter; stroke-linecap: square"/>
   </g>
   <g id="patch_64">
    <path d="M 38.37 59.748 
L 112.005 59.748 
" style="fill: none; stroke: #000000; stroke-width: 1.3; stroke-linejoin: miter; stroke-linecap: square"/>
   </g>
  </g>
 </g>
 <defs>
  <clipPath id="p7aaac8a1c6">
   <rect x="38.37" y="10.8" width="73.635" height="48.948"/>
  </clipPath>
 </defs>
</svg>
