<?xml version="1.0" encoding="utf-8" standalone="no"?>
<!DOCTYPE svg PUBLIC "-//W3C//DTD SVG 1.1//EN"
  "http://www.w3.org/Graphics/SVG/1.1/DTD/svg11.dtd">
<svg xmlns:xlink="http://www.w3.org/1999/xlink" width="126pt" height="108pt" viewBox="0 0 126 108" xmlns="http://www.w3.org/2000/svg" version="1.1">
 <metadata>
  <rdf:RDF xmlns:dc="http://purl.org/dc/elements/1.1/" xmlns:cc="http://creativecommons.org/ns#" xmlns:rdf="http://www.w3.org/1999/02/22-rdf-syntax-ns#">
   <cc:Work>
    <dc:type rdf:resource="http://purl.org/dc/dcmitype/StillImage"/>
    <dc:date>2026-02-04T15:06:45.995400</dc:date>
    <dc:format>image/svg+xml</dc:format>
    <dc:creator>
     <cc:Agent>
      <dc:title>Matplotlib v3.9.4, https://matplotlib.org/</dc:title>
     </cc:Agent>
    </dc:creator>
   </cc:Work>
  </rdf:RDF>
 </metadata>
 <defs>
  <style type="text/css">*{stroke-linejoin: round; stroke-linecap: butt}</style>
 </defs>
 <g id="figure_1">
  <g id="patch_1">
   <path d="M 0 108 
L 126 108 
L 126 0 
L 0 0 
L 0 108 
z
" style="fill: none"/>
  </g>
  <g id="axes_1">
   <g id="patch_2">
    <path d="M 47.73 59.748 
L 107.325 59.748 
L 107.325 14.76 
L 47.73 14.76 
L 47.73 59.748 
z
" style="fill: none"/>
   </g>
   <g id="patch_3">
    <path d="M 37.133663 59.748 
L 40.194567 59.748 
L 40.194567 59.715154 
L 37.133663 59.715154 
z
" clip-path="url(#p4b9afc211b)" style="fill: #327dfe; opacity: 0.7"/>
   </g>
   <g id="patch_4">
    <path d="M 40.194567 59.748 
L 43.255472 59.748 
L 43.255472 59.715154 
L 40.194567 59.715154 
z
" clip-path="url(#p4b9afc211b)" style="fill: #327dfe; opacity: 0.7"/>
   </g>
   <g id="patch_5">
    <path d="M 43.255472 59.748 
L 46.316368 59.748 
L 46.316368 59.627563 
L 43.255472 59.627563 
z
" clip-path="url(#p4b9afc211b)" style="fill: #327dfe; opacity: 0.7"/>
   </g>
   <g id="patch_6">
    <path d="M 46.316368 59.748 
L 49.377272 59.748 
L 49.377272 59.123918 
L 46.316368 59.123918 
z
" clip-path="url(#p4b9afc211b)" style="fill: #327dfe; opacity: 0.7"/>
   </g>
   <g id="patch_7">
    <path d="M 49.377272 59.748 
L 52.438168 59.748 
L 52.438168 58.499833 
L 49.377272 58.499833 
z
" clip-path="url(#p4b9afc211b)" style="fill: #327dfe; opacity: 0.7"/>
   </g>
   <g id="patch_8">
    <path d="M 52.438168 59.748 
L 55.499082 59.748 
L 55.499082 57.372116 
L 52.438168 57.372116 
z
" clip-path="url(#p4b9afc211b)" style="fill: #327dfe; opacity: 0.7"/>
   </g>
   <g id="patch_9">
    <path d="M 55.499082 59.748 
L 58.559977 59.748 
L 58.559977 56.025395 
L 55.499082 56.025395 
z
" clip-path="url(#p4b9afc211b)" style="fill: #327dfe; opacity: 0.7"/>
   </g>
   <g id="patch_10">
    <path d="M 58.559977 59.748 
L 61.620891 59.748 
L 61.620891 54.372152 
L 58.559977 54.372152 
z
" clip-path="url(#p4b9afc211b)" style="fill: #327dfe; opacity: 0.7"/>
   </g>
   <g id="patch_11">
    <path d="M 61.620891 59.748 
L 64.681787 59.748 
L 64.681787 50.321052 
L 61.620891 50.321052 
z
" clip-path="url(#p4b9afc211b)" style="fill: #327dfe; opacity: 0.7"/>
   </g>
   <g id="patch_12">
    <path d="M 64.681787 59.748 
L 67.742683 59.748 
L 67.742683 45.142252 
L 64.681787 45.142252 
z
" clip-path="url(#p4b9afc211b)" style="fill: #327dfe; opacity: 0.7"/>
   </g>
   <g id="patch_13">
    <path d="M 67.742683 59.748 
L 70.803596 59.748 
L 70.803596 42.350399 
L 67.742683 42.350399 
z
" clip-path="url(#p4b9afc211b)" style="fill: #327dfe; opacity: 0.7"/>
   </g>
   <g id="patch_14">
    <path d="M 70.803596 59.748 
L 73.864492 59.748 
L 73.864492 44.934224 
L 70.803596 44.934224 
z
" clip-path="url(#p4b9afc211b)" style="fill: #327dfe; opacity: 0.7"/>
   </g>
   <g id="patch_15">
    <path d="M 73.864492 59.748 
L 76.925405 59.748 
L 76.925405 51.799191 
L 73.864492 51.799191 
z
" clip-path="url(#p4b9afc211b)" style="fill: #327dfe; opacity: 0.7"/>
   </g>
   <g id="patch_16">
    <path d="M 76.925405 59.748 
L 79.986301 59.748 
L 79.986301 54.306428 
L 76.925405 54.306428 
z
" clip-path="url(#p4b9afc211b)" style="fill: #327dfe; opacity: 0.7"/>
   </g>
   <g id="patch_17">
    <path d="M 79.986301 59.748 
L 83.047197 59.748 
L 83.047197 54.777228 
L 79.986301 54.777228 
z
" clip-path="url(#p4b9afc211b)" style="fill: #327dfe; opacity: 0.7"/>
   </g>
   <g id="patch_18">
    <path d="M 83.047197 59.748 
L 86.10811 59.748 
L 86.10811 53.967048 
L 83.047197 53.967048 
z
" clip-path="url(#p4b9afc211b)" style="fill: #327dfe; opacity: 0.7"/>
   </g>
   <g id="patch_19">
    <path d="M 86.10811 59.748 
L 89.169006 59.748 
L 89.169006 55.215182 
L 86.10811 55.215182 
z
" clip-path="url(#p4b9afc211b)" style="fill: #327dfe; opacity: 0.7"/>
   </g>
   <g id="patch_20">
    <path d="M 89.169006 59.748 
L 92.229902 59.748 
L 92.229902 56.255321 
L 89.169006 56.255321 
z
" clip-path="url(#p4b9afc211b)" style="fill: #327dfe; opacity: 0.7"/>
   </g>
   <g id="patch_21">
    <path d="M 92.229902 59.748 
L 95.290816 59.748 
L 95.290816 57.580143 
L 92.229902 57.580143 
z
" clip-path="url(#p4b9afc211b)" style="fill: #327dfe; opacity: 0.7"/>
   </g>
   <g id="patch_22">
    <path d="M 95.290816 59.748 
L 98.351711 59.748 
L 98.351711 58.269907 
L 95.290816 58.269907 
z
" clip-path="url(#p4b9afc211b)" style="fill: #327dfe; opacity: 0.7"/>
   </g>
   <g id="patch_23">
    <path d="M 98.351711 59.748 
L 101.412625 59.748 
L 101.412625 58.598379 
L 98.351711 58.598379 
z
" clip-path="url(#p4b9afc211b)" style="fill: #327dfe; opacity: 0.7"/>
   </g>
   <g id="patch_24">
    <path d="M 101.412625 59.748 
L 104.473521 59.748 
L 104.473521 58.554577 
L 101.412625 58.554577 
z
" clip-path="url(#p4b9afc211b)" style="fill: #327dfe; opacity: 0.7"/>
   </g>
   <g id="patch_25">
    <path d="M 104.473521 59.748 
L 107.534434 59.748 
L 107.534434 59.03633 
L 104.473521 59.03633 
z
" clip-path="url(#p4b9afc211b)" style="fill: #327dfe; opacity: 0.7"/>
   </g>
   <g id="patch_26">
    <path d="M 107.534434 59.748 
L 110.59533 59.748 
L 110.59533 59.46333 
L 107.534434 59.46333 
z
" clip-path="url(#p4b9afc211b)" style="fill: #327dfe; opacity: 0.7"/>
   </g>
   <g id="patch_27">
    <path d="M 110.59533 59.748 
L 113.656226 59.748 
L 113.656226 59.529023 
L 110.59533 59.529023 
z
" clip-path="url(#p4b9afc211b)" style="fill: #327dfe; opacity: 0.7"/>
   </g>
   <g id="patch_28">
    <path d="M 113.656226 59.748 
L 116.717139 59.748 
L 116.717139 59.66041 
L 113.656226 59.66041 
z
" clip-path="url(#p4b9afc211b)" style="fill: #327dfe; opacity: 0.7"/>
   </g>
   <g id="patch_29">
    <path d="M 116.717139 59.748 
L 119.778035 59.748 
L 119.778035 59.638512 
L 116.717139 59.638512 
z
" clip-path="url(#p4b9afc211b)" style="fill: #327dfe; opacity: 0.7"/>
   </g>
   <g id="patch_30">
    <path d="M 119.778035 59.748 
L 122.838931 59.748 
L 122.838931 59.682307 
L 119.778035 59.682307 
z
" clip-path="url(#p4b9afc211b)" style="fill: #327dfe; opacity: 0.7"/>
   </g>
   <g id="patch_31">
    <path d="M 122.838931 59.748 
L 125.899844 59.748 
L 125.899844 59.693256 
L 122.838931 59.693256 
z
" clip-path="url(#p4b9afc211b)" style="fill: #327dfe; opacity: 0.7"/>
   </g>
   <g id="patch_32">
    <path d="M 125.899844 59.748 
L 128.96074 59.748 
L 128.96074 59.726102 
L 125.899844 59.726102 
z
" clip-path="url(#p4b9afc211b)" style="fill: #327dfe; opacity: 0.7"/>
   </g>
   <g id="patch_33">
    <path d="M 36.462015 59.748 
L 38.538711 59.748 
L 38.538711 59.731862 
L 36.462015 59.731862 
z
" clip-path="url(#p4b9afc211b)" style="fill: #ff667b; opacity: 0.7"/>
   </g>
   <g id="patch_34">
    <path d="M 38.538711 59.748 
L 40.615407 59.748 
L 40.615407 59.715724 
L 38.538711 59.715724 
z
" clip-path="url(#p4b9afc211b)" style="fill: #ff667b; opacity: 0.7"/>
   </g>
   <g id="patch_35">
    <path d="M 40.615407 59.748 
L 42.692103 59.748 
L 42.692103 59.667311 
L 40.615407 59.667311 
z
" clip-path="url(#p4b9afc211b)" style="fill: #ff667b; opacity: 0.7"/>
   </g>
   <g id="patch_36">
    <path d="M 42.692103 59.748 
L 44.768807 59.748 
L 44.768807 59.457521 
L 42.692103 59.457521 
z
" clip-path="url(#p4b9afc211b)" style="fill: #ff667b; opacity: 0.7"/>
   </g>
   <g id="patch_37">
    <path d="M 44.768807 59.748 
L 46.845503 59.748 
L 46.845503 59.0218 
L 44.768807 59.0218 
z
" clip-path="url(#p4b9afc211b)" style="fill: #ff667b; opacity: 0.7"/>
   </g>
   <g id="patch_38">
    <path d="M 46.845503 59.748 
L 48.922199 59.748 
L 48.922199 58.553805 
L 46.845503 58.553805 
z
" clip-path="url(#p4b9afc211b)" style="fill: #ff667b; opacity: 0.7"/>
   </g>
   <g id="patch_39">
    <path d="M 48.922199 59.748 
L 50.998895 59.748 
L 50.998895 58.198774 
L 48.922199 58.198774 
z
" clip-path="url(#p4b9afc211b)" style="fill: #ff667b; opacity: 0.7"/>
   </g>
   <g id="patch_40">
    <path d="M 50.998895 59.748 
L 53.075599 59.748 
L 53.075599 56.02019 
L 50.998895 56.02019 
z
" clip-path="url(#p4b9afc211b)" style="fill: #ff667b; opacity: 0.7"/>
   </g>
   <g id="patch_41">
    <path d="M 53.075599 59.748 
L 55.152286 59.748 
L 55.152286 48.532199 
L 53.075599 48.532199 
z
" clip-path="url(#p4b9afc211b)" style="fill: #ff667b; opacity: 0.7"/>
   </g>
   <g id="patch_42">
    <path d="M 55.152286 59.748 
L 57.228991 59.748 
L 57.228991 32.66893 
L 55.152286 32.66893 
z
" clip-path="url(#p4b9afc211b)" style="fill: #ff667b; opacity: 0.7"/>
   </g>
   <g id="patch_43">
    <path d="M 57.228991 59.748 
L 59.305678 59.748 
L 59.305678 19.467943 
L 57.228991 19.467943 
z
" clip-path="url(#p4b9afc211b)" style="fill: #ff667b; opacity: 0.7"/>
   </g>
   <g id="patch_44">
    <path d="M 59.305678 59.748 
L 61.382383 59.748 
L 61.382383 22.147146 
L 59.305678 22.147146 
z
" clip-path="url(#p4b9afc211b)" style="fill: #ff667b; opacity: 0.7"/>
   </g>
   <g id="patch_45">
    <path d="M 61.382383 59.748 
L 63.45907 59.748 
L 63.45907 36.461092 
L 61.382383 36.461092 
z
" clip-path="url(#p4b9afc211b)" style="fill: #ff667b; opacity: 0.7"/>
   </g>
   <g id="patch_46">
    <path d="M 63.45907 59.748 
L 65.535774 59.748 
L 65.535774 50.549508 
L 63.45907 50.549508 
z
" clip-path="url(#p4b9afc211b)" style="fill: #ff667b; opacity: 0.7"/>
   </g>
   <g id="patch_47">
    <path d="M 65.535774 59.748 
L 67.612479 59.748 
L 67.612479 56.520459 
L 65.535774 56.520459 
z
" clip-path="url(#p4b9afc211b)" style="fill: #ff667b; opacity: 0.7"/>
   </g>
   <g id="patch_48">
    <path d="M 67.612479 59.748 
L 69.689166 59.748 
L 69.689166 58.876556 
L 67.612479 58.876556 
z
" clip-path="url(#p4b9afc211b)" style="fill: #ff667b; opacity: 0.7"/>
   </g>
   <g id="patch_49">
    <path d="M 69.689166 59.748 
L 71.76587 59.748 
L 71.76587 59.441384 
L 69.689166 59.441384 
z
" clip-path="url(#p4b9afc211b)" style="fill: #ff667b; opacity: 0.7"/>
   </g>
   <g id="patch_50">
    <path d="M 71.76587 59.748 
L 73.842557 59.748 
L 73.842557 59.505932 
L 71.76587 59.505932 
z
" clip-path="url(#p4b9afc211b)" style="fill: #ff667b; opacity: 0.7"/>
   </g>
   <g id="patch_51">
    <path d="M 73.842557 59.748 
L 75.919262 59.748 
L 75.919262 59.570485 
L 73.842557 59.570485 
z
" clip-path="url(#p4b9afc211b)" style="fill: #ff667b; opacity: 0.7"/>
   </g>
   <g id="patch_52">
    <path d="M 75.919262 59.748 
L 77.995949 59.748 
L 77.995949 59.618897 
L 75.919262 59.618897 
z
" clip-path="url(#p4b9afc211b)" style="fill: #ff667b; opacity: 0.7"/>
   </g>
   <g id="patch_53">
    <path d="M 77.995949 59.748 
L 80.072654 59.748 
L 80.072654 59.683449 
L 77.995949 59.683449 
z
" clip-path="url(#p4b9afc211b)" style="fill: #ff667b; opacity: 0.7"/>
   </g>
   <g id="patch_54">
    <path d="M 80.072654 59.748 
L 82.149358 59.748 
L 82.149358 59.731862 
L 80.072654 59.731862 
z
" clip-path="url(#p4b9afc211b)" style="fill: #ff667b; opacity: 0.7"/>
   </g>
   <g id="patch_55">
    <path d="M 82.149358 59.748 
L 84.226045 59.748 
L 84.226045 59.731862 
L 82.149358 59.731862 
z
" clip-path="url(#p4b9afc211b)" style="fill: #ff667b; opacity: 0.7"/>
   </g>
   <g id="patch_56">
    <path d="M 84.226045 59.748 
L 86.30275 59.748 
L 86.30275 59.731862 
L 84.226045 59.731862 
z
" clip-path="url(#p4b9afc211b)" style="fill: #ff667b; opacity: 0.7"/>
   </g>
   <g id="patch_57">
    <path d="M 86.30275 59.748 
L 88.379437 59.748 
L 88.379437 59.731862 
L 86.30275 59.731862 
z
" clip-path="url(#p4b9afc211b)" style="fill: #ff667b; opacity: 0.7"/>
   </g>
   <g id="patch_58">
    <path d="M 88.379437 59.748 
L 90.456141 59.748 
L 90.456141 59.748 
L 88.379437 59.748 
z
" clip-path="url(#p4b9afc211b)" style="fill: #ff667b; opacity: 0.7"/>
   </g>
   <g id="patch_59">
    <path d="M 90.456141 59.748 
L 92.532828 59.748 
L 92.532828 59.748 
L 90.456141 59.748 
z
" clip-path="url(#p4b9afc211b)" style="fill: #ff667b; opacity: 0.7"/>
   </g>
   <g id="patch_60">
    <path d="M 92.532828 59.748 
L 94.609533 59.748 
L 94.609533 59.748 
L 92.532828 59.748 
z
" clip-path="url(#p4b9afc211b)" style="fill: #ff667b; opacity: 0.7"/>
   </g>
   <g id="patch_61">
    <path d="M 94.609533 59.748 
L 96.686238 59.748 
L 96.686238 59.748 
L 94.609533 59.748 
z
" clip-path="url(#p4b9afc211b)" style="fill: #ff667b; opacity: 0.7"/>
   </g>
   <g id="patch_62">
    <path d="M 96.686238 59.748 
L 98.762925 59.748 
L 98.762925 59.731862 
L 96.686238 59.731862 
z
" clip-path="url(#p4b9afc211b)" style="fill: #ff667b; opacity: 0.7"/>
   </g>
   <g id="matplotlib.axis_1">
    <g id="xtick_1">
     <g id="line2d_1">
      <defs>
       <path id="m04bc5223e7" d="M 0 0 
L 0 3.6 
" style="stroke: #000000; stroke-width: 1.2"/>
      </defs>
      <g>
       <use xlink:href="#m04bc5223e7" x="51.454688" y="59.748" style="stroke: #000000; stroke-width: 1.2"/>
      </g>
     </g>
     <g id="text_1">
      <!-- 4.0 -->
      <g transform="translate(43.503125 74.446438) scale(0.1 -0.1)">
       <defs>
        <path id="DejaVuSans-34" d="M 2419 4116 
L 825 1625 
L 2419 1625 
L 2419 4116 
z
M 2253 4666 
L 3047 4666 
L 3047 1625 
L 3713 1625 
L 3713 1100 
L 3047 1100 
L 3047 0 
L 2419 0 
L 2419 1100 
L 313 1100 
L 313 1709 
L 2253 4666 
z
" transform="scale(0.015625)"/>
        <path id="DejaVuSans-2e" d="M 684 794 
L 1344 794 
L 1344 0 
L 684 0 
L 684 794 
z
" transform="scale(0.015625)"/>
        <path id="DejaVuSans-30" d="M 2034 4250 
Q 1547 4250 1301 3770 
Q 1056 3291 1056 2328 
Q 1056 1369 1301 889 
Q 1547 409 2034 409 
Q 2525 409 2770 889 
Q 3016 1369 3016 2328 
Q 3016 3291 2770 3770 
Q 2525 4250 2034 4250 
z
M 2034 4750 
Q 2819 4750 3233 4129 
Q 3647 3509 3647 2328 
Q 3647 1150 3233 529 
Q 2819 -91 2034 -91 
Q 1250 -91 836 529 
Q 422 1150 422 2328 
Q 422 3509 836 4129 
Q 1250 4750 2034 4750 
z
" transform="scale(0.015625)"/>
       </defs>
       <use xlink:href="#DejaVuSans-34"/>
       <use xlink:href="#DejaVuSans-2e" x="63.623047"/>
       <use xlink:href="#DejaVuSans-30" x="95.410156"/>
      </g>
     </g>
    </g>
    <g id="xtick_2">
     <g id="line2d_2">
      <g>
       <use xlink:href="#m04bc5223e7" x="70.078125" y="59.748" style="stroke: #000000; stroke-width: 1.2"/>
      </g>
     </g>
     <g id="text_2">
      <!-- 4.5 -->
      <g transform="translate(62.126563 74.446438) scale(0.1 -0.1)">
       <defs>
        <path id="DejaVuSans-35" d="M 691 4666 
L 3169 4666 
L 3169 4134 
L 1269 4134 
L 1269 2991 
Q 1406 3038 1543 3061 
Q 1681 3084 1819 3084 
Q 2600 3084 3056 2656 
Q 3513 2228 3513 1497 
Q 3513 744 3044 326 
Q 2575 -91 1722 -91 
Q 1428 -91 1123 -41 
Q 819 9 494 109 
L 494 744 
Q 775 591 1075 516 
Q 1375 441 1709 441 
Q 2250 441 2565 725 
Q 2881 1009 2881 1497 
Q 2881 1984 2565 2268 
Q 2250 2553 1709 2553 
Q 1456 2553 1204 2497 
Q 953 2441 691 2322 
L 691 4666 
z
" transform="scale(0.015625)"/>
       </defs>
       <use xlink:href="#DejaVuSans-34"/>
       <use xlink:href="#DejaVuSans-2e" x="63.623047"/>
       <use xlink:href="#DejaVuSans-35" x="95.410156"/>
      </g>
     </g>
    </g>
    <g id="xtick_3">
     <g id="line2d_3">
      <g>
       <use xlink:href="#m04bc5223e7" x="88.701563" y="59.748" style="stroke: #000000; stroke-width: 1.2"/>
      </g>
     </g>
     <g id="text_3">
      <!-- 5.0 -->
      <g transform="translate(80.75 74.446438) scale(0.1 -0.1)">
       <use xlink:href="#DejaVuSans-35"/>
       <use xlink:href="#DejaVuSans-2e" x="63.623047"/>
       <use xlink:href="#DejaVuSans-30" x="95.410156"/>
      </g>
     </g>
    </g>
    <g id="xtick_4">
     <g id="line2d_4">
      <g>
       <use xlink:href="#m04bc5223e7" x="107.325" y="59.748" style="stroke: #000000; stroke-width: 1.2"/>
      </g>
     </g>
     <g id="text_4">
      <!-- 5.5 -->
      <g transform="translate(99.373438 74.446438) scale(0.1 -0.1)">
       <use xlink:href="#DejaVuSans-35"/>
       <use xlink:href="#DejaVuSans-2e" x="63.623047"/>
       <use xlink:href="#DejaVuSans-35" x="95.410156"/>
      </g>
     </g>
    </g>
    <g id="text_5">
     <!-- $G_\text{H}^{1}$ -->
     <g transform="translate(70.8775 89.526125) scale(0.1 -0.1)">
      <defs>
       <path id="DejaVuSans-Oblique-47" d="M 3494 697 
L 3738 1919 
L 2700 1919 
L 2797 2438 
L 4453 2438 
L 4050 384 
Q 3634 156 3143 32 
Q 2653 -91 2156 -91 
Q 1278 -91 783 396 
Q 288 884 288 1753 
Q 288 2475 589 3126 
Q 891 3778 1422 4213 
Q 1756 4484 2153 4617 
Q 2550 4750 3034 4750 
Q 3472 4750 3873 4639 
Q 4275 4528 4641 4306 
L 4513 3634 
Q 4231 3928 3853 4083 
Q 3475 4238 3047 4238 
Q 2550 4238 2172 4048 
Q 1794 3859 1497 3463 
Q 1244 3125 1098 2667 
Q 953 2209 953 1734 
Q 953 1081 1287 751 
Q 1622 422 2284 422 
Q 2616 422 2925 492 
Q 3234 563 3494 697 
z
" transform="scale(0.015625)"/>
       <path id="DejaVuSans-31" d="M 794 531 
L 1825 531 
L 1825 4091 
L 703 3866 
L 703 4441 
L 1819 4666 
L 2450 4666 
L 2450 531 
L 3481 531 
L 3481 0 
L 794 0 
L 794 531 
z
" transform="scale(0.015625)"/>
       <path id="DejaVuSans-48" d="M 628 4666 
L 1259 4666 
L 1259 2753 
L 3553 2753 
L 3553 4666 
L 4184 4666 
L 4184 0 
L 3553 0 
L 3553 2222 
L 1259 2222 
L 1259 0 
L 628 0 
L 628 4666 
z
" transform="scale(0.015625)"/>
      </defs>
      <use xlink:href="#DejaVuSans-Oblique-47" transform="translate(0 0.684375)"/>
      <use xlink:href="#DejaVuSans-31" transform="translate(84.690755 38.965625) scale(0.7)"/>
      <use xlink:href="#DejaVuSans-48" transform="translate(77.490234 -26.659375) scale(0.7)"/>
     </g>
    </g>
   </g>
   <g id="matplotlib.axis_2">
    <g id="ytick_1">
     <g id="line2d_5">
      <defs>
       <path id="mf6de8709d5" d="M 0 0 
L -3.6 0 
" style="stroke: #000000; stroke-width: 1.2"/>
      </defs>
      <g>
       <use xlink:href="#mf6de8709d5" x="47.73" y="59.748" style="stroke: #000000; stroke-width: 1.2"/>
      </g>
     </g>
     <g id="text_6">
      <!-- 0.0 -->
      <g transform="translate(24.726875 63.547219) scale(0.1 -0.1)">
       <use xlink:href="#DejaVuSans-30"/>
       <use xlink:href="#DejaVuSans-2e" x="63.623047"/>
       <use xlink:href="#DejaVuSans-30" x="95.410156"/>
      </g>
     </g>
    </g>
    <g id="ytick_2">
     <g id="line2d_6">
      <g>
       <use xlink:href="#mf6de8709d5" x="47.73" y="37.254" style="stroke: #000000; stroke-width: 1.2"/>
      </g>
     </g>
     <g id="text_7">
      <!-- 2.5 -->
      <g transform="translate(24.726875 41.053219) scale(0.1 -0.1)">
       <defs>
        <path id="DejaVuSans-32" d="M 1228 531 
L 3431 531 
L 3431 0 
L 469 0 
L 469 531 
Q 828 903 1448 1529 
Q 2069 2156 2228 2338 
Q 2531 2678 2651 2914 
Q 2772 3150 2772 3378 
Q 2772 3750 2511 3984 
Q 2250 4219 1831 4219 
Q 1534 4219 1204 4116 
Q 875 4013 500 3803 
L 500 4441 
Q 881 4594 1212 4672 
Q 1544 4750 1819 4750 
Q 2544 4750 2975 4387 
Q 3406 4025 3406 3419 
Q 3406 3131 3298 2873 
Q 3191 2616 2906 2266 
Q 2828 2175 2409 1742 
Q 1991 1309 1228 531 
z
" transform="scale(0.015625)"/>
       </defs>
       <use xlink:href="#DejaVuSans-32"/>
       <use xlink:href="#DejaVuSans-2e" x="63.623047"/>
       <use xlink:href="#DejaVuSans-35" x="95.410156"/>
      </g>
     </g>
    </g>
    <g id="ytick_3">
     <g id="line2d_7">
      <g>
       <use xlink:href="#mf6de8709d5" x="47.73" y="14.76" style="stroke: #000000; stroke-width: 1.2"/>
      </g>
     </g>
     <g id="text_8">
      <!-- 5.0 -->
      <g transform="translate(24.726875 18.559219) scale(0.1 -0.1)">
       <use xlink:href="#DejaVuSans-35"/>
       <use xlink:href="#DejaVuSans-2e" x="63.623047"/>
       <use xlink:href="#DejaVuSans-30" x="95.410156"/>
      </g>
     </g>
    </g>
    <g id="text_9">
     <!-- Density -->
     <g transform="translate(18.647187 56.262594) rotate(-90) scale(0.1 -0.1)">
      <defs>
       <path id="DejaVuSans-44" d="M 1259 4147 
L 1259 519 
L 2022 519 
Q 2988 519 3436 956 
Q 3884 1394 3884 2338 
Q 3884 3275 3436 3711 
Q 2988 4147 2022 4147 
L 1259 4147 
z
M 628 4666 
L 1925 4666 
Q 3281 4666 3915 4102 
Q 4550 3538 4550 2338 
Q 4550 1131 3912 565 
Q 3275 0 1925 0 
L 628 0 
L 628 4666 
z
" transform="scale(0.015625)"/>
       <path id="DejaVuSans-65" d="M 3597 1894 
L 3597 1613 
L 953 1613 
Q 991 1019 1311 708 
Q 1631 397 2203 397 
Q 2534 397 2845 478 
Q 3156 559 3463 722 
L 3463 178 
Q 3153 47 2828 -22 
Q 2503 -91 2169 -91 
Q 1331 -91 842 396 
Q 353 884 353 1716 
Q 353 2575 817 3079 
Q 1281 3584 2069 3584 
Q 2775 3584 3186 3129 
Q 3597 2675 3597 1894 
z
M 3022 2063 
Q 3016 2534 2758 2815 
Q 2500 3097 2075 3097 
Q 1594 3097 1305 2825 
Q 1016 2553 972 2059 
L 3022 2063 
z
" transform="scale(0.015625)"/>
       <path id="DejaVuSans-6e" d="M 3513 2113 
L 3513 0 
L 2938 0 
L 2938 2094 
Q 2938 2591 2744 2837 
Q 2550 3084 2163 3084 
Q 1697 3084 1428 2787 
Q 1159 2491 1159 1978 
L 1159 0 
L 581 0 
L 581 3500 
L 1159 3500 
L 1159 2956 
Q 1366 3272 1645 3428 
Q 1925 3584 2291 3584 
Q 2894 3584 3203 3211 
Q 3513 2838 3513 2113 
z
" transform="scale(0.015625)"/>
       <path id="DejaVuSans-73" d="M 2834 3397 
L 2834 2853 
Q 2591 2978 2328 3040 
Q 2066 3103 1784 3103 
Q 1356 3103 1142 2972 
Q 928 2841 928 2578 
Q 928 2378 1081 2264 
Q 1234 2150 1697 2047 
L 1894 2003 
Q 2506 1872 2764 1633 
Q 3022 1394 3022 966 
Q 3022 478 2636 193 
Q 2250 -91 1575 -91 
Q 1294 -91 989 -36 
Q 684 19 347 128 
L 347 722 
Q 666 556 975 473 
Q 1284 391 1588 391 
Q 1994 391 2212 530 
Q 2431 669 2431 922 
Q 2431 1156 2273 1281 
Q 2116 1406 1581 1522 
L 1381 1569 
Q 847 1681 609 1914 
Q 372 2147 372 2553 
Q 372 3047 722 3315 
Q 1072 3584 1716 3584 
Q 2034 3584 2315 3537 
Q 2597 3491 2834 3397 
z
" transform="scale(0.015625)"/>
       <path id="DejaVuSans-69" d="M 603 3500 
L 1178 3500 
L 1178 0 
L 603 0 
L 603 3500 
z
M 603 4863 
L 1178 4863 
L 1178 4134 
L 603 4134 
L 603 4863 
z
" transform="scale(0.015625)"/>
       <path id="DejaVuSans-74" d="M 1172 4494 
L 1172 3500 
L 2356 3500 
L 2356 3053 
L 1172 3053 
L 1172 1153 
Q 1172 725 1289 603 
Q 1406 481 1766 481 
L 2356 481 
L 2356 0 
L 1766 0 
Q 1100 0 847 248 
Q 594 497 594 1153 
L 594 3053 
L 172 3053 
L 172 3500 
L 594 3500 
L 594 4494 
L 1172 4494 
z
" transform="scale(0.015625)"/>
       <path id="DejaVuSans-79" d="M 2059 -325 
Q 1816 -950 1584 -1140 
Q 1353 -1331 966 -1331 
L 506 -1331 
L 506 -850 
L 844 -850 
Q 1081 -850 1212 -737 
Q 1344 -625 1503 -206 
L 1606 56 
L 191 3500 
L 800 3500 
L 1894 763 
L 2988 3500 
L 3597 3500 
L 2059 -325 
z
" transform="scale(0.015625)"/>
      </defs>
      <use xlink:href="#DejaVuSans-44"/>
      <use xlink:href="#DejaVuSans-65" x="77.001953"/>
      <use xlink:href="#DejaVuSans-6e" x="138.525391"/>
      <use xlink:href="#DejaVuSans-73" x="201.904297"/>
      <use xlink:href="#DejaVuSans-69" x="254.003906"/>
      <use xlink:href="#DejaVuSans-74" x="281.787109"/>
      <use xlink:href="#DejaVuSans-79" x="320.996094"/>
     </g>
    </g>
   </g>
   <g id="patch_63">
    <path d="M 47.73 59.748 
L 47.73 14.76 
" style="fill: none; stroke: #000000; stroke-width: 1.3; stroke-linejoin: miter; stroke-linecap: square"/>
   </g>
   <g id="patch_64">
    <path d="M 47.73 59.748 
L 107.325 59.748 
" style="fill: none; stroke: #000000; stroke-width: 1.3; stroke-linejoin: miter; stroke-linecap: square"/>
   </g>
  </g>
 </g>
 <defs>
  <clipPath id="p4b9afc211b">
   <rect x="47.73" y="14.76" width="59.595" height="44.988"/>
  </clipPath>
 </defs>
</svg>
