<?xml version="1.0" encoding="utf-8" standalone="no"?>
<!DOCTYPE svg PUBLIC "-//W3C//DTD SVG 1.1//EN"
  "http://www.w3.org/Graphics/SVG/1.1/DTD/svg11.dtd">
<svg xmlns:xlink="http://www.w3.org/1999/xlink" width="252pt" height="201.6pt" viewBox="0 0 252 201.6" xmlns="http://www.w3.org/2000/svg" version="1.1">
 <metadata>
  <rdf:RDF xmlns:dc="http://purl.org/dc/elements/1.1/" xmlns:cc="http://creativecommons.org/ns#" xmlns:rdf="http://www.w3.org/1999/02/22-rdf-syntax-ns#">
   <cc:Work>
    <dc:type rdf:resource="http://purl.org/dc/dcmitype/StillImage"/>
    <dc:date>2025-10-10T15:08:08.061384</dc:date>
    <dc:format>image/svg+xml</dc:format>
    <dc:creator>
     <cc:Agent>
      <dc:title>Matplotlib v3.10.5, https://matplotlib.org/</dc:title>
     </cc:Agent>
    </dc:creator>
   </cc:Work>
  </rdf:RDF>
 </metadata>
 <defs>
  <style type="text/css">*{stroke-linejoin: round; stroke-linecap: butt}</style>
 </defs>
 <g id="figure_1">
  <g id="patch_1">
   <path d="M 0 201.6 
L 252 201.6 
L 252 0 
L 0 0 
z
" style="fill: #ffffff"/>
  </g>
  <g id="axes_1">
   <g id="patch_2">
    <path d="M 38.55 166.02 
L 220.995 166.02 
L 220.995 38.43 
L 38.55 38.43 
z
" style="fill: #ffffff"/>
   </g>
   <g id="matplotlib.axis_1">
    <g id="xtick_1">
     <g id="line2d_1">
      <defs>
       <path id="mec100c9b5e" d="M 0 0 
L 0 -3 
" style="stroke: #000000; stroke-width: 1.5"/>
      </defs>
      <g>
       <use xlink:href="#mec100c9b5e" x="94.231266" y="166.02" style="stroke: #000000; stroke-width: 1.5"/>
      </g>
     </g>
     <g id="line2d_2">
      <defs>
       <path id="m3bd5c7defe" d="M 0 0 
L 0 3 
" style="stroke: #000000; stroke-width: 1.5"/>
      </defs>
      <g>
       <use xlink:href="#m3bd5c7defe" x="94.231266" y="38.43" style="stroke: #000000; stroke-width: 1.5"/>
      </g>
     </g>
     <g id="text_1">
      <!-- 100 -->
      <g transform="translate(85.892204 176.660625) scale(0.1 -0.1)">
       <defs>
        <path id="HelveticaNeue-31" d="M 2278 0 
L 2278 4538 
L 1862 4538 
Q 1818 4282 1696 4115 
Q 1574 3949 1398 3853 
Q 1222 3757 1004 3721 
Q 787 3686 557 3686 
L 557 3251 
L 1734 3251 
L 1734 0 
L 2278 0 
z
" transform="scale(0.015625)"/>
        <path id="HelveticaNeue-30" d="M 845 2234 
Q 845 2400 848 2601 
Q 851 2803 880 3004 
Q 909 3206 963 3398 
Q 1018 3590 1123 3734 
Q 1229 3878 1389 3968 
Q 1549 4058 1779 4058 
Q 2010 4058 2170 3968 
Q 2330 3878 2435 3734 
Q 2541 3590 2595 3398 
Q 2650 3206 2678 3004 
Q 2707 2803 2710 2601 
Q 2714 2400 2714 2234 
Q 2714 1978 2698 1661 
Q 2682 1344 2595 1065 
Q 2509 787 2317 595 
Q 2125 403 1779 403 
Q 1434 403 1242 595 
Q 1050 787 963 1065 
Q 877 1344 861 1661 
Q 845 1978 845 2234 
z
M 269 2227 
Q 269 1978 281 1709 
Q 294 1440 345 1184 
Q 397 928 493 701 
Q 589 474 755 301 
Q 922 128 1174 29 
Q 1427 -70 1779 -70 
Q 2138 -70 2387 29 
Q 2637 128 2803 301 
Q 2970 474 3066 701 
Q 3162 928 3213 1184 
Q 3264 1440 3277 1709 
Q 3290 1978 3290 2227 
Q 3290 2477 3277 2745 
Q 3264 3014 3213 3270 
Q 3162 3526 3066 3756 
Q 2970 3987 2803 4160 
Q 2637 4333 2384 4435 
Q 2131 4538 1779 4538 
Q 1427 4538 1174 4435 
Q 922 4333 755 4160 
Q 589 3987 493 3756 
Q 397 3526 345 3270 
Q 294 3014 281 2745 
Q 269 2477 269 2227 
z
" transform="scale(0.015625)"/>
       </defs>
       <use xlink:href="#HelveticaNeue-31"/>
       <use xlink:href="#HelveticaNeue-30" transform="translate(55.599991 0)"/>
       <use xlink:href="#HelveticaNeue-30" transform="translate(111.199982 0)"/>
      </g>
     </g>
    </g>
    <g id="xtick_2">
     <g id="line2d_3">
      <g>
       <use xlink:href="#mec100c9b5e" x="153.466656" y="166.02" style="stroke: #000000; stroke-width: 1.5"/>
      </g>
     </g>
     <g id="line2d_4">
      <g>
       <use xlink:href="#m3bd5c7defe" x="153.466656" y="38.43" style="stroke: #000000; stroke-width: 1.5"/>
      </g>
     </g>
     <g id="text_2">
      <!-- 150 -->
      <g transform="translate(145.127593 176.660625) scale(0.1 -0.1)">
       <defs>
        <path id="HelveticaNeue-35" d="M 3008 3981 
L 3008 4461 
L 768 4461 
L 346 2106 
L 813 2080 
Q 973 2272 1181 2390 
Q 1389 2509 1658 2509 
Q 1888 2509 2077 2432 
Q 2266 2355 2400 2217 
Q 2534 2080 2608 1891 
Q 2682 1702 2682 1478 
Q 2682 1210 2605 1008 
Q 2528 806 2397 672 
Q 2266 538 2090 470 
Q 1914 403 1722 403 
Q 1517 403 1347 464 
Q 1178 525 1053 637 
Q 928 749 854 899 
Q 781 1050 768 1222 
L 224 1222 
Q 230 915 345 672 
Q 461 429 659 265 
Q 858 102 1117 16 
Q 1376 -70 1670 -70 
Q 2067 -70 2364 54 
Q 2662 179 2860 390 
Q 3059 602 3158 874 
Q 3258 1146 3258 1434 
Q 3258 1824 3142 2115 
Q 3027 2406 2828 2601 
Q 2630 2797 2361 2893 
Q 2093 2989 1792 2989 
Q 1562 2989 1328 2909 
Q 1094 2829 947 2662 
L 934 2675 
L 1178 3981 
L 3008 3981 
z
" transform="scale(0.015625)"/>
       </defs>
       <use xlink:href="#HelveticaNeue-31"/>
       <use xlink:href="#HelveticaNeue-35" transform="translate(55.599991 0)"/>
       <use xlink:href="#HelveticaNeue-30" transform="translate(111.199982 0)"/>
      </g>
     </g>
    </g>
    <g id="xtick_3">
     <g id="line2d_5">
      <g>
       <use xlink:href="#mec100c9b5e" x="212.702045" y="166.02" style="stroke: #000000; stroke-width: 1.5"/>
      </g>
     </g>
     <g id="line2d_6">
      <g>
       <use xlink:href="#m3bd5c7defe" x="212.702045" y="38.43" style="stroke: #000000; stroke-width: 1.5"/>
      </g>
     </g>
     <g id="text_3">
      <!-- 200 -->
      <g transform="translate(204.362983 176.660625) scale(0.1 -0.1)">
       <defs>
        <path id="HelveticaNeue-32" d="M 282 2931 
L 826 2931 
Q 819 3136 867 3337 
Q 915 3539 1024 3699 
Q 1133 3859 1302 3958 
Q 1472 4058 1709 4058 
Q 1888 4058 2048 4000 
Q 2208 3942 2326 3833 
Q 2445 3725 2515 3574 
Q 2586 3424 2586 3238 
Q 2586 3002 2512 2822 
Q 2438 2643 2294 2489 
Q 2150 2336 1932 2185 
Q 1715 2035 1427 1856 
Q 1190 1715 972 1555 
Q 755 1395 582 1184 
Q 410 973 298 688 
Q 186 403 154 0 
L 3117 0 
L 3117 480 
L 787 480 
Q 826 691 950 854 
Q 1075 1018 1251 1158 
Q 1427 1299 1638 1424 
Q 1850 1549 2061 1677 
Q 2272 1811 2470 1958 
Q 2669 2106 2822 2288 
Q 2976 2470 3069 2700 
Q 3162 2931 3162 3232 
Q 3162 3552 3050 3795 
Q 2938 4038 2746 4201 
Q 2554 4365 2294 4451 
Q 2035 4538 1741 4538 
Q 1382 4538 1100 4416 
Q 819 4294 630 4080 
Q 442 3866 352 3571 
Q 262 3277 282 2931 
z
" transform="scale(0.015625)"/>
       </defs>
       <use xlink:href="#HelveticaNeue-32"/>
       <use xlink:href="#HelveticaNeue-30" transform="translate(55.599991 0)"/>
       <use xlink:href="#HelveticaNeue-30" transform="translate(111.199982 0)"/>
      </g>
     </g>
    </g>
    <g id="text_4">
     <!-- Temperature [K] -->
     <g transform="translate(94.575625 189.940312) scale(0.1 -0.1)">
      <defs>
       <path id="HelveticaNeue-54" d="M 1536 4058 
L 1536 0 
L 2144 0 
L 2144 4058 
L 3667 4058 
L 3667 4570 
L 13 4570 
L 13 4058 
L 1536 4058 
z
" transform="scale(0.015625)"/>
       <path id="HelveticaNeue-65" d="M 2707 1971 
L 806 1971 
Q 819 2163 889 2332 
Q 960 2502 1081 2630 
Q 1203 2758 1372 2832 
Q 1542 2906 1754 2906 
Q 1958 2906 2128 2832 
Q 2298 2758 2422 2633 
Q 2547 2509 2620 2336 
Q 2694 2163 2707 1971 
z
M 3232 1050 
L 2694 1050 
Q 2624 723 2403 563 
Q 2182 403 1837 403 
Q 1568 403 1369 492 
Q 1171 582 1043 732 
Q 915 883 857 1078 
Q 800 1274 806 1491 
L 3283 1491 
Q 3296 1792 3229 2125 
Q 3162 2458 2986 2739 
Q 2810 3021 2518 3203 
Q 2227 3386 1786 3386 
Q 1446 3386 1161 3258 
Q 877 3130 669 2899 
Q 461 2669 345 2355 
Q 230 2042 230 1664 
Q 243 1286 342 966 
Q 442 646 640 416 
Q 838 186 1129 58 
Q 1421 -70 1818 -70 
Q 2381 -70 2752 211 
Q 3123 493 3232 1050 
z
" transform="scale(0.015625)"/>
       <path id="HelveticaNeue-6d" d="M 410 3309 
L 410 0 
L 954 0 
L 954 2061 
Q 954 2157 1002 2301 
Q 1050 2445 1155 2579 
Q 1261 2714 1430 2810 
Q 1600 2906 1837 2906 
Q 2022 2906 2140 2851 
Q 2259 2797 2329 2697 
Q 2400 2598 2429 2464 
Q 2458 2330 2458 2170 
L 2458 0 
L 3002 0 
L 3002 2061 
Q 3002 2445 3232 2675 
Q 3462 2906 3866 2906 
Q 4064 2906 4189 2848 
Q 4314 2790 4384 2691 
Q 4454 2592 4480 2457 
Q 4506 2323 4506 2170 
L 4506 0 
L 5050 0 
L 5050 2426 
Q 5050 2682 4970 2864 
Q 4890 3046 4746 3161 
Q 4602 3277 4400 3331 
Q 4198 3386 3949 3386 
Q 3622 3386 3350 3238 
Q 3078 3091 2912 2822 
Q 2810 3130 2560 3258 
Q 2310 3386 2003 3386 
Q 1306 3386 934 2822 
L 922 2822 
L 922 3309 
L 410 3309 
z
" transform="scale(0.015625)"/>
       <path id="HelveticaNeue-70" d="M 429 3309 
L 429 -1261 
L 973 -1261 
L 973 442 
L 986 442 
Q 1075 294 1206 195 
Q 1338 96 1485 38 
Q 1632 -19 1782 -44 
Q 1933 -70 2054 -70 
Q 2432 -70 2717 64 
Q 3002 198 3190 432 
Q 3379 666 3472 979 
Q 3565 1293 3565 1645 
Q 3565 1997 3469 2310 
Q 3373 2624 3184 2864 
Q 2995 3104 2710 3245 
Q 2426 3386 2042 3386 
Q 1696 3386 1408 3261 
Q 1120 3136 986 2861 
L 973 2861 
L 973 3309 
L 429 3309 
z
M 2989 1683 
Q 2989 1440 2937 1209 
Q 2886 979 2771 800 
Q 2656 621 2467 512 
Q 2278 403 1997 403 
Q 1715 403 1516 508 
Q 1318 614 1193 787 
Q 1069 960 1011 1187 
Q 954 1414 954 1658 
Q 954 1888 1008 2112 
Q 1062 2336 1184 2512 
Q 1306 2688 1498 2797 
Q 1690 2906 1965 2906 
Q 2227 2906 2422 2803 
Q 2618 2701 2742 2528 
Q 2867 2355 2928 2134 
Q 2989 1914 2989 1683 
z
" transform="scale(0.015625)"/>
       <path id="HelveticaNeue-72" d="M 390 3309 
L 390 0 
L 934 0 
L 934 1472 
Q 934 1792 998 2038 
Q 1062 2285 1203 2457 
Q 1344 2630 1574 2720 
Q 1805 2810 2131 2810 
L 2131 3386 
Q 1690 3398 1402 3206 
Q 1114 3014 915 2611 
L 902 2611 
L 902 3309 
L 390 3309 
z
" transform="scale(0.015625)"/>
       <path id="HelveticaNeue-61" d="M 3341 13 
Q 3200 -70 2950 -70 
Q 2739 -70 2614 48 
Q 2490 166 2490 435 
Q 2266 166 1968 48 
Q 1670 -70 1325 -70 
Q 1101 -70 899 -19 
Q 698 32 550 141 
Q 403 250 316 426 
Q 230 602 230 851 
Q 230 1133 326 1312 
Q 422 1491 579 1603 
Q 736 1715 937 1772 
Q 1139 1830 1350 1869 
Q 1574 1914 1776 1936 
Q 1978 1958 2131 2000 
Q 2285 2042 2374 2122 
Q 2464 2202 2464 2355 
Q 2464 2534 2397 2643 
Q 2330 2752 2224 2809 
Q 2118 2867 1987 2886 
Q 1856 2906 1728 2906 
Q 1382 2906 1152 2774 
Q 922 2643 902 2278 
L 358 2278 
Q 371 2586 486 2797 
Q 602 3008 794 3139 
Q 986 3270 1232 3328 
Q 1478 3386 1760 3386 
Q 1984 3386 2205 3354 
Q 2426 3322 2605 3222 
Q 2784 3123 2893 2944 
Q 3002 2765 3002 2477 
L 3002 774 
Q 3002 582 3024 492 
Q 3046 403 3174 403 
Q 3245 403 3341 435 
L 3341 13 
z
M 2458 1709 
Q 2355 1632 2188 1597 
Q 2022 1562 1840 1539 
Q 1658 1517 1472 1488 
Q 1286 1459 1139 1395 
Q 992 1331 899 1212 
Q 806 1094 806 890 
Q 806 755 860 662 
Q 915 570 1001 512 
Q 1088 454 1203 428 
Q 1318 403 1446 403 
Q 1715 403 1907 476 
Q 2099 550 2220 662 
Q 2342 774 2400 905 
Q 2458 1037 2458 1152 
L 2458 1709 
z
" transform="scale(0.015625)"/>
       <path id="HelveticaNeue-74" d="M 1165 3309 
L 1165 4301 
L 621 4301 
L 621 3309 
L 58 3309 
L 58 2829 
L 621 2829 
L 621 723 
Q 621 493 665 352 
Q 710 211 803 134 
Q 896 58 1046 29 
Q 1197 0 1408 0 
L 1824 0 
L 1824 480 
L 1574 480 
Q 1446 480 1366 489 
Q 1286 499 1241 531 
Q 1197 563 1181 620 
Q 1165 678 1165 774 
L 1165 2829 
L 1824 2829 
L 1824 3309 
L 1165 3309 
z
" transform="scale(0.015625)"/>
       <path id="HelveticaNeue-75" d="M 3149 0 
L 3149 3309 
L 2605 3309 
L 2605 1440 
Q 2605 1216 2544 1027 
Q 2483 838 2361 697 
Q 2240 557 2057 480 
Q 1875 403 1626 403 
Q 1312 403 1133 582 
Q 954 762 954 1069 
L 954 3309 
L 410 3309 
L 410 1133 
Q 410 864 464 643 
Q 518 422 652 262 
Q 787 102 1004 16 
Q 1222 -70 1549 -70 
Q 1914 -70 2182 74 
Q 2451 218 2624 525 
L 2637 525 
L 2637 0 
L 3149 0 
z
" transform="scale(0.015625)"/>
       <path id="HelveticaNeue-20" transform="scale(0.015625)"/>
       <path id="HelveticaNeue-5b" d="M 1658 4243 
L 1658 4678 
L 461 4678 
L 461 -1261 
L 1658 -1261 
L 1658 -826 
L 973 -826 
L 973 4243 
L 1658 4243 
z
" transform="scale(0.015625)"/>
       <path id="HelveticaNeue-4b" d="M 499 4570 
L 499 0 
L 1107 0 
L 1107 1600 
L 1869 2310 
L 3520 0 
L 4288 0 
L 2285 2726 
L 4211 4570 
L 3424 4570 
L 1107 2291 
L 1107 4570 
L 499 4570 
z
" transform="scale(0.015625)"/>
       <path id="HelveticaNeue-5d" d="M 0 -826 
L 0 -1261 
L 1197 -1261 
L 1197 4678 
L 0 4678 
L 0 4243 
L 685 4243 
L 685 -826 
L 0 -826 
z
" transform="scale(0.015625)"/>
      </defs>
      <use xlink:href="#HelveticaNeue-54"/>
      <use xlink:href="#HelveticaNeue-65" transform="translate(46.274994 0)"/>
      <use xlink:href="#HelveticaNeue-6d" transform="translate(99.974991 0)"/>
      <use xlink:href="#HelveticaNeue-70" transform="translate(185.274979 0)"/>
      <use xlink:href="#HelveticaNeue-65" transform="translate(244.574966 0)"/>
      <use xlink:href="#HelveticaNeue-72" transform="translate(298.274963 0)"/>
      <use xlink:href="#HelveticaNeue-61" transform="translate(331.574951 0)"/>
      <use xlink:href="#HelveticaNeue-74" transform="translate(385.274948 0)"/>
      <use xlink:href="#HelveticaNeue-75" transform="translate(416.774933 0)"/>
      <use xlink:href="#HelveticaNeue-72" transform="translate(472.374924 0)"/>
      <use xlink:href="#HelveticaNeue-65" transform="translate(503.924911 0)"/>
      <use xlink:href="#HelveticaNeue-20" transform="translate(557.624908 0)"/>
      <use xlink:href="#HelveticaNeue-5b" transform="translate(585.424896 0)"/>
      <use xlink:href="#HelveticaNeue-4b" transform="translate(611.32489 0)"/>
      <use xlink:href="#HelveticaNeue-5d" transform="translate(678.024887 0)"/>
     </g>
    </g>
   </g>
   <g id="matplotlib.axis_2">
    <g id="ytick_1">
     <g id="line2d_7">
      <defs>
       <path id="m814e178fb4" d="M 0 0 
L 3 0 
" style="stroke: #000000; stroke-width: 1.5"/>
      </defs>
      <g>
       <use xlink:href="#m814e178fb4" x="38.55" y="163.692992" style="stroke: #000000; stroke-width: 1.5"/>
      </g>
     </g>
     <g id="line2d_8">
      <defs>
       <path id="mc8930b3a4e" d="M 0 0 
L -3 0 
" style="stroke: #000000; stroke-width: 1.5"/>
      </defs>
      <g>
       <use xlink:href="#mc8930b3a4e" x="220.995" y="163.692992" style="stroke: #000000; stroke-width: 1.5"/>
      </g>
     </g>
     <g id="text_5">
      <!-- −5 -->
      <g transform="translate(23.490625 167.263305) scale(0.1 -0.1)">
       <defs>
        <path id="HelveticaNeue-2212" d="M 307 1837 
L 307 1402 
L 3533 1402 
L 3533 1837 
L 307 1837 
z
" transform="scale(0.015625)"/>
       </defs>
       <use xlink:href="#HelveticaNeue-2212"/>
       <use xlink:href="#HelveticaNeue-35" transform="translate(59.999985 0)"/>
      </g>
     </g>
    </g>
    <g id="ytick_2">
     <g id="line2d_9">
      <g>
       <use xlink:href="#m814e178fb4" x="38.55" y="140.613263" style="stroke: #000000; stroke-width: 1.5"/>
      </g>
     </g>
     <g id="line2d_10">
      <g>
       <use xlink:href="#mc8930b3a4e" x="220.995" y="140.613263" style="stroke: #000000; stroke-width: 1.5"/>
      </g>
     </g>
     <g id="text_6">
      <!-- 0 -->
      <g transform="translate(29.490625 144.183576) scale(0.1 -0.1)">
       <use xlink:href="#HelveticaNeue-30"/>
      </g>
     </g>
    </g>
    <g id="ytick_3">
     <g id="line2d_11">
      <g>
       <use xlink:href="#m814e178fb4" x="38.55" y="117.533534" style="stroke: #000000; stroke-width: 1.5"/>
      </g>
     </g>
     <g id="line2d_12">
      <g>
       <use xlink:href="#mc8930b3a4e" x="220.995" y="117.533534" style="stroke: #000000; stroke-width: 1.5"/>
      </g>
     </g>
     <g id="text_7">
      <!-- 5 -->
      <g transform="translate(29.490625 121.103847) scale(0.1 -0.1)">
       <use xlink:href="#HelveticaNeue-35"/>
      </g>
     </g>
    </g>
    <g id="ytick_4">
     <g id="line2d_13">
      <g>
       <use xlink:href="#m814e178fb4" x="38.55" y="94.453805" style="stroke: #000000; stroke-width: 1.5"/>
      </g>
     </g>
     <g id="line2d_14">
      <g>
       <use xlink:href="#mc8930b3a4e" x="220.995" y="94.453805" style="stroke: #000000; stroke-width: 1.5"/>
      </g>
     </g>
     <g id="text_8">
      <!-- 10 -->
      <g transform="translate(23.93125 98.024118) scale(0.1 -0.1)">
       <use xlink:href="#HelveticaNeue-31"/>
       <use xlink:href="#HelveticaNeue-30" transform="translate(55.599991 0)"/>
      </g>
     </g>
    </g>
    <g id="ytick_5">
     <g id="line2d_15">
      <g>
       <use xlink:href="#m814e178fb4" x="38.55" y="71.374076" style="stroke: #000000; stroke-width: 1.5"/>
      </g>
     </g>
     <g id="line2d_16">
      <g>
       <use xlink:href="#mc8930b3a4e" x="220.995" y="71.374076" style="stroke: #000000; stroke-width: 1.5"/>
      </g>
     </g>
     <g id="text_9">
      <!-- 15 -->
      <g transform="translate(23.93125 74.944389) scale(0.1 -0.1)">
       <use xlink:href="#HelveticaNeue-31"/>
       <use xlink:href="#HelveticaNeue-35" transform="translate(55.599991 0)"/>
      </g>
     </g>
    </g>
    <g id="ytick_6">
     <g id="line2d_17">
      <g>
       <use xlink:href="#m814e178fb4" x="38.55" y="48.294347" style="stroke: #000000; stroke-width: 1.5"/>
      </g>
     </g>
     <g id="line2d_18">
      <g>
       <use xlink:href="#mc8930b3a4e" x="220.995" y="48.294347" style="stroke: #000000; stroke-width: 1.5"/>
      </g>
     </g>
     <g id="text_10">
      <!-- 20 -->
      <g transform="translate(23.93125 51.86466) scale(0.1 -0.1)">
       <use xlink:href="#HelveticaNeue-32"/>
       <use xlink:href="#HelveticaNeue-30" transform="translate(55.599991 0)"/>
      </g>
     </g>
    </g>
    <g id="text_11">
     <!-- Pressure [kbar] -->
     <g transform="translate(17.520313 135.660156) rotate(-90) scale(0.1 -0.1)">
      <defs>
       <path id="HelveticaNeue-50" d="M 1107 2381 
L 1107 4058 
L 2298 4058 
Q 2816 4058 3056 3843 
Q 3296 3629 3296 3219 
Q 3296 2810 3056 2592 
Q 2816 2374 2298 2381 
L 1107 2381 
z
M 499 4570 
L 499 0 
L 1107 0 
L 1107 1869 
L 2502 1869 
Q 3194 1862 3549 2220 
Q 3904 2579 3904 3219 
Q 3904 3859 3549 4214 
Q 3194 4570 2502 4570 
L 499 4570 
z
" transform="scale(0.015625)"/>
       <path id="HelveticaNeue-73" d="M 742 1043 
L 198 1043 
Q 211 736 326 521 
Q 442 307 634 176 
Q 826 45 1075 -12 
Q 1325 -70 1600 -70 
Q 1850 -70 2102 -22 
Q 2355 26 2556 147 
Q 2758 269 2883 467 
Q 3008 666 3008 966 
Q 3008 1203 2915 1363 
Q 2822 1523 2672 1628 
Q 2522 1734 2326 1798 
Q 2131 1862 1926 1907 
Q 1734 1952 1542 1993 
Q 1350 2035 1196 2096 
Q 1043 2157 944 2249 
Q 845 2342 845 2483 
Q 845 2611 909 2691 
Q 973 2771 1075 2819 
Q 1178 2867 1302 2886 
Q 1427 2906 1549 2906 
Q 1683 2906 1814 2877 
Q 1946 2848 2054 2784 
Q 2163 2720 2233 2614 
Q 2304 2509 2317 2349 
L 2861 2349 
Q 2842 2650 2733 2851 
Q 2624 3053 2441 3171 
Q 2259 3290 2022 3338 
Q 1786 3386 1504 3386 
Q 1286 3386 1065 3331 
Q 845 3277 669 3165 
Q 493 3053 381 2873 
Q 269 2694 269 2445 
Q 269 2125 429 1945 
Q 589 1766 829 1667 
Q 1069 1568 1350 1513 
Q 1632 1459 1872 1392 
Q 2112 1325 2272 1216 
Q 2432 1107 2432 896 
Q 2432 742 2355 643 
Q 2278 544 2160 493 
Q 2042 442 1901 422 
Q 1760 403 1632 403 
Q 1466 403 1309 435 
Q 1152 467 1027 540 
Q 902 614 825 739 
Q 749 864 742 1043 
z
" transform="scale(0.015625)"/>
       <path id="HelveticaNeue-6b" d="M 442 4570 
L 442 0 
L 986 0 
L 986 1254 
L 1498 1728 
L 2630 0 
L 3322 0 
L 1914 2106 
L 3226 3309 
L 2496 3309 
L 986 1862 
L 986 4570 
L 442 4570 
z
" transform="scale(0.015625)"/>
       <path id="HelveticaNeue-62" d="M 429 4570 
L 429 0 
L 973 0 
L 973 442 
L 986 442 
Q 1075 294 1206 195 
Q 1338 96 1485 38 
Q 1632 -19 1782 -44 
Q 1933 -70 2054 -70 
Q 2432 -70 2717 64 
Q 3002 198 3190 432 
Q 3379 666 3472 979 
Q 3565 1293 3565 1645 
Q 3565 1997 3469 2310 
Q 3373 2624 3184 2864 
Q 2995 3104 2710 3245 
Q 2426 3386 2042 3386 
Q 1696 3386 1408 3261 
Q 1120 3136 986 2861 
L 973 2861 
L 973 4570 
L 429 4570 
z
M 2989 1683 
Q 2989 1440 2937 1209 
Q 2886 979 2771 800 
Q 2656 621 2467 512 
Q 2278 403 1997 403 
Q 1715 403 1516 508 
Q 1318 614 1193 787 
Q 1069 960 1011 1187 
Q 954 1414 954 1658 
Q 954 1888 1008 2112 
Q 1062 2336 1184 2512 
Q 1306 2688 1498 2797 
Q 1690 2906 1965 2906 
Q 2227 2906 2422 2803 
Q 2618 2701 2742 2528 
Q 2867 2355 2928 2134 
Q 2989 1914 2989 1683 
z
" transform="scale(0.015625)"/>
      </defs>
      <use xlink:href="#HelveticaNeue-50"/>
      <use xlink:href="#HelveticaNeue-72" transform="translate(64.799988 0)"/>
      <use xlink:href="#HelveticaNeue-65" transform="translate(96.349976 0)"/>
      <use xlink:href="#HelveticaNeue-73" transform="translate(150.049973 0)"/>
      <use xlink:href="#HelveticaNeue-73" transform="translate(200.049957 0)"/>
      <use xlink:href="#HelveticaNeue-75" transform="translate(250.049942 0)"/>
      <use xlink:href="#HelveticaNeue-72" transform="translate(305.649933 0)"/>
      <use xlink:href="#HelveticaNeue-65" transform="translate(337.199921 0)"/>
      <use xlink:href="#HelveticaNeue-20" transform="translate(390.899918 0)"/>
      <use xlink:href="#HelveticaNeue-5b" transform="translate(418.699905 0)"/>
      <use xlink:href="#HelveticaNeue-6b" transform="translate(444.599899 0)"/>
      <use xlink:href="#HelveticaNeue-62" transform="translate(496.499893 0)"/>
      <use xlink:href="#HelveticaNeue-61" transform="translate(555.799881 0)"/>
      <use xlink:href="#HelveticaNeue-72" transform="translate(609.499878 0)"/>
      <use xlink:href="#HelveticaNeue-5d" transform="translate(642.799866 0)"/>
     </g>
    </g>
   </g>
   <g id="LineCollection_1">
    <path d="M 46.842955 48.36174 
L 46.842955 44.229545 
" clip-path="url(#pe37f0000f1)" style="fill: none; stroke: #01ce90"/>
    <path d="M 70.53711 54.722513 
L 70.53711 53.332191 
" clip-path="url(#pe37f0000f1)" style="fill: none; stroke: #01ce90"/>
    <path d="M 94.231266 62.534817 
L 94.231266 60.507863 
" clip-path="url(#pe37f0000f1)" style="fill: none; stroke: #01ce90"/>
    <path d="M 117.925422 67.599294 
L 117.925422 66.637054 
" clip-path="url(#pe37f0000f1)" style="fill: none; stroke: #01ce90"/>
    <path d="M 141.619578 76.38307 
L 141.619578 73.455175 
" clip-path="url(#pe37f0000f1)" style="fill: none; stroke: #01ce90"/>
    <path d="M 165.313734 83.637813 
L 165.313734 80.814516 
" clip-path="url(#pe37f0000f1)" style="fill: none; stroke: #01ce90"/>
    <path d="M 189.00789 88.948459 
L 189.00789 85.9913 
" clip-path="url(#pe37f0000f1)" style="fill: none; stroke: #01ce90"/>
    <path d="M 212.702045 94.746225 
L 212.702045 93.468993 
" clip-path="url(#pe37f0000f1)" style="fill: none; stroke: #01ce90"/>
   </g>
   <g id="line2d_19">
    <defs>
     <path id="ma4a96062c3" d="M 2 0 
L -2 -0 
" style="stroke: #01ce90; stroke-width: 0.8"/>
    </defs>
    <g clip-path="url(#pe37f0000f1)">
     <use xlink:href="#ma4a96062c3" x="46.842955" y="48.36174" style="fill: #01ce90; stroke: #01ce90; stroke-width: 0.8"/>
     <use xlink:href="#ma4a96062c3" x="70.53711" y="54.722513" style="fill: #01ce90; stroke: #01ce90; stroke-width: 0.8"/>
     <use xlink:href="#ma4a96062c3" x="94.231266" y="62.534817" style="fill: #01ce90; stroke: #01ce90; stroke-width: 0.8"/>
     <use xlink:href="#ma4a96062c3" x="117.925422" y="67.599294" style="fill: #01ce90; stroke: #01ce90; stroke-width: 0.8"/>
     <use xlink:href="#ma4a96062c3" x="141.619578" y="76.38307" style="fill: #01ce90; stroke: #01ce90; stroke-width: 0.8"/>
     <use xlink:href="#ma4a96062c3" x="165.313734" y="83.637813" style="fill: #01ce90; stroke: #01ce90; stroke-width: 0.8"/>
     <use xlink:href="#ma4a96062c3" x="189.00789" y="88.948459" style="fill: #01ce90; stroke: #01ce90; stroke-width: 0.8"/>
     <use xlink:href="#ma4a96062c3" x="212.702045" y="94.746225" style="fill: #01ce90; stroke: #01ce90; stroke-width: 0.8"/>
    </g>
   </g>
   <g id="line2d_20">
    <g clip-path="url(#pe37f0000f1)">
     <use xlink:href="#ma4a96062c3" x="46.842955" y="44.229545" style="fill: #01ce90; stroke: #01ce90; stroke-width: 0.8"/>
     <use xlink:href="#ma4a96062c3" x="70.53711" y="53.332191" style="fill: #01ce90; stroke: #01ce90; stroke-width: 0.8"/>
     <use xlink:href="#ma4a96062c3" x="94.231266" y="60.507863" style="fill: #01ce90; stroke: #01ce90; stroke-width: 0.8"/>
     <use xlink:href="#ma4a96062c3" x="117.925422" y="66.637054" style="fill: #01ce90; stroke: #01ce90; stroke-width: 0.8"/>
     <use xlink:href="#ma4a96062c3" x="141.619578" y="73.455175" style="fill: #01ce90; stroke: #01ce90; stroke-width: 0.8"/>
     <use xlink:href="#ma4a96062c3" x="165.313734" y="80.814516" style="fill: #01ce90; stroke: #01ce90; stroke-width: 0.8"/>
     <use xlink:href="#ma4a96062c3" x="189.00789" y="85.9913" style="fill: #01ce90; stroke: #01ce90; stroke-width: 0.8"/>
     <use xlink:href="#ma4a96062c3" x="212.702045" y="93.468993" style="fill: #01ce90; stroke: #01ce90; stroke-width: 0.8"/>
    </g>
   </g>
   <g id="LineCollection_2">
    <path d="M 165.313734 83.840811 
L 165.313734 80.810005 
" clip-path="url(#pe37f0000f1)" style="fill: none; stroke: #ca9fff"/>
    <path d="M 117.925422 69.127421 
L 117.925422 66.927611 
" clip-path="url(#pe37f0000f1)" style="fill: none; stroke: #ca9fff"/>
    <path d="M 70.53711 54.87275 
L 70.53711 53.371207 
" clip-path="url(#pe37f0000f1)" style="fill: none; stroke: #ca9fff"/>
    <path d="M 212.702045 95.852321 
L 212.702045 92.893731 
" clip-path="url(#pe37f0000f1)" style="fill: none; stroke: #ca9fff"/>
    <path d="M 94.231266 62.511162 
L 94.231266 60.503822 
" clip-path="url(#pe37f0000f1)" style="fill: none; stroke: #ca9fff"/>
    <path d="M 189.00789 89.097484 
L 189.00789 86.446964 
" clip-path="url(#pe37f0000f1)" style="fill: none; stroke: #ca9fff"/>
    <path d="M 46.842955 47.829747 
L 46.842955 46.104779 
" clip-path="url(#pe37f0000f1)" style="fill: none; stroke: #ca9fff"/>
    <path d="M 141.619578 76.593827 
L 141.619578 73.747556 
" clip-path="url(#pe37f0000f1)" style="fill: none; stroke: #ca9fff"/>
   </g>
   <g id="line2d_21">
    <defs>
     <path id="m1bf4dafb5c" d="M 2 0 
L -2 -0 
" style="stroke: #ca9fff; stroke-width: 0.8"/>
    </defs>
    <g clip-path="url(#pe37f0000f1)">
     <use xlink:href="#m1bf4dafb5c" x="165.313734" y="83.840811" style="fill: #ca9fff; stroke: #ca9fff; stroke-width: 0.8"/>
     <use xlink:href="#m1bf4dafb5c" x="117.925422" y="69.127421" style="fill: #ca9fff; stroke: #ca9fff; stroke-width: 0.8"/>
     <use xlink:href="#m1bf4dafb5c" x="70.53711" y="54.87275" style="fill: #ca9fff; stroke: #ca9fff; stroke-width: 0.8"/>
     <use xlink:href="#m1bf4dafb5c" x="212.702045" y="95.852321" style="fill: #ca9fff; stroke: #ca9fff; stroke-width: 0.8"/>
     <use xlink:href="#m1bf4dafb5c" x="94.231266" y="62.511162" style="fill: #ca9fff; stroke: #ca9fff; stroke-width: 0.8"/>
     <use xlink:href="#m1bf4dafb5c" x="189.00789" y="89.097484" style="fill: #ca9fff; stroke: #ca9fff; stroke-width: 0.8"/>
     <use xlink:href="#m1bf4dafb5c" x="46.842955" y="47.829747" style="fill: #ca9fff; stroke: #ca9fff; stroke-width: 0.8"/>
     <use xlink:href="#m1bf4dafb5c" x="141.619578" y="76.593827" style="fill: #ca9fff; stroke: #ca9fff; stroke-width: 0.8"/>
    </g>
   </g>
   <g id="line2d_22">
    <g clip-path="url(#pe37f0000f1)">
     <use xlink:href="#m1bf4dafb5c" x="165.313734" y="80.810005" style="fill: #ca9fff; stroke: #ca9fff; stroke-width: 0.8"/>
     <use xlink:href="#m1bf4dafb5c" x="117.925422" y="66.927611" style="fill: #ca9fff; stroke: #ca9fff; stroke-width: 0.8"/>
     <use xlink:href="#m1bf4dafb5c" x="70.53711" y="53.371207" style="fill: #ca9fff; stroke: #ca9fff; stroke-width: 0.8"/>
     <use xlink:href="#m1bf4dafb5c" x="212.702045" y="92.893731" style="fill: #ca9fff; stroke: #ca9fff; stroke-width: 0.8"/>
     <use xlink:href="#m1bf4dafb5c" x="94.231266" y="60.503822" style="fill: #ca9fff; stroke: #ca9fff; stroke-width: 0.8"/>
     <use xlink:href="#m1bf4dafb5c" x="189.00789" y="86.446964" style="fill: #ca9fff; stroke: #ca9fff; stroke-width: 0.8"/>
     <use xlink:href="#m1bf4dafb5c" x="46.842955" y="46.104779" style="fill: #ca9fff; stroke: #ca9fff; stroke-width: 0.8"/>
     <use xlink:href="#m1bf4dafb5c" x="141.619578" y="73.747556" style="fill: #ca9fff; stroke: #ca9fff; stroke-width: 0.8"/>
    </g>
   </g>
   <g id="LineCollection_3">
    <path d="M 46.842955 80.44321 
L 46.842955 78.663855 
" clip-path="url(#pe37f0000f1)" style="fill: none; stroke: #01ce90"/>
    <path d="M 70.53711 90.893342 
L 70.53711 88.93932 
" clip-path="url(#pe37f0000f1)" style="fill: none; stroke: #01ce90"/>
    <path d="M 94.231266 94.600038 
L 94.231266 90.808685 
" clip-path="url(#pe37f0000f1)" style="fill: none; stroke: #01ce90"/>
    <path d="M 117.925422 100.789514 
L 117.925422 99.297917 
" clip-path="url(#pe37f0000f1)" style="fill: none; stroke: #01ce90"/>
    <path d="M 141.619578 103.156294 
L 141.619578 102.46104 
" clip-path="url(#pe37f0000f1)" style="fill: none; stroke: #01ce90"/>
   </g>
   <g id="line2d_23">
    <g clip-path="url(#pe37f0000f1)">
     <use xlink:href="#ma4a96062c3" x="46.842955" y="80.44321" style="fill: #01ce90; stroke: #01ce90; stroke-width: 0.8"/>
     <use xlink:href="#ma4a96062c3" x="70.53711" y="90.893342" style="fill: #01ce90; stroke: #01ce90; stroke-width: 0.8"/>
     <use xlink:href="#ma4a96062c3" x="94.231266" y="94.600038" style="fill: #01ce90; stroke: #01ce90; stroke-width: 0.8"/>
     <use xlink:href="#ma4a96062c3" x="117.925422" y="100.789514" style="fill: #01ce90; stroke: #01ce90; stroke-width: 0.8"/>
     <use xlink:href="#ma4a96062c3" x="141.619578" y="103.156294" style="fill: #01ce90; stroke: #01ce90; stroke-width: 0.8"/>
    </g>
   </g>
   <g id="line2d_24">
    <g clip-path="url(#pe37f0000f1)">
     <use xlink:href="#ma4a96062c3" x="46.842955" y="78.663855" style="fill: #01ce90; stroke: #01ce90; stroke-width: 0.8"/>
     <use xlink:href="#ma4a96062c3" x="70.53711" y="88.93932" style="fill: #01ce90; stroke: #01ce90; stroke-width: 0.8"/>
     <use xlink:href="#ma4a96062c3" x="94.231266" y="90.808685" style="fill: #01ce90; stroke: #01ce90; stroke-width: 0.8"/>
     <use xlink:href="#ma4a96062c3" x="117.925422" y="99.297917" style="fill: #01ce90; stroke: #01ce90; stroke-width: 0.8"/>
     <use xlink:href="#ma4a96062c3" x="141.619578" y="102.46104" style="fill: #01ce90; stroke: #01ce90; stroke-width: 0.8"/>
    </g>
   </g>
   <g id="LineCollection_4">
    <path d="M 117.925422 100.504284 
L 117.925422 99.066162 
" clip-path="url(#pe37f0000f1)" style="fill: none; stroke: #ca9fff"/>
    <path d="M 70.53711 89.286555 
L 70.53711 88.773583 
" clip-path="url(#pe37f0000f1)" style="fill: none; stroke: #ca9fff"/>
    <path d="M 94.231266 94.225516 
L 94.231266 93.32039 
" clip-path="url(#pe37f0000f1)" style="fill: none; stroke: #ca9fff"/>
    <path d="M 46.842955 82.461581 
L 46.842955 81.289125 
" clip-path="url(#pe37f0000f1)" style="fill: none; stroke: #ca9fff"/>
    <path d="M 141.619578 104.894463 
L 141.619578 103.37704 
" clip-path="url(#pe37f0000f1)" style="fill: none; stroke: #ca9fff"/>
   </g>
   <g id="line2d_25">
    <g clip-path="url(#pe37f0000f1)">
     <use xlink:href="#m1bf4dafb5c" x="117.925422" y="100.504284" style="fill: #ca9fff; stroke: #ca9fff; stroke-width: 0.8"/>
     <use xlink:href="#m1bf4dafb5c" x="70.53711" y="89.286555" style="fill: #ca9fff; stroke: #ca9fff; stroke-width: 0.8"/>
     <use xlink:href="#m1bf4dafb5c" x="94.231266" y="94.225516" style="fill: #ca9fff; stroke: #ca9fff; stroke-width: 0.8"/>
     <use xlink:href="#m1bf4dafb5c" x="46.842955" y="82.461581" style="fill: #ca9fff; stroke: #ca9fff; stroke-width: 0.8"/>
     <use xlink:href="#m1bf4dafb5c" x="141.619578" y="104.894463" style="fill: #ca9fff; stroke: #ca9fff; stroke-width: 0.8"/>
    </g>
   </g>
   <g id="line2d_26">
    <g clip-path="url(#pe37f0000f1)">
     <use xlink:href="#m1bf4dafb5c" x="117.925422" y="99.066162" style="fill: #ca9fff; stroke: #ca9fff; stroke-width: 0.8"/>
     <use xlink:href="#m1bf4dafb5c" x="70.53711" y="88.773583" style="fill: #ca9fff; stroke: #ca9fff; stroke-width: 0.8"/>
     <use xlink:href="#m1bf4dafb5c" x="94.231266" y="93.32039" style="fill: #ca9fff; stroke: #ca9fff; stroke-width: 0.8"/>
     <use xlink:href="#m1bf4dafb5c" x="46.842955" y="81.289125" style="fill: #ca9fff; stroke: #ca9fff; stroke-width: 0.8"/>
     <use xlink:href="#m1bf4dafb5c" x="141.619578" y="103.37704" style="fill: #ca9fff; stroke: #ca9fff; stroke-width: 0.8"/>
    </g>
   </g>
   <g id="LineCollection_5">
    <path d="M 165.313734 148.692723 
L 165.313734 146.557047 
" clip-path="url(#pe37f0000f1)" style="fill: none; stroke: #ca9fff"/>
    <path d="M 212.702045 145.327179 
L 212.702045 143.829543 
" clip-path="url(#pe37f0000f1)" style="fill: none; stroke: #ca9fff"/>
    <path d="M 117.925422 154.532682 
L 117.925422 151.795358 
" clip-path="url(#pe37f0000f1)" style="fill: none; stroke: #ca9fff"/>
    <path d="M 46.842955 160.220455 
L 46.842955 160.047742 
" clip-path="url(#pe37f0000f1)" style="fill: none; stroke: #ca9fff"/>
    <path d="M 189.00789 145.992539 
L 189.00789 143.118023 
" clip-path="url(#pe37f0000f1)" style="fill: none; stroke: #ca9fff"/>
    <path d="M 94.231266 158.847772 
L 94.231266 158.697016 
" clip-path="url(#pe37f0000f1)" style="fill: none; stroke: #ca9fff"/>
    <path d="M 141.619578 153.715107 
L 141.619578 152.335976 
" clip-path="url(#pe37f0000f1)" style="fill: none; stroke: #ca9fff"/>
    <path d="M 70.53711 159.377075 
L 70.53711 156.598291 
" clip-path="url(#pe37f0000f1)" style="fill: none; stroke: #ca9fff"/>
   </g>
   <g id="line2d_27">
    <g clip-path="url(#pe37f0000f1)">
     <use xlink:href="#m1bf4dafb5c" x="165.313734" y="148.692723" style="fill: #ca9fff; stroke: #ca9fff; stroke-width: 0.8"/>
     <use xlink:href="#m1bf4dafb5c" x="212.702045" y="145.327179" style="fill: #ca9fff; stroke: #ca9fff; stroke-width: 0.8"/>
     <use xlink:href="#m1bf4dafb5c" x="117.925422" y="154.532682" style="fill: #ca9fff; stroke: #ca9fff; stroke-width: 0.8"/>
     <use xlink:href="#m1bf4dafb5c" x="46.842955" y="160.220455" style="fill: #ca9fff; stroke: #ca9fff; stroke-width: 0.8"/>
     <use xlink:href="#m1bf4dafb5c" x="189.00789" y="145.992539" style="fill: #ca9fff; stroke: #ca9fff; stroke-width: 0.8"/>
     <use xlink:href="#m1bf4dafb5c" x="94.231266" y="158.847772" style="fill: #ca9fff; stroke: #ca9fff; stroke-width: 0.8"/>
     <use xlink:href="#m1bf4dafb5c" x="141.619578" y="153.715107" style="fill: #ca9fff; stroke: #ca9fff; stroke-width: 0.8"/>
     <use xlink:href="#m1bf4dafb5c" x="70.53711" y="159.377075" style="fill: #ca9fff; stroke: #ca9fff; stroke-width: 0.8"/>
    </g>
   </g>
   <g id="line2d_28">
    <g clip-path="url(#pe37f0000f1)">
     <use xlink:href="#m1bf4dafb5c" x="165.313734" y="146.557047" style="fill: #ca9fff; stroke: #ca9fff; stroke-width: 0.8"/>
     <use xlink:href="#m1bf4dafb5c" x="212.702045" y="143.829543" style="fill: #ca9fff; stroke: #ca9fff; stroke-width: 0.8"/>
     <use xlink:href="#m1bf4dafb5c" x="117.925422" y="151.795358" style="fill: #ca9fff; stroke: #ca9fff; stroke-width: 0.8"/>
     <use xlink:href="#m1bf4dafb5c" x="46.842955" y="160.047742" style="fill: #ca9fff; stroke: #ca9fff; stroke-width: 0.8"/>
     <use xlink:href="#m1bf4dafb5c" x="189.00789" y="143.118023" style="fill: #ca9fff; stroke: #ca9fff; stroke-width: 0.8"/>
     <use xlink:href="#m1bf4dafb5c" x="94.231266" y="158.697016" style="fill: #ca9fff; stroke: #ca9fff; stroke-width: 0.8"/>
     <use xlink:href="#m1bf4dafb5c" x="141.619578" y="152.335976" style="fill: #ca9fff; stroke: #ca9fff; stroke-width: 0.8"/>
     <use xlink:href="#m1bf4dafb5c" x="70.53711" y="156.598291" style="fill: #ca9fff; stroke: #ca9fff; stroke-width: 0.8"/>
    </g>
   </g>
   <g id="LineCollection_6">
    <path d="M 117.925422 151.318726 
L 117.925422 149.516338 
" clip-path="url(#pe37f0000f1)" style="fill: none; stroke: #ca9fff"/>
    <path d="M 46.842955 155.600431 
L 46.842955 151.189203 
" clip-path="url(#pe37f0000f1)" style="fill: none; stroke: #ca9fff"/>
    <path d="M 94.231266 150.073833 
L 94.231266 148.222461 
" clip-path="url(#pe37f0000f1)" style="fill: none; stroke: #ca9fff"/>
    <path d="M 141.619578 143.115586 
L 141.619578 141.886784 
" clip-path="url(#pe37f0000f1)" style="fill: none; stroke: #ca9fff"/>
    <path d="M 70.53711 152.569748 
L 70.53711 150.757928 
" clip-path="url(#pe37f0000f1)" style="fill: none; stroke: #ca9fff"/>
   </g>
   <g id="line2d_29">
    <g clip-path="url(#pe37f0000f1)">
     <use xlink:href="#m1bf4dafb5c" x="117.925422" y="151.318726" style="fill: #ca9fff; stroke: #ca9fff; stroke-width: 0.8"/>
     <use xlink:href="#m1bf4dafb5c" x="46.842955" y="155.600431" style="fill: #ca9fff; stroke: #ca9fff; stroke-width: 0.8"/>
     <use xlink:href="#m1bf4dafb5c" x="94.231266" y="150.073833" style="fill: #ca9fff; stroke: #ca9fff; stroke-width: 0.8"/>
     <use xlink:href="#m1bf4dafb5c" x="141.619578" y="143.115586" style="fill: #ca9fff; stroke: #ca9fff; stroke-width: 0.8"/>
     <use xlink:href="#m1bf4dafb5c" x="70.53711" y="152.569748" style="fill: #ca9fff; stroke: #ca9fff; stroke-width: 0.8"/>
    </g>
   </g>
   <g id="line2d_30">
    <g clip-path="url(#pe37f0000f1)">
     <use xlink:href="#m1bf4dafb5c" x="117.925422" y="149.516338" style="fill: #ca9fff; stroke: #ca9fff; stroke-width: 0.8"/>
     <use xlink:href="#m1bf4dafb5c" x="46.842955" y="151.189203" style="fill: #ca9fff; stroke: #ca9fff; stroke-width: 0.8"/>
     <use xlink:href="#m1bf4dafb5c" x="94.231266" y="148.222461" style="fill: #ca9fff; stroke: #ca9fff; stroke-width: 0.8"/>
     <use xlink:href="#m1bf4dafb5c" x="141.619578" y="141.886784" style="fill: #ca9fff; stroke: #ca9fff; stroke-width: 0.8"/>
     <use xlink:href="#m1bf4dafb5c" x="70.53711" y="150.757928" style="fill: #ca9fff; stroke: #ca9fff; stroke-width: 0.8"/>
    </g>
   </g>
   <g id="line2d_31">
    <defs>
     <path id="m0daa8e844f" d="M 0 2.5 
C 0.663008 2.5 1.29895 2.236584 1.767767 1.767767 
C 2.236584 1.29895 2.5 0.663008 2.5 0 
C 2.5 -0.663008 2.236584 -1.29895 1.767767 -1.767767 
C 1.29895 -2.236584 0.663008 -2.5 0 -2.5 
C -0.663008 -2.5 -1.29895 -2.236584 -1.767767 -1.767767 
C -2.236584 -1.29895 -2.5 -0.663008 -2.5 0 
C -2.5 0.663008 -2.236584 1.29895 -1.767767 1.767767 
C -1.29895 2.236584 -0.663008 2.5 0 2.5 
z
" style="stroke: #000000; stroke-width: 0.8"/>
    </defs>
    <g clip-path="url(#pe37f0000f1)">
     <use xlink:href="#m0daa8e844f" x="46.842955" y="46.295643" style="fill: #01ce90; stroke: #000000; stroke-width: 0.8"/>
     <use xlink:href="#m0daa8e844f" x="70.53711" y="54.027352" style="fill: #01ce90; stroke: #000000; stroke-width: 0.8"/>
     <use xlink:href="#m0daa8e844f" x="94.231266" y="61.52134" style="fill: #01ce90; stroke: #000000; stroke-width: 0.8"/>
     <use xlink:href="#m0daa8e844f" x="117.925422" y="67.118174" style="fill: #01ce90; stroke: #000000; stroke-width: 0.8"/>
     <use xlink:href="#m0daa8e844f" x="141.619578" y="74.919123" style="fill: #01ce90; stroke: #000000; stroke-width: 0.8"/>
     <use xlink:href="#m0daa8e844f" x="165.313734" y="82.226165" style="fill: #01ce90; stroke: #000000; stroke-width: 0.8"/>
     <use xlink:href="#m0daa8e844f" x="189.00789" y="87.469879" style="fill: #01ce90; stroke: #000000; stroke-width: 0.8"/>
     <use xlink:href="#m0daa8e844f" x="212.702045" y="94.107609" style="fill: #01ce90; stroke: #000000; stroke-width: 0.8"/>
    </g>
   </g>
   <g id="line2d_32">
    <defs>
     <path id="md49d30c72e" d="M 0 2.5 
C 0.663008 2.5 1.29895 2.236584 1.767767 1.767767 
C 2.236584 1.29895 2.5 0.663008 2.5 0 
C 2.5 -0.663008 2.236584 -1.29895 1.767767 -1.767767 
C 1.29895 -2.236584 0.663008 -2.5 0 -2.5 
C -0.663008 -2.5 -1.29895 -2.236584 -1.767767 -1.767767 
C -2.236584 -1.29895 -2.5 -0.663008 -2.5 0 
C -2.5 0.663008 -2.236584 1.29895 -1.767767 1.767767 
C -1.29895 2.236584 -0.663008 2.5 0 2.5 
z
" style="stroke: #000000; stroke-width: 0.8"/>
    </defs>
    <g clip-path="url(#pe37f0000f1)">
     <use xlink:href="#md49d30c72e" x="165.313734" y="82.325408" style="fill: #ca9fff; stroke: #000000; stroke-width: 0.8"/>
     <use xlink:href="#md49d30c72e" x="117.925422" y="68.027516" style="fill: #ca9fff; stroke: #000000; stroke-width: 0.8"/>
     <use xlink:href="#md49d30c72e" x="70.53711" y="54.121979" style="fill: #ca9fff; stroke: #000000; stroke-width: 0.8"/>
     <use xlink:href="#md49d30c72e" x="212.702045" y="94.373026" style="fill: #ca9fff; stroke: #000000; stroke-width: 0.8"/>
     <use xlink:href="#md49d30c72e" x="94.231266" y="61.507492" style="fill: #ca9fff; stroke: #000000; stroke-width: 0.8"/>
     <use xlink:href="#md49d30c72e" x="189.00789" y="87.772224" style="fill: #ca9fff; stroke: #000000; stroke-width: 0.8"/>
     <use xlink:href="#md49d30c72e" x="46.842955" y="46.967263" style="fill: #ca9fff; stroke: #000000; stroke-width: 0.8"/>
     <use xlink:href="#md49d30c72e" x="141.619578" y="75.170692" style="fill: #ca9fff; stroke: #000000; stroke-width: 0.8"/>
    </g>
   </g>
   <g id="line2d_33">
    <defs>
     <path id="m8cc8658191" d="M 0 -2.5 
L -2.5 2.5 
L 2.5 2.5 
z
" style="stroke: #000000; stroke-width: 0.8; stroke-linejoin: miter"/>
    </defs>
    <g clip-path="url(#pe37f0000f1)">
     <use xlink:href="#m8cc8658191" x="46.842955" y="79.553532" style="fill: #01ce90; stroke: #000000; stroke-width: 0.8; stroke-linejoin: miter"/>
     <use xlink:href="#m8cc8658191" x="70.53711" y="89.916331" style="fill: #01ce90; stroke: #000000; stroke-width: 0.8; stroke-linejoin: miter"/>
     <use xlink:href="#m8cc8658191" x="94.231266" y="92.704362" style="fill: #01ce90; stroke: #000000; stroke-width: 0.8; stroke-linejoin: miter"/>
     <use xlink:href="#m8cc8658191" x="117.925422" y="100.043716" style="fill: #01ce90; stroke: #000000; stroke-width: 0.8; stroke-linejoin: miter"/>
     <use xlink:href="#m8cc8658191" x="141.619578" y="102.808667" style="fill: #01ce90; stroke: #000000; stroke-width: 0.8; stroke-linejoin: miter"/>
    </g>
   </g>
   <g id="line2d_34">
    <defs>
     <path id="ma97ae9653e" d="M 0 -2.5 
L -2.5 2.5 
L 2.5 2.5 
z
" style="stroke: #000000; stroke-width: 0.8; stroke-linejoin: miter"/>
    </defs>
    <g clip-path="url(#pe37f0000f1)">
     <use xlink:href="#ma97ae9653e" x="117.925422" y="99.785223" style="fill: #ca9fff; stroke: #000000; stroke-width: 0.8; stroke-linejoin: miter"/>
     <use xlink:href="#ma97ae9653e" x="70.53711" y="89.030069" style="fill: #ca9fff; stroke: #000000; stroke-width: 0.8; stroke-linejoin: miter"/>
     <use xlink:href="#ma97ae9653e" x="94.231266" y="93.772953" style="fill: #ca9fff; stroke: #000000; stroke-width: 0.8; stroke-linejoin: miter"/>
     <use xlink:href="#ma97ae9653e" x="46.842955" y="81.875353" style="fill: #ca9fff; stroke: #000000; stroke-width: 0.8; stroke-linejoin: miter"/>
     <use xlink:href="#ma97ae9653e" x="141.619578" y="104.135752" style="fill: #ca9fff; stroke: #000000; stroke-width: 0.8; stroke-linejoin: miter"/>
    </g>
   </g>
   <g id="line2d_35">
    <g clip-path="url(#pe37f0000f1)">
     <use xlink:href="#md49d30c72e" x="165.313734" y="147.624885" style="fill: #ca9fff; stroke: #000000; stroke-width: 0.8"/>
     <use xlink:href="#md49d30c72e" x="212.702045" y="144.578361" style="fill: #ca9fff; stroke: #000000; stroke-width: 0.8"/>
     <use xlink:href="#md49d30c72e" x="117.925422" y="153.16402" style="fill: #ca9fff; stroke: #000000; stroke-width: 0.8"/>
     <use xlink:href="#md49d30c72e" x="46.842955" y="160.134098" style="fill: #ca9fff; stroke: #000000; stroke-width: 0.8"/>
     <use xlink:href="#md49d30c72e" x="189.00789" y="144.555281" style="fill: #ca9fff; stroke: #000000; stroke-width: 0.8"/>
     <use xlink:href="#md49d30c72e" x="94.231266" y="158.772394" style="fill: #ca9fff; stroke: #000000; stroke-width: 0.8"/>
     <use xlink:href="#md49d30c72e" x="141.619578" y="153.025542" style="fill: #ca9fff; stroke: #000000; stroke-width: 0.8"/>
     <use xlink:href="#md49d30c72e" x="70.53711" y="157.987683" style="fill: #ca9fff; stroke: #000000; stroke-width: 0.8"/>
    </g>
   </g>
   <g id="line2d_36">
    <g clip-path="url(#pe37f0000f1)">
     <use xlink:href="#ma97ae9653e" x="117.925422" y="150.417532" style="fill: #ca9fff; stroke: #000000; stroke-width: 0.8; stroke-linejoin: miter"/>
     <use xlink:href="#ma97ae9653e" x="46.842955" y="153.394817" style="fill: #ca9fff; stroke: #000000; stroke-width: 0.8; stroke-linejoin: miter"/>
     <use xlink:href="#ma97ae9653e" x="94.231266" y="149.148147" style="fill: #ca9fff; stroke: #000000; stroke-width: 0.8; stroke-linejoin: miter"/>
     <use xlink:href="#ma97ae9653e" x="141.619578" y="142.501185" style="fill: #ca9fff; stroke: #000000; stroke-width: 0.8; stroke-linejoin: miter"/>
     <use xlink:href="#ma97ae9653e" x="70.53711" y="151.663838" style="fill: #ca9fff; stroke: #000000; stroke-width: 0.8; stroke-linejoin: miter"/>
    </g>
   </g>
   <g id="patch_3">
    <path d="M 38.55 166.02 
L 38.55 38.43 
" style="fill: none; stroke: #000000; stroke-width: 1.2; stroke-linejoin: miter; stroke-linecap: square"/>
   </g>
   <g id="patch_4">
    <path d="M 220.995 166.02 
L 220.995 38.43 
" style="fill: none; stroke: #000000; stroke-width: 1.2; stroke-linejoin: miter; stroke-linecap: square"/>
   </g>
   <g id="patch_5">
    <path d="M 38.55 166.02 
L 220.995 166.02 
" style="fill: none; stroke: #000000; stroke-width: 1.2; stroke-linejoin: miter; stroke-linecap: square"/>
   </g>
   <g id="patch_6">
    <path d="M 38.55 38.43 
L 220.995 38.43 
" style="fill: none; stroke: #000000; stroke-width: 1.2; stroke-linejoin: miter; stroke-linecap: square"/>
   </g>
   <g id="legend_1">
    <g id="patch_7">
     <path d="M 143.39475 65.483438 
L 246.284437 65.483438 
L 246.284437 11.376563 
L 143.39475 11.376563 
z
" style="fill: #ffffff; stroke: #000000; stroke-linejoin: miter"/>
    </g>
    <g id="LineCollection_7">
     <path d="M 155.99475 22.905 
L 155.99475 13.905 
" style="fill: none; stroke: #01ce90"/>
    </g>
    <g id="line2d_37">
     <g>
      <use xlink:href="#ma4a96062c3" x="155.99475" y="22.905" style="fill: #01ce90; stroke: #01ce90; stroke-width: 0.8"/>
     </g>
    </g>
    <g id="line2d_38">
     <g>
      <use xlink:href="#ma4a96062c3" x="155.99475" y="13.905" style="fill: #01ce90; stroke: #01ce90; stroke-width: 0.8"/>
     </g>
    </g>
    <g id="line2d_39"/>
    <g id="line2d_40">
     <g>
      <use xlink:href="#m0daa8e844f" x="155.99475" y="18.405" style="fill: #01ce90; stroke: #000000; stroke-width: 0.8"/>
     </g>
    </g>
    <g id="text_12">
     <!-- EOS (SCAN) -->
     <g transform="translate(172.19475 21.555) scale(0.09 -0.09)">
      <defs>
       <path id="HelveticaNeue-45" d="M 499 4570 
L 499 0 
L 3674 0 
L 3674 512 
L 1107 512 
L 1107 2093 
L 3482 2093 
L 3482 2605 
L 1107 2605 
L 1107 4058 
L 3654 4058 
L 3654 4570 
L 499 4570 
z
" transform="scale(0.015625)"/>
       <path id="HelveticaNeue-4f" d="M 851 2285 
Q 851 2630 940 2966 
Q 1030 3302 1222 3571 
Q 1414 3840 1715 4003 
Q 2016 4166 2432 4166 
Q 2848 4166 3149 4003 
Q 3450 3840 3642 3571 
Q 3834 3302 3923 2966 
Q 4013 2630 4013 2285 
Q 4013 1939 3923 1603 
Q 3834 1267 3642 998 
Q 3450 730 3149 566 
Q 2848 403 2432 403 
Q 2016 403 1715 566 
Q 1414 730 1222 998 
Q 1030 1267 940 1603 
Q 851 1939 851 2285 
z
M 243 2285 
Q 243 1818 380 1386 
Q 518 954 793 621 
Q 1069 288 1478 93 
Q 1888 -102 2432 -102 
Q 2976 -102 3385 93 
Q 3795 288 4070 621 
Q 4346 954 4483 1386 
Q 4621 1818 4621 2285 
Q 4621 2752 4483 3184 
Q 4346 3616 4070 3949 
Q 3795 4282 3385 4480 
Q 2976 4678 2432 4678 
Q 1888 4678 1478 4480 
Q 1069 4282 793 3949 
Q 518 3616 380 3184 
Q 243 2752 243 2285 
z
" transform="scale(0.015625)"/>
       <path id="HelveticaNeue-53" d="M 3142 3232 
L 3718 3232 
Q 3706 3610 3574 3882 
Q 3443 4154 3216 4333 
Q 2989 4512 2688 4595 
Q 2387 4678 2035 4678 
Q 1722 4678 1424 4598 
Q 1126 4518 892 4355 
Q 659 4192 518 3939 
Q 378 3686 378 3341 
Q 378 3027 502 2819 
Q 627 2611 835 2480 
Q 1043 2349 1305 2269 
Q 1568 2189 1840 2128 
Q 2112 2067 2374 2009 
Q 2637 1952 2845 1859 
Q 3053 1766 3177 1619 
Q 3302 1472 3302 1235 
Q 3302 986 3200 826 
Q 3098 666 2931 573 
Q 2765 480 2557 441 
Q 2349 403 2144 403 
Q 1888 403 1645 467 
Q 1402 531 1219 665 
Q 1037 800 925 1008 
Q 813 1216 813 1504 
L 237 1504 
Q 237 1088 387 784 
Q 538 480 797 285 
Q 1056 90 1398 -6 
Q 1741 -102 2125 -102 
Q 2438 -102 2755 -28 
Q 3072 45 3328 208 
Q 3584 371 3747 630 
Q 3910 890 3910 1254 
Q 3910 1594 3785 1818 
Q 3661 2042 3453 2189 
Q 3245 2336 2982 2422 
Q 2720 2509 2448 2573 
Q 2176 2637 1913 2691 
Q 1651 2746 1443 2829 
Q 1235 2912 1110 3043 
Q 986 3174 986 3386 
Q 986 3610 1072 3760 
Q 1158 3910 1302 4000 
Q 1446 4090 1632 4128 
Q 1818 4166 2010 4166 
Q 2483 4166 2787 3945 
Q 3091 3725 3142 3232 
z
" transform="scale(0.015625)"/>
       <path id="HelveticaNeue-28" d="M 1306 -1261 
L 1722 -1261 
Q 1267 -525 1072 198 
Q 877 922 877 1728 
Q 877 2515 1069 3232 
Q 1261 3949 1722 4678 
L 1306 4678 
Q 806 4019 553 3251 
Q 301 2483 301 1728 
Q 301 1306 371 922 
Q 442 538 573 173 
Q 704 -192 889 -547 
Q 1075 -902 1306 -1261 
z
" transform="scale(0.015625)"/>
       <path id="HelveticaNeue-43" d="M 3712 3194 
L 4320 3194 
Q 4269 3558 4102 3836 
Q 3936 4115 3686 4300 
Q 3437 4486 3117 4582 
Q 2797 4678 2438 4678 
Q 1914 4678 1507 4489 
Q 1101 4301 829 3974 
Q 557 3648 416 3209 
Q 275 2771 275 2272 
Q 275 1773 406 1337 
Q 538 902 800 582 
Q 1062 262 1459 80 
Q 1856 -102 2387 -102 
Q 3264 -102 3769 378 
Q 4275 858 4365 1722 
L 3757 1722 
Q 3738 1440 3642 1197 
Q 3546 954 3376 778 
Q 3206 602 2972 502 
Q 2739 403 2438 403 
Q 2029 403 1734 556 
Q 1440 710 1251 969 
Q 1062 1229 972 1577 
Q 883 1926 883 2317 
Q 883 2675 972 3008 
Q 1062 3341 1251 3600 
Q 1440 3859 1731 4012 
Q 2022 4166 2432 4166 
Q 2912 4166 3261 3923 
Q 3610 3680 3712 3194 
z
" transform="scale(0.015625)"/>
       <path id="HelveticaNeue-41" d="M 1286 1888 
L 2061 4019 
L 2074 4019 
L 2835 1888 
L 1286 1888 
z
M 1741 4570 
L -38 0 
L 582 0 
L 1094 1376 
L 3027 1376 
L 3526 0 
L 4198 0 
L 2413 4570 
L 1741 4570 
z
" transform="scale(0.015625)"/>
       <path id="HelveticaNeue-4e" d="M 493 4570 
L 493 0 
L 1069 0 
L 1069 3667 
L 1082 3667 
L 3469 0 
L 4134 0 
L 4134 4570 
L 3558 4570 
L 3558 864 
L 3546 864 
L 1139 4570 
L 493 4570 
z
" transform="scale(0.015625)"/>
       <path id="HelveticaNeue-29" d="M -58 -1261 
L 352 -1261 
Q 851 -602 1104 163 
Q 1357 928 1357 1683 
Q 1357 2106 1286 2490 
Q 1216 2874 1085 3242 
Q 954 3610 768 3965 
Q 582 4320 352 4678 
L -58 4678 
Q 390 3942 585 3216 
Q 781 2490 781 1683 
Q 781 902 589 182 
Q 397 -538 -58 -1261 
z
" transform="scale(0.015625)"/>
      </defs>
      <use xlink:href="#HelveticaNeue-45"/>
      <use xlink:href="#HelveticaNeue-4f" transform="translate(61.099991 0)"/>
      <use xlink:href="#HelveticaNeue-53" transform="translate(137.099976 0)"/>
      <use xlink:href="#HelveticaNeue-20" transform="translate(201.899963 0)"/>
      <use xlink:href="#HelveticaNeue-28" transform="translate(229.699951 0)"/>
      <use xlink:href="#HelveticaNeue-53" transform="translate(255.599945 0)"/>
      <use xlink:href="#HelveticaNeue-43" transform="translate(320.399933 0)"/>
      <use xlink:href="#HelveticaNeue-41" transform="translate(392.599915 0)"/>
      <use xlink:href="#HelveticaNeue-4e" transform="translate(457.399902 0)"/>
      <use xlink:href="#HelveticaNeue-29" transform="translate(529.599884 0)"/>
     </g>
    </g>
    <g id="LineCollection_8">
     <path d="M 155.99475 35.756719 
L 155.99475 26.756719 
" style="fill: none; stroke: #ca9fff"/>
    </g>
    <g id="line2d_41">
     <g>
      <use xlink:href="#m1bf4dafb5c" x="155.99475" y="35.756719" style="fill: #ca9fff; stroke: #ca9fff; stroke-width: 0.8"/>
     </g>
    </g>
    <g id="line2d_42">
     <g>
      <use xlink:href="#m1bf4dafb5c" x="155.99475" y="26.756719" style="fill: #ca9fff; stroke: #ca9fff; stroke-width: 0.8"/>
     </g>
    </g>
    <g id="line2d_43"/>
    <g id="line2d_44">
     <g>
      <use xlink:href="#md49d30c72e" x="155.99475" y="31.256719" style="fill: #ca9fff; stroke: #000000; stroke-width: 0.8"/>
     </g>
    </g>
    <g id="text_13">
     <!-- Classifier (SCAN) -->
     <g transform="translate(172.19475 34.406719) scale(0.09 -0.09)">
      <defs>
       <path id="HelveticaNeue-6c" d="M 442 4570 
L 442 0 
L 986 0 
L 986 4570 
L 442 4570 
z
" transform="scale(0.015625)"/>
       <path id="HelveticaNeue-69" d="M 986 3904 
L 986 4570 
L 442 4570 
L 442 3904 
L 986 3904 
z
M 442 3309 
L 442 0 
L 986 0 
L 986 3309 
L 442 3309 
z
" transform="scale(0.015625)"/>
       <path id="HelveticaNeue-66" d="M 634 2829 
L 634 0 
L 1178 0 
L 1178 2829 
L 1818 2829 
L 1818 3309 
L 1178 3309 
L 1178 3770 
Q 1178 3987 1286 4064 
Q 1395 4141 1594 4141 
Q 1664 4141 1747 4131 
Q 1830 4122 1901 4096 
L 1901 4570 
Q 1824 4595 1725 4608 
Q 1626 4621 1549 4621 
Q 1101 4621 867 4413 
Q 634 4205 634 3802 
L 634 3309 
L 77 3309 
L 77 2829 
L 634 2829 
z
" transform="scale(0.015625)"/>
      </defs>
      <use xlink:href="#HelveticaNeue-43"/>
      <use xlink:href="#HelveticaNeue-6c" transform="translate(72.199982 0)"/>
      <use xlink:href="#HelveticaNeue-61" transform="translate(94.399979 0)"/>
      <use xlink:href="#HelveticaNeue-73" transform="translate(148.099976 0)"/>
      <use xlink:href="#HelveticaNeue-73" transform="translate(198.09996 0)"/>
      <use xlink:href="#HelveticaNeue-69" transform="translate(248.099945 0)"/>
      <use xlink:href="#HelveticaNeue-66" transform="translate(270.299942 0)"/>
      <use xlink:href="#HelveticaNeue-69" transform="translate(299.899933 0)"/>
      <use xlink:href="#HelveticaNeue-65" transform="translate(322.09993 0)"/>
      <use xlink:href="#HelveticaNeue-72" transform="translate(375.799927 0)"/>
      <use xlink:href="#HelveticaNeue-20" transform="translate(409.099915 0)"/>
      <use xlink:href="#HelveticaNeue-28" transform="translate(436.899902 0)"/>
      <use xlink:href="#HelveticaNeue-53" transform="translate(462.799896 0)"/>
      <use xlink:href="#HelveticaNeue-43" transform="translate(527.599884 0)"/>
      <use xlink:href="#HelveticaNeue-41" transform="translate(599.799866 0)"/>
      <use xlink:href="#HelveticaNeue-4e" transform="translate(664.599854 0)"/>
      <use xlink:href="#HelveticaNeue-29" transform="translate(736.799835 0)"/>
     </g>
    </g>
    <g id="LineCollection_9">
     <path d="M 155.99475 48.608438 
L 155.99475 39.608438 
" style="fill: none; stroke: #01ce90"/>
    </g>
    <g id="line2d_45">
     <g>
      <use xlink:href="#ma4a96062c3" x="155.99475" y="48.608438" style="fill: #01ce90; stroke: #01ce90; stroke-width: 0.8"/>
     </g>
    </g>
    <g id="line2d_46">
     <g>
      <use xlink:href="#ma4a96062c3" x="155.99475" y="39.608438" style="fill: #01ce90; stroke: #01ce90; stroke-width: 0.8"/>
     </g>
    </g>
    <g id="line2d_47"/>
    <g id="line2d_48">
     <g>
      <use xlink:href="#m8cc8658191" x="155.99475" y="44.108438" style="fill: #01ce90; stroke: #000000; stroke-width: 0.8; stroke-linejoin: miter"/>
     </g>
    </g>
    <g id="text_14">
     <!-- EOS (MBpol) -->
     <g transform="translate(172.19475 47.258438) scale(0.09 -0.09)">
      <defs>
       <path id="HelveticaNeue-4d" d="M 512 4570 
L 512 0 
L 1088 0 
L 1088 3802 
L 1101 3802 
L 2528 0 
L 3046 0 
L 4474 3802 
L 4486 3802 
L 4486 0 
L 5062 0 
L 5062 4570 
L 4230 4570 
L 2784 730 
L 1344 4570 
L 512 4570 
z
" transform="scale(0.015625)"/>
       <path id="HelveticaNeue-42" d="M 1107 2605 
L 1107 4058 
L 2323 4058 
Q 2522 4058 2698 4035 
Q 2874 4013 3008 3936 
Q 3142 3859 3219 3718 
Q 3296 3578 3296 3334 
Q 3296 2970 3069 2787 
Q 2842 2605 2323 2605 
L 1107 2605 
z
M 499 4570 
L 499 0 
L 2707 0 
Q 3046 0 3305 112 
Q 3565 224 3741 406 
Q 3917 589 4006 825 
Q 4096 1062 4096 1312 
Q 4096 1734 3872 2028 
Q 3648 2323 3226 2413 
L 3226 2426 
Q 3552 2554 3728 2819 
Q 3904 3085 3904 3450 
Q 3904 3795 3747 4032 
Q 3590 4269 3366 4403 
Q 3264 4467 3120 4499 
Q 2976 4531 2809 4547 
Q 2643 4563 2473 4566 
Q 2304 4570 2157 4570 
L 499 4570 
z
M 1107 512 
L 1107 2093 
L 2496 2093 
Q 2688 2093 2867 2057 
Q 3046 2022 3184 1936 
Q 3322 1850 3405 1702 
Q 3488 1555 3488 1331 
Q 3488 947 3261 729 
Q 3034 512 2630 512 
L 1107 512 
z
" transform="scale(0.015625)"/>
       <path id="HelveticaNeue-6f" d="M 806 1651 
Q 806 1952 886 2185 
Q 966 2419 1107 2579 
Q 1248 2739 1437 2822 
Q 1626 2906 1837 2906 
Q 2048 2906 2237 2822 
Q 2426 2739 2566 2579 
Q 2707 2419 2787 2185 
Q 2867 1952 2867 1651 
Q 2867 1350 2787 1116 
Q 2707 883 2566 726 
Q 2426 570 2237 486 
Q 2048 403 1837 403 
Q 1626 403 1437 486 
Q 1248 570 1107 726 
Q 966 883 886 1116 
Q 806 1350 806 1651 
z
M 230 1651 
Q 230 1286 332 972 
Q 435 659 640 425 
Q 845 192 1145 61 
Q 1446 -70 1837 -70 
Q 2234 -70 2531 61 
Q 2829 192 3033 425 
Q 3238 659 3340 972 
Q 3443 1286 3443 1651 
Q 3443 2016 3340 2333 
Q 3238 2650 3033 2883 
Q 2829 3117 2531 3251 
Q 2234 3386 1837 3386 
Q 1446 3386 1145 3251 
Q 845 3117 640 2883 
Q 435 2650 332 2333 
Q 230 2016 230 1651 
z
" transform="scale(0.015625)"/>
      </defs>
      <use xlink:href="#HelveticaNeue-45"/>
      <use xlink:href="#HelveticaNeue-4f" transform="translate(61.099991 0)"/>
      <use xlink:href="#HelveticaNeue-53" transform="translate(137.099976 0)"/>
      <use xlink:href="#HelveticaNeue-20" transform="translate(201.899963 0)"/>
      <use xlink:href="#HelveticaNeue-28" transform="translate(229.699951 0)"/>
      <use xlink:href="#HelveticaNeue-4d" transform="translate(255.599945 0)"/>
      <use xlink:href="#HelveticaNeue-42" transform="translate(342.699936 0)"/>
      <use xlink:href="#HelveticaNeue-70" transform="translate(411.199921 0)"/>
      <use xlink:href="#HelveticaNeue-6f" transform="translate(470.499908 0)"/>
      <use xlink:href="#HelveticaNeue-6c" transform="translate(527.899902 0)"/>
      <use xlink:href="#HelveticaNeue-29" transform="translate(550.099899 0)"/>
     </g>
    </g>
    <g id="LineCollection_10">
     <path d="M 155.99475 61.460156 
L 155.99475 52.460156 
" style="fill: none; stroke: #ca9fff"/>
    </g>
    <g id="line2d_49">
     <g>
      <use xlink:href="#m1bf4dafb5c" x="155.99475" y="61.460156" style="fill: #ca9fff; stroke: #ca9fff; stroke-width: 0.8"/>
     </g>
    </g>
    <g id="line2d_50">
     <g>
      <use xlink:href="#m1bf4dafb5c" x="155.99475" y="52.460156" style="fill: #ca9fff; stroke: #ca9fff; stroke-width: 0.8"/>
     </g>
    </g>
    <g id="line2d_51"/>
    <g id="line2d_52">
     <g>
      <use xlink:href="#ma97ae9653e" x="155.99475" y="56.960156" style="fill: #ca9fff; stroke: #000000; stroke-width: 0.8; stroke-linejoin: miter"/>
     </g>
    </g>
    <g id="text_15">
     <!-- Classifier (MBpol) -->
     <g transform="translate(172.19475 60.110156) scale(0.09 -0.09)">
      <use xlink:href="#HelveticaNeue-43"/>
      <use xlink:href="#HelveticaNeue-6c" transform="translate(72.199982 0)"/>
      <use xlink:href="#HelveticaNeue-61" transform="translate(94.399979 0)"/>
      <use xlink:href="#HelveticaNeue-73" transform="translate(148.099976 0)"/>
      <use xlink:href="#HelveticaNeue-73" transform="translate(198.09996 0)"/>
      <use xlink:href="#HelveticaNeue-69" transform="translate(248.099945 0)"/>
      <use xlink:href="#HelveticaNeue-66" transform="translate(270.299942 0)"/>
      <use xlink:href="#HelveticaNeue-69" transform="translate(299.899933 0)"/>
      <use xlink:href="#HelveticaNeue-65" transform="translate(322.09993 0)"/>
      <use xlink:href="#HelveticaNeue-72" transform="translate(375.799927 0)"/>
      <use xlink:href="#HelveticaNeue-20" transform="translate(409.099915 0)"/>
      <use xlink:href="#HelveticaNeue-28" transform="translate(436.899902 0)"/>
      <use xlink:href="#HelveticaNeue-4d" transform="translate(462.799896 0)"/>
      <use xlink:href="#HelveticaNeue-42" transform="translate(549.899887 0)"/>
      <use xlink:href="#HelveticaNeue-70" transform="translate(618.399872 0)"/>
      <use xlink:href="#HelveticaNeue-6f" transform="translate(677.69986 0)"/>
      <use xlink:href="#HelveticaNeue-6c" transform="translate(735.099854 0)"/>
      <use xlink:href="#HelveticaNeue-29" transform="translate(757.29985 0)"/>
     </g>
    </g>
   </g>
  </g>
 </g>
 <defs>
  <clipPath id="pe37f0000f1">
   <rect x="38.55" y="38.43" width="182.445" height="127.59"/>
  </clipPath>
 </defs>
</svg>
