<?xml version="1.0" encoding="utf-8" standalone="no"?>
<!DOCTYPE svg PUBLIC "-//W3C//DTD SVG 1.1//EN"
  "http://www.w3.org/Graphics/SVG/1.1/DTD/svg11.dtd">
<svg xmlns:xlink="http://www.w3.org/1999/xlink" width="252pt" height="136.8pt" viewBox="0 0 252 136.8" xmlns="http://www.w3.org/2000/svg" version="1.1">
 <metadata>
  <rdf:RDF xmlns:dc="http://purl.org/dc/elements/1.1/" xmlns:cc="http://creativecommons.org/ns#" xmlns:rdf="http://www.w3.org/1999/02/22-rdf-syntax-ns#">
   <cc:Work>
    <dc:type rdf:resource="http://purl.org/dc/dcmitype/StillImage"/>
    <dc:date>2025-10-10T15:18:50.959332</dc:date>
    <dc:format>image/svg+xml</dc:format>
    <dc:creator>
     <cc:Agent>
      <dc:title>Matplotlib v3.10.5, https://matplotlib.org/</dc:title>
     </cc:Agent>
    </dc:creator>
   </cc:Work>
  </rdf:RDF>
 </metadata>
 <defs>
  <style type="text/css">*{stroke-linejoin: round; stroke-linecap: butt}</style>
 </defs>
 <g id="figure_1">
  <g id="patch_1">
   <path d="M 0 136.8 
L 252 136.8 
L 252 0 
L 0 0 
z
" style="fill: #ffffff"/>
  </g>
  <g id="axes_1">
   <g id="patch_2">
    <path d="M 52.185 96.828 
L 140.432342 96.828 
L 140.432342 10.8 
L 52.185 10.8 
z
" style="fill: #ffffff"/>
   </g>
   <g id="line2d_1">
    <path d="M 122.926755 86.881936 
L 121.278112 86.881936 
L 120.678606 90.477672 
L 119.779346 83.864085 
L 120.378853 88.230337 
L 119.779346 90.927139 
L 117.830951 88.872433 
L 118.28058 89.771367 
L 117.531197 87.267193 
L 116.332185 86.111421 
L 116.032431 92.917636 
L 115.882555 87.331403 
L 114.833419 83.15778 
L 114.233912 91.248187 
L 114.983295 86.881936 
L 113.034899 88.551385 
L 112.435393 89.25769 
L 113.034899 90.541882 
L 111.68601 89.065061 
L 111.985763 89.835576 
L 109.587738 90.86293 
L 109.437861 88.551385 
L 109.287984 87.138774 
L 107.939095 88.101918 
L 108.238848 87.138774 
L 108.088972 87.395612 
L 107.189712 89.514528 
L 105.690946 87.331403 
L 105.241316 89.129271 
L 104.491933 87.973498 
L 102.693414 85.983001 
L 102.693414 87.395612 
L 102.693414 87.524031 
L 101.344525 88.166127 
L 99.096376 83.15778 
L 99.096376 85.854582 
L 96.848227 85.276696 
L 96.398597 87.524031 
L 96.998103 85.533534 
L 95.799091 85.084067 
L 93.850695 83.799876 
L 92.052176 87.331403 
L 90.403533 82.387265 
L 89.804027 86.817726 
L 89.20452 84.056714 
L 86.356865 79.176785 
L 84.858099 76.736821 
L 83.209456 78.47048 
L 80.211924 75.003163 
L 77.064516 73.333713 
L 76.015379 66.591707 
L 71.519081 60.491797 
L 69.570686 57.152898 
L 69.570686 56.89606 
L 65.973647 45.402545 
L 63.125992 42.384694 
L 60.12846 31.918532 
L 57.280804 28.579634 
" clip-path="url(#p891bd834f8)" style="fill: none; stroke: #fc8a6a; stroke-width: 1.5; stroke-linecap: square"/>
   </g>
   <g id="matplotlib.axis_1">
    <g id="xtick_1">
     <g id="line2d_2">
      <defs>
       <path id="ma5d43eba98" d="M 0 0 
L 0 -3 
" style="stroke: #000000; stroke-width: 1.2"/>
      </defs>
      <g>
       <use xlink:href="#ma5d43eba98" x="56.021841" y="96.828" style="stroke: #000000; stroke-width: 1.2"/>
      </g>
     </g>
     <g id="line2d_3">
      <defs>
       <path id="m7fcefb82a2" d="M 0 0 
L 0 3 
" style="stroke: #000000; stroke-width: 1.2"/>
      </defs>
      <g>
       <use xlink:href="#m7fcefb82a2" x="56.021841" y="10.8" style="stroke: #000000; stroke-width: 1.2"/>
      </g>
     </g>
     <g id="text_1">
      <!-- 2.8 -->
      <g transform="translate(50.462466 106.0405) scale(0.08 -0.08)">
       <defs>
        <path id="HelveticaNeue-32" d="M 282 2931 
L 826 2931 
Q 819 3136 867 3337 
Q 915 3539 1024 3699 
Q 1133 3859 1302 3958 
Q 1472 4058 1709 4058 
Q 1888 4058 2048 4000 
Q 2208 3942 2326 3833 
Q 2445 3725 2515 3574 
Q 2586 3424 2586 3238 
Q 2586 3002 2512 2822 
Q 2438 2643 2294 2489 
Q 2150 2336 1932 2185 
Q 1715 2035 1427 1856 
Q 1190 1715 972 1555 
Q 755 1395 582 1184 
Q 410 973 298 688 
Q 186 403 154 0 
L 3117 0 
L 3117 480 
L 787 480 
Q 826 691 950 854 
Q 1075 1018 1251 1158 
Q 1427 1299 1638 1424 
Q 1850 1549 2061 1677 
Q 2272 1811 2470 1958 
Q 2669 2106 2822 2288 
Q 2976 2470 3069 2700 
Q 3162 2931 3162 3232 
Q 3162 3552 3050 3795 
Q 2938 4038 2746 4201 
Q 2554 4365 2294 4451 
Q 2035 4538 1741 4538 
Q 1382 4538 1100 4416 
Q 819 4294 630 4080 
Q 442 3866 352 3571 
Q 262 3277 282 2931 
z
" transform="scale(0.015625)"/>
        <path id="HelveticaNeue-2e" d="M 531 710 
L 531 0 
L 1242 0 
L 1242 710 
L 531 710 
z
" transform="scale(0.015625)"/>
        <path id="HelveticaNeue-38" d="M 992 3360 
Q 992 3533 1056 3661 
Q 1120 3789 1225 3878 
Q 1331 3968 1478 4013 
Q 1626 4058 1786 4058 
Q 2118 4058 2332 3882 
Q 2547 3706 2547 3360 
Q 2547 3014 2336 2822 
Q 2125 2630 1798 2630 
Q 1632 2630 1485 2675 
Q 1338 2720 1229 2809 
Q 1120 2899 1056 3036 
Q 992 3174 992 3360 
z
M 416 3379 
Q 416 3072 589 2813 
Q 762 2554 1050 2438 
Q 666 2304 461 2006 
Q 256 1709 256 1306 
Q 256 960 374 701 
Q 493 442 701 269 
Q 909 96 1190 13 
Q 1472 -70 1798 -70 
Q 2112 -70 2387 19 
Q 2662 109 2864 285 
Q 3066 461 3184 717 
Q 3302 973 3302 1306 
Q 3302 1728 3104 2019 
Q 2906 2310 2496 2438 
Q 2784 2566 2953 2819 
Q 3123 3072 3123 3379 
Q 3123 3597 3046 3805 
Q 2970 4013 2806 4176 
Q 2643 4339 2380 4438 
Q 2118 4538 1747 4538 
Q 1485 4538 1245 4461 
Q 1005 4384 819 4237 
Q 634 4090 525 3875 
Q 416 3661 416 3379 
z
M 832 1280 
Q 832 1478 905 1638 
Q 979 1798 1110 1913 
Q 1242 2029 1418 2089 
Q 1594 2150 1792 2150 
Q 1984 2150 2153 2083 
Q 2323 2016 2451 1901 
Q 2579 1786 2652 1629 
Q 2726 1472 2726 1286 
Q 2726 1094 2659 934 
Q 2592 774 2467 656 
Q 2342 538 2172 470 
Q 2003 403 1798 403 
Q 1376 403 1104 636 
Q 832 870 832 1280 
z
" transform="scale(0.015625)"/>
       </defs>
       <use xlink:href="#HelveticaNeue-32"/>
       <use xlink:href="#HelveticaNeue-2e" transform="translate(55.599991 0)"/>
       <use xlink:href="#HelveticaNeue-38" transform="translate(83.399979 0)"/>
      </g>
     </g>
    </g>
    <g id="xtick_2">
     <g id="line2d_4">
      <g>
       <use xlink:href="#ma5d43eba98" x="79.042887" y="96.828" style="stroke: #000000; stroke-width: 1.2"/>
      </g>
     </g>
     <g id="line2d_5">
      <g>
       <use xlink:href="#m7fcefb82a2" x="79.042887" y="10.8" style="stroke: #000000; stroke-width: 1.2"/>
      </g>
     </g>
     <g id="text_2">
      <!-- 3.1 -->
      <g transform="translate(73.483512 106.0405) scale(0.08 -0.08)">
       <defs>
        <path id="HelveticaNeue-33" d="M 1395 2592 
L 1395 2131 
Q 1549 2150 1722 2150 
Q 1926 2150 2102 2096 
Q 2278 2042 2406 1930 
Q 2534 1818 2611 1654 
Q 2688 1491 2688 1280 
Q 2688 1075 2608 912 
Q 2528 749 2393 637 
Q 2259 525 2080 464 
Q 1901 403 1702 403 
Q 1235 403 992 681 
Q 749 960 736 1402 
L 192 1402 
Q 186 1050 291 774 
Q 397 499 595 310 
Q 794 122 1075 26 
Q 1357 -70 1702 -70 
Q 2022 -70 2307 16 
Q 2592 102 2803 275 
Q 3014 448 3139 707 
Q 3264 966 3264 1306 
Q 3264 1715 3062 2016 
Q 2861 2317 2445 2406 
L 2445 2419 
Q 2714 2541 2893 2777 
Q 3072 3014 3072 3322 
Q 3072 3635 2966 3865 
Q 2861 4096 2675 4243 
Q 2490 4390 2237 4464 
Q 1984 4538 1690 4538 
Q 1350 4538 1091 4429 
Q 832 4320 659 4128 
Q 486 3936 393 3667 
Q 301 3398 288 3072 
L 832 3072 
Q 832 3270 883 3449 
Q 934 3629 1040 3763 
Q 1146 3898 1309 3978 
Q 1472 4058 1690 4058 
Q 2035 4058 2265 3875 
Q 2496 3693 2496 3328 
Q 2496 3149 2425 3008 
Q 2355 2867 2236 2774 
Q 2118 2682 1961 2634 
Q 1805 2586 1632 2586 
L 1517 2586 
Q 1485 2586 1453 2586 
Q 1427 2586 1395 2592 
z
" transform="scale(0.015625)"/>
        <path id="HelveticaNeue-31" d="M 2278 0 
L 2278 4538 
L 1862 4538 
Q 1818 4282 1696 4115 
Q 1574 3949 1398 3853 
Q 1222 3757 1004 3721 
Q 787 3686 557 3686 
L 557 3251 
L 1734 3251 
L 1734 0 
L 2278 0 
z
" transform="scale(0.015625)"/>
       </defs>
       <use xlink:href="#HelveticaNeue-33"/>
       <use xlink:href="#HelveticaNeue-2e" transform="translate(55.599991 0)"/>
       <use xlink:href="#HelveticaNeue-31" transform="translate(83.399979 0)"/>
      </g>
     </g>
    </g>
    <g id="xtick_3">
     <g id="line2d_6">
      <g>
       <use xlink:href="#ma5d43eba98" x="102.063932" y="96.828" style="stroke: #000000; stroke-width: 1.2"/>
      </g>
     </g>
     <g id="line2d_7">
      <g>
       <use xlink:href="#m7fcefb82a2" x="102.063932" y="10.8" style="stroke: #000000; stroke-width: 1.2"/>
      </g>
     </g>
     <g id="text_3">
      <!-- 3.4 -->
      <g transform="translate(96.504557 106.0405) scale(0.08 -0.08)">
       <defs>
        <path id="HelveticaNeue-34" d="M 2170 1542 
L 646 1542 
L 2157 3763 
L 2170 3763 
L 2170 1542 
z
M 2682 1542 
L 2682 4538 
L 2246 4538 
L 179 1587 
L 179 1062 
L 2170 1062 
L 2170 0 
L 2682 0 
L 2682 1062 
L 3296 1062 
L 3296 1542 
L 2682 1542 
z
" transform="scale(0.015625)"/>
       </defs>
       <use xlink:href="#HelveticaNeue-33"/>
       <use xlink:href="#HelveticaNeue-2e" transform="translate(55.599991 0)"/>
       <use xlink:href="#HelveticaNeue-34" transform="translate(83.399979 0)"/>
      </g>
     </g>
    </g>
    <g id="xtick_4">
     <g id="line2d_8">
      <g>
       <use xlink:href="#ma5d43eba98" x="125.084978" y="96.828" style="stroke: #000000; stroke-width: 1.2"/>
      </g>
     </g>
     <g id="line2d_9">
      <g>
       <use xlink:href="#m7fcefb82a2" x="125.084978" y="10.8" style="stroke: #000000; stroke-width: 1.2"/>
      </g>
     </g>
     <g id="text_4">
      <!-- 3.7 -->
      <g transform="translate(119.525603 106.0405) scale(0.08 -0.08)">
       <defs>
        <path id="HelveticaNeue-37" d="M 3258 3994 
L 3258 4461 
L 320 4461 
L 320 3949 
L 2701 3949 
Q 2342 3571 2032 3123 
Q 1722 2675 1485 2172 
Q 1248 1670 1097 1123 
Q 947 576 909 0 
L 1517 0 
Q 1549 531 1696 1094 
Q 1843 1658 2076 2189 
Q 2310 2720 2611 3187 
Q 2912 3654 3258 3994 
z
" transform="scale(0.015625)"/>
       </defs>
       <use xlink:href="#HelveticaNeue-33"/>
       <use xlink:href="#HelveticaNeue-2e" transform="translate(55.599991 0)"/>
       <use xlink:href="#HelveticaNeue-37" transform="translate(83.399979 0)"/>
      </g>
     </g>
    </g>
    <g id="text_5">
     <!-- $G_2^{\text{H}}(0.5,1.0)$ -->
     <g transform="translate(69.848671 119.71675) scale(0.09 -0.09)">
      <defs>
       <path id="DejaVuSans-Oblique-47" d="M 3494 697 
L 3738 1919 
L 2700 1919 
L 2797 2438 
L 4453 2438 
L 4050 384 
Q 3634 156 3143 32 
Q 2653 -91 2156 -91 
Q 1278 -91 783 396 
Q 288 884 288 1753 
Q 288 2475 589 3126 
Q 891 3778 1422 4213 
Q 1756 4484 2153 4617 
Q 2550 4750 3034 4750 
Q 3472 4750 3873 4639 
Q 4275 4528 4641 4306 
L 4513 3634 
Q 4231 3928 3853 4083 
Q 3475 4238 3047 4238 
Q 2550 4238 2172 4048 
Q 1794 3859 1497 3463 
Q 1244 3125 1098 2667 
Q 953 2209 953 1734 
Q 953 1081 1287 751 
Q 1622 422 2284 422 
Q 2616 422 2925 492 
Q 3234 563 3494 697 
z
" transform="scale(0.015625)"/>
       <path id="DejaVuSans-48" d="M 628 4666 
L 1259 4666 
L 1259 2753 
L 3553 2753 
L 3553 4666 
L 4184 4666 
L 4184 0 
L 3553 0 
L 3553 2222 
L 1259 2222 
L 1259 0 
L 628 0 
L 628 4666 
z
" transform="scale(0.015625)"/>
       <path id="DejaVuSans-32" d="M 1228 531 
L 3431 531 
L 3431 0 
L 469 0 
L 469 531 
Q 828 903 1448 1529 
Q 2069 2156 2228 2338 
Q 2531 2678 2651 2914 
Q 2772 3150 2772 3378 
Q 2772 3750 2511 3984 
Q 2250 4219 1831 4219 
Q 1534 4219 1204 4116 
Q 875 4013 500 3803 
L 500 4441 
Q 881 4594 1212 4672 
Q 1544 4750 1819 4750 
Q 2544 4750 2975 4387 
Q 3406 4025 3406 3419 
Q 3406 3131 3298 2873 
Q 3191 2616 2906 2266 
Q 2828 2175 2409 1742 
Q 1991 1309 1228 531 
z
" transform="scale(0.015625)"/>
       <path id="DejaVuSans-28" d="M 1984 4856 
Q 1566 4138 1362 3434 
Q 1159 2731 1159 2009 
Q 1159 1288 1364 580 
Q 1569 -128 1984 -844 
L 1484 -844 
Q 1016 -109 783 600 
Q 550 1309 550 2009 
Q 550 2706 781 3412 
Q 1013 4119 1484 4856 
L 1984 4856 
z
" transform="scale(0.015625)"/>
       <path id="DejaVuSans-30" d="M 2034 4250 
Q 1547 4250 1301 3770 
Q 1056 3291 1056 2328 
Q 1056 1369 1301 889 
Q 1547 409 2034 409 
Q 2525 409 2770 889 
Q 3016 1369 3016 2328 
Q 3016 3291 2770 3770 
Q 2525 4250 2034 4250 
z
M 2034 4750 
Q 2819 4750 3233 4129 
Q 3647 3509 3647 2328 
Q 3647 1150 3233 529 
Q 2819 -91 2034 -91 
Q 1250 -91 836 529 
Q 422 1150 422 2328 
Q 422 3509 836 4129 
Q 1250 4750 2034 4750 
z
" transform="scale(0.015625)"/>
       <path id="DejaVuSans-2e" d="M 684 794 
L 1344 794 
L 1344 0 
L 684 0 
L 684 794 
z
" transform="scale(0.015625)"/>
       <path id="DejaVuSans-35" d="M 691 4666 
L 3169 4666 
L 3169 4134 
L 1269 4134 
L 1269 2991 
Q 1406 3038 1543 3061 
Q 1681 3084 1819 3084 
Q 2600 3084 3056 2656 
Q 3513 2228 3513 1497 
Q 3513 744 3044 326 
Q 2575 -91 1722 -91 
Q 1428 -91 1123 -41 
Q 819 9 494 109 
L 494 744 
Q 775 591 1075 516 
Q 1375 441 1709 441 
Q 2250 441 2565 725 
Q 2881 1009 2881 1497 
Q 2881 1984 2565 2268 
Q 2250 2553 1709 2553 
Q 1456 2553 1204 2497 
Q 953 2441 691 2322 
L 691 4666 
z
" transform="scale(0.015625)"/>
       <path id="DejaVuSans-2c" d="M 750 794 
L 1409 794 
L 1409 256 
L 897 -744 
L 494 -744 
L 750 256 
L 750 794 
z
" transform="scale(0.015625)"/>
       <path id="DejaVuSans-31" d="M 794 531 
L 1825 531 
L 1825 4091 
L 703 3866 
L 703 4441 
L 1819 4666 
L 2450 4666 
L 2450 531 
L 3481 531 
L 3481 0 
L 794 0 
L 794 531 
z
" transform="scale(0.015625)"/>
       <path id="DejaVuSans-29" d="M 513 4856 
L 1013 4856 
Q 1481 4119 1714 3412 
Q 1947 2706 1947 2009 
Q 1947 1309 1714 600 
Q 1481 -109 1013 -844 
L 513 -844 
Q 928 -128 1133 580 
Q 1338 1288 1338 2009 
Q 1338 2731 1133 3434 
Q 928 4138 513 4856 
z
" transform="scale(0.015625)"/>
      </defs>
      <use xlink:href="#DejaVuSans-Oblique-47" transform="translate(0 0.684375)"/>
      <use xlink:href="#DejaVuSans-48" transform="translate(84.690755 38.965625) scale(0.7)"/>
      <use xlink:href="#DejaVuSans-32" transform="translate(77.490234 -26.659375) scale(0.7)"/>
      <use xlink:href="#DejaVuSans-28" transform="translate(140.061849 0.684375)"/>
      <use xlink:href="#DejaVuSans-30" transform="translate(179.075521 0.684375)"/>
      <use xlink:href="#DejaVuSans-2e" transform="translate(242.698568 0.684375)"/>
      <use xlink:href="#DejaVuSans-35" transform="translate(274.485677 0.684375)"/>
      <use xlink:href="#DejaVuSans-2c" transform="translate(338.108724 0.684375)"/>
      <use xlink:href="#DejaVuSans-31" transform="translate(389.378255 0.684375)"/>
      <use xlink:href="#DejaVuSans-2e" transform="translate(453.001302 0.684375)"/>
      <use xlink:href="#DejaVuSans-30" transform="translate(484.788411 0.684375)"/>
      <use xlink:href="#DejaVuSans-29" transform="translate(548.411458 0.684375)"/>
     </g>
    </g>
   </g>
   <g id="matplotlib.axis_2">
    <g id="ytick_1">
     <g id="line2d_10">
      <defs>
       <path id="mf0f70faa5b" d="M 0 0 
L 3 0 
" style="stroke: #000000; stroke-width: 1.2"/>
      </defs>
      <g>
       <use xlink:href="#mf0f70faa5b" x="52.185" y="79.644231" style="stroke: #000000; stroke-width: 1.2"/>
      </g>
     </g>
     <g id="line2d_11">
      <defs>
       <path id="mba85cbfe9c" d="M 0 0 
L -3 0 
" style="stroke: #000000; stroke-width: 1.2"/>
      </defs>
      <g>
       <use xlink:href="#mba85cbfe9c" x="140.432342" y="79.644231" style="stroke: #000000; stroke-width: 1.2"/>
      </g>
     </g>
     <g id="text_6">
      <!-- 0.020 -->
      <g transform="translate(28.67125 82.500481) scale(0.08 -0.08)">
       <defs>
        <path id="HelveticaNeue-30" d="M 845 2234 
Q 845 2400 848 2601 
Q 851 2803 880 3004 
Q 909 3206 963 3398 
Q 1018 3590 1123 3734 
Q 1229 3878 1389 3968 
Q 1549 4058 1779 4058 
Q 2010 4058 2170 3968 
Q 2330 3878 2435 3734 
Q 2541 3590 2595 3398 
Q 2650 3206 2678 3004 
Q 2707 2803 2710 2601 
Q 2714 2400 2714 2234 
Q 2714 1978 2698 1661 
Q 2682 1344 2595 1065 
Q 2509 787 2317 595 
Q 2125 403 1779 403 
Q 1434 403 1242 595 
Q 1050 787 963 1065 
Q 877 1344 861 1661 
Q 845 1978 845 2234 
z
M 269 2227 
Q 269 1978 281 1709 
Q 294 1440 345 1184 
Q 397 928 493 701 
Q 589 474 755 301 
Q 922 128 1174 29 
Q 1427 -70 1779 -70 
Q 2138 -70 2387 29 
Q 2637 128 2803 301 
Q 2970 474 3066 701 
Q 3162 928 3213 1184 
Q 3264 1440 3277 1709 
Q 3290 1978 3290 2227 
Q 3290 2477 3277 2745 
Q 3264 3014 3213 3270 
Q 3162 3526 3066 3756 
Q 2970 3987 2803 4160 
Q 2637 4333 2384 4435 
Q 2131 4538 1779 4538 
Q 1427 4538 1174 4435 
Q 922 4333 755 4160 
Q 589 3987 493 3756 
Q 397 3526 345 3270 
Q 294 3014 281 2745 
Q 269 2477 269 2227 
z
" transform="scale(0.015625)"/>
       </defs>
       <use xlink:href="#HelveticaNeue-30"/>
       <use xlink:href="#HelveticaNeue-2e" transform="translate(55.599991 0)"/>
       <use xlink:href="#HelveticaNeue-30" transform="translate(83.399979 0)"/>
       <use xlink:href="#HelveticaNeue-32" transform="translate(138.999969 0)"/>
       <use xlink:href="#HelveticaNeue-30" transform="translate(194.59996 0)"/>
      </g>
     </g>
    </g>
    <g id="ytick_2">
     <g id="line2d_12">
      <g>
       <use xlink:href="#mf0f70faa5b" x="52.185" y="58.604035" style="stroke: #000000; stroke-width: 1.2"/>
      </g>
     </g>
     <g id="line2d_13">
      <g>
       <use xlink:href="#mba85cbfe9c" x="140.432342" y="58.604035" style="stroke: #000000; stroke-width: 1.2"/>
      </g>
     </g>
     <g id="text_7">
      <!-- 0.025 -->
      <g transform="translate(28.67125 61.460285) scale(0.08 -0.08)">
       <defs>
        <path id="HelveticaNeue-35" d="M 3008 3981 
L 3008 4461 
L 768 4461 
L 346 2106 
L 813 2080 
Q 973 2272 1181 2390 
Q 1389 2509 1658 2509 
Q 1888 2509 2077 2432 
Q 2266 2355 2400 2217 
Q 2534 2080 2608 1891 
Q 2682 1702 2682 1478 
Q 2682 1210 2605 1008 
Q 2528 806 2397 672 
Q 2266 538 2090 470 
Q 1914 403 1722 403 
Q 1517 403 1347 464 
Q 1178 525 1053 637 
Q 928 749 854 899 
Q 781 1050 768 1222 
L 224 1222 
Q 230 915 345 672 
Q 461 429 659 265 
Q 858 102 1117 16 
Q 1376 -70 1670 -70 
Q 2067 -70 2364 54 
Q 2662 179 2860 390 
Q 3059 602 3158 874 
Q 3258 1146 3258 1434 
Q 3258 1824 3142 2115 
Q 3027 2406 2828 2601 
Q 2630 2797 2361 2893 
Q 2093 2989 1792 2989 
Q 1562 2989 1328 2909 
Q 1094 2829 947 2662 
L 934 2675 
L 1178 3981 
L 3008 3981 
z
" transform="scale(0.015625)"/>
       </defs>
       <use xlink:href="#HelveticaNeue-30"/>
       <use xlink:href="#HelveticaNeue-2e" transform="translate(55.599991 0)"/>
       <use xlink:href="#HelveticaNeue-30" transform="translate(83.399979 0)"/>
       <use xlink:href="#HelveticaNeue-32" transform="translate(138.999969 0)"/>
       <use xlink:href="#HelveticaNeue-35" transform="translate(194.59996 0)"/>
      </g>
     </g>
    </g>
    <g id="ytick_3">
     <g id="line2d_14">
      <g>
       <use xlink:href="#mf0f70faa5b" x="52.185" y="37.563839" style="stroke: #000000; stroke-width: 1.2"/>
      </g>
     </g>
     <g id="line2d_15">
      <g>
       <use xlink:href="#mba85cbfe9c" x="140.432342" y="37.563839" style="stroke: #000000; stroke-width: 1.2"/>
      </g>
     </g>
     <g id="text_8">
      <!-- 0.030 -->
      <g transform="translate(28.67125 40.420089) scale(0.08 -0.08)">
       <use xlink:href="#HelveticaNeue-30"/>
       <use xlink:href="#HelveticaNeue-2e" transform="translate(55.599991 0)"/>
       <use xlink:href="#HelveticaNeue-30" transform="translate(83.399979 0)"/>
       <use xlink:href="#HelveticaNeue-33" transform="translate(138.999969 0)"/>
       <use xlink:href="#HelveticaNeue-30" transform="translate(194.59996 0)"/>
      </g>
     </g>
    </g>
    <g id="ytick_4">
     <g id="line2d_16">
      <g>
       <use xlink:href="#mf0f70faa5b" x="52.185" y="16.523642" style="stroke: #000000; stroke-width: 1.2"/>
      </g>
     </g>
     <g id="line2d_17">
      <g>
       <use xlink:href="#mba85cbfe9c" x="140.432342" y="16.523642" style="stroke: #000000; stroke-width: 1.2"/>
      </g>
     </g>
     <g id="text_9">
      <!-- 0.035 -->
      <g transform="translate(28.67125 19.379892) scale(0.08 -0.08)">
       <use xlink:href="#HelveticaNeue-30"/>
       <use xlink:href="#HelveticaNeue-2e" transform="translate(55.599991 0)"/>
       <use xlink:href="#HelveticaNeue-30" transform="translate(83.399979 0)"/>
       <use xlink:href="#HelveticaNeue-33" transform="translate(138.999969 0)"/>
       <use xlink:href="#HelveticaNeue-35" transform="translate(194.59996 0)"/>
      </g>
     </g>
    </g>
    <g id="text_10">
     <!-- $\hat{q}_{3}$ -->
     <g transform="translate(22.78125 58.854) rotate(-90) scale(0.09 -0.09)">
      <defs>
       <path id="DejaVuSans-302" d="M -1831 5119 
L -1369 5119 
L -603 3944 
L -1038 3944 
L -1600 4709 
L -2163 3944 
L -2597 3944 
L -1831 5119 
z
M -1600 3584 
L -1600 3584 
z
" transform="scale(0.015625)"/>
       <path id="DejaVuSans-Oblique-71" d="M 2669 525 
Q 2438 222 2123 65 
Q 1809 -91 1428 -91 
Q 897 -91 595 267 
Q 294 625 294 1253 
Q 294 1759 480 2231 
Q 666 2703 1013 3078 
Q 1238 3322 1530 3453 
Q 1822 3584 2144 3584 
Q 2531 3584 2781 3431 
Q 3031 3278 3144 2969 
L 3244 3494 
L 3822 3494 
L 2888 -1319 
L 2309 -1319 
L 2669 525 
z
M 891 1338 
Q 891 875 1084 633 
Q 1278 391 1644 391 
Q 2188 391 2572 911 
Q 2956 1431 2956 2175 
Q 2956 2625 2757 2864 
Q 2559 3103 2188 3103 
Q 1916 3103 1684 2976 
Q 1453 2850 1281 2606 
Q 1100 2350 995 2006 
Q 891 1663 891 1338 
z
" transform="scale(0.015625)"/>
       <path id="DejaVuSans-33" d="M 2597 2516 
Q 3050 2419 3304 2112 
Q 3559 1806 3559 1356 
Q 3559 666 3084 287 
Q 2609 -91 1734 -91 
Q 1441 -91 1130 -33 
Q 819 25 488 141 
L 488 750 
Q 750 597 1062 519 
Q 1375 441 1716 441 
Q 2309 441 2620 675 
Q 2931 909 2931 1356 
Q 2931 1769 2642 2001 
Q 2353 2234 1838 2234 
L 1294 2234 
L 1294 2753 
L 1863 2753 
Q 2328 2753 2575 2939 
Q 2822 3125 2822 3475 
Q 2822 3834 2567 4026 
Q 2313 4219 1838 4219 
Q 1578 4219 1281 4162 
Q 984 4106 628 3988 
L 628 4550 
Q 988 4650 1302 4700 
Q 1616 4750 1894 4750 
Q 2613 4750 3031 4423 
Q 3450 4097 3450 3541 
Q 3450 3153 3228 2886 
Q 3006 2619 2597 2516 
z
" transform="scale(0.015625)"/>
      </defs>
      <use xlink:href="#DejaVuSans-302" transform="translate(64.447266 13.015625)"/>
      <use xlink:href="#DejaVuSans-Oblique-71" transform="translate(0 0.515625)"/>
      <use xlink:href="#DejaVuSans-33" transform="translate(64.433594 -15.890625) scale(0.7)"/>
     </g>
    </g>
   </g>
   <g id="line2d_18">
    <path d="M 122.327249 89.835576 
L 121.727742 92.275541 
L 120.678606 90.028205 
L 119.779346 87.524031 
L 120.0791 87.909289 
L 119.479593 91.183978 
L 117.830951 90.477672 
L 117.531197 90.86293 
L 118.28058 90.927139 
L 116.631938 92.211331 
L 117.081568 90.413463 
L 115.582802 89.386109 
L 116.182308 92.917636 
L 114.983295 91.119768 
L 114.533665 91.633445 
L 112.58527 90.991349 
L 114.084036 89.899786 
L 113.034899 90.927139 
L 111.985763 87.71666 
L 110.636874 92.532379 
L 110.78675 88.615594 
L 109.887491 88.808223 
L 109.587738 92.018702 
L 108.088972 87.845079 
L 108.388725 86.817726 
L 107.189712 88.744013 
L 107.189712 85.983001 
L 106.590206 87.909289 
L 104.64181 87.909289 
L 104.342057 88.808223 
L 103.442797 88.936642 
L 102.993167 87.202983 
L 101.794154 87.202983 
L 101.944031 86.23984 
L 100.894895 88.615594 
L 98.796623 85.276696 
L 99.246252 88.615594 
L 98.946499 84.185133 
L 97.447733 90.349253 
L 94.000571 85.597744 
L 95.049708 85.533534 
L 92.951435 86.23984 
L 90.55341 82.323055 
L 90.253656 82.258845 
L 88.605014 85.597744 
L 87.406001 80.717815 
L 85.457605 81.809378 
L 84.708222 78.984157 
L 83.509209 77.507336 
L 81.410937 76.479983 
L 80.361801 75.837887 
L 78.563282 75.773678 
L 75.865503 67.041174 
L 69.121056 51.245617 
L 67.022783 46.686736 
L 63.875375 36.027945 
L 62.376609 30.120664 
L 59.67883 31.661694 
" clip-path="url(#p891bd834f8)" style="fill: none; stroke: #f14432; stroke-width: 1.5; stroke-linecap: square"/>
   </g>
   <g id="patch_3">
    <path d="M 52.185 96.828 
L 52.185 10.8 
" style="fill: none; stroke: #000000; stroke-width: 1.2; stroke-linejoin: miter; stroke-linecap: square"/>
   </g>
   <g id="patch_4">
    <path d="M 140.432342 96.828 
L 140.432342 10.8 
" style="fill: none; stroke: #000000; stroke-width: 1.2; stroke-linejoin: miter; stroke-linecap: square"/>
   </g>
   <g id="patch_5">
    <path d="M 52.185 96.828 
L 140.432342 96.828 
" style="fill: none; stroke: #000000; stroke-width: 1.2; stroke-linejoin: miter; stroke-linecap: square"/>
   </g>
   <g id="patch_6">
    <path d="M 52.185 10.8 
L 140.432342 10.8 
" style="fill: none; stroke: #000000; stroke-width: 1.2; stroke-linejoin: miter; stroke-linecap: square"/>
   </g>
   <g id="text_11">
    <!-- A -->
    <g transform="translate(122.782874 27.97155) scale(0.12 -0.12)">
     <defs>
      <path id="HelveticaNeue-41" d="M 1286 1888 
L 2061 4019 
L 2074 4019 
L 2835 1888 
L 1286 1888 
z
M 1741 4570 
L -38 0 
L 582 0 
L 1094 1376 
L 3027 1376 
L 3526 0 
L 4198 0 
L 2413 4570 
L 1741 4570 
z
" transform="scale(0.015625)"/>
     </defs>
     <use xlink:href="#HelveticaNeue-41"/>
    </g>
   </g>
   <g id="text_12">
    <!-- A -->
    <g transform="translate(122.782874 27.97155) scale(0.12 -0.12)">
     <use xlink:href="#HelveticaNeue-41"/>
    </g>
   </g>
   <g id="text_13">
    <!-- A -->
    <g transform="translate(122.782874 27.97155) scale(0.12 -0.12)">
     <use xlink:href="#HelveticaNeue-41"/>
    </g>
   </g>
   <g id="text_14">
    <!-- A -->
    <g transform="translate(122.782874 27.97155) scale(0.12 -0.12)">
     <use xlink:href="#HelveticaNeue-41"/>
    </g>
   </g>
   <g id="text_15">
    <!-- A -->
    <g transform="translate(122.782874 27.97155) scale(0.12 -0.12)">
     <use xlink:href="#HelveticaNeue-41"/>
    </g>
   </g>
   <g id="text_16">
    <!-- A -->
    <g transform="translate(122.782874 27.97155) scale(0.12 -0.12)">
     <use xlink:href="#HelveticaNeue-41"/>
    </g>
   </g>
   <g id="text_17">
    <!-- A -->
    <g transform="translate(122.782874 27.97155) scale(0.12 -0.12)">
     <use xlink:href="#HelveticaNeue-41"/>
    </g>
   </g>
   <g id="line2d_19">
    <path d="M 122.027495 86.047211 
L 122.776878 89.000852 
L 120.678606 90.220834 
L 120.828483 86.111421 
L 120.228976 91.440816 
L 120.378853 88.166127 
L 120.0791 88.487175 
L 117.681074 88.936642 
L 117.830951 89.3219 
L 116.631938 88.487175 
L 117.381321 88.294546 
L 116.032431 91.890283 
L 114.983295 89.129271 
L 115.133172 90.670301 
L 115.133172 87.909289 
L 114.383789 89.835576 
L 113.484529 89.129271 
L 112.735146 88.358756 
L 112.13564 90.734511 
L 111.68601 89.963996 
L 111.536133 84.827229 
L 110.636874 90.670301 
L 108.988231 88.872433 
L 108.988231 87.845079 
L 108.838355 84.506181 
L 108.538601 85.405115 
L 108.088972 88.487175 
L 106.889959 83.928295 
L 105.541069 87.395612 
L 104.342057 88.872433 
L 104.491933 86.625097 
L 103.892427 87.331403 
L 103.442797 87.459822 
L 102.093908 89.000852 
L 100.595142 87.845079 
L 100.595142 85.854582 
L 98.796623 89.771367 
L 98.04724 84.6346 
L 96.548474 84.955648 
L 96.398597 84.185133 
L 95.948967 82.258845 
L 94.300325 83.478828 
L 93.251188 82.066217 
L 91.452669 82.579893 
L 89.504273 81.038863 
L 89.65415 83.221989 
L 88.605014 80.653606 
L 87.106248 82.965151 
L 84.258592 78.47048 
L 83.509209 78.727318 
L 80.062048 76.223145 
L 78.863035 72.948456 
L 76.015379 67.811689 
L 70.320069 59.143395 
L 68.221796 52.979275 
L 65.524017 46.237269 
L 63.425745 43.283628 
L 59.828707 32.753257 
" clip-path="url(#p891bd834f8)" style="fill: none; stroke: #bc141a; stroke-width: 1.5; stroke-linecap: square"/>
   </g>
   <g id="text_18">
    <!-- A -->
    <g transform="translate(122.782874 27.97155) scale(0.12 -0.12)">
     <use xlink:href="#HelveticaNeue-41"/>
    </g>
   </g>
   <g id="text_19">
    <!-- A -->
    <g transform="translate(122.782874 27.97155) scale(0.12 -0.12)">
     <use xlink:href="#HelveticaNeue-41"/>
    </g>
   </g>
   <g id="text_20">
    <!-- A -->
    <g transform="translate(122.782874 27.97155) scale(0.12 -0.12)">
     <use xlink:href="#HelveticaNeue-41"/>
    </g>
   </g>
   <g id="line2d_20">
    <path d="M 121.877619 87.202983 
L 121.128236 89.386109 
L 120.678606 87.652451 
L 120.0791 89.3219 
L 119.779346 88.230337 
L 118.430457 87.138774 
L 119.029963 92.018702 
L 118.580334 88.422966 
L 117.830951 87.588241 
L 117.381321 90.349253 
L 116.781814 88.808223 
L 116.032431 88.101918 
L 115.283048 88.551385 
L 114.383789 87.074564 
L 114.233912 86.817726 
L 114.233912 89.000852 
L 113.334653 87.909289 
L 111.835887 89.129271 
L 111.835887 90.220834 
L 111.536133 91.312397 
L 110.78675 89.707157 
L 109.737614 87.395612 
L 108.988231 85.276696 
L 109.287984 91.055558 
L 108.538601 85.661953 
L 107.039835 87.459822 
L 107.639342 87.845079 
L 106.140576 86.17563 
L 105.541069 86.047211 
L 103.74255 85.340906 
L 104.491933 86.946145 
L 103.143044 83.350408 
L 101.944031 81.61675 
L 101.194648 86.432468 
L 101.494401 84.441971 
L 99.995635 84.056714 
L 99.695882 84.570391 
L 98.496869 81.295702 
L 98.197116 83.992504 
L 96.24872 85.790373 
L 95.799091 84.763019 
L 93.700818 83.414618 
L 93.101312 80.268348 
L 91.602546 84.249343 
L 90.853163 82.836732 
L 90.703286 80.910444 
L 87.855631 81.038863 
L 86.956371 81.48833 
L 86.956371 84.185133 
L 83.808963 80.717815 
L 82.60995 80.525187 
L 80.811431 81.295702 
L 76.914639 70.315863 
L 75.56575 70.572701 
L 73.467477 67.74748 
L 68.821303 63.959114 
L 66.2734 48.099347 
L 63.125992 42.834161 
" clip-path="url(#p891bd834f8)" style="fill: none; stroke: #67000d; stroke-width: 1.5; stroke-linecap: square"/>
   </g>
   <g id="line2d_21">
    <path d="M 121.727742 83.864085 
L 121.278112 84.827229 
L 120.678606 80.589396 
L 120.0791 84.249343 
L 119.17984 87.973498 
L 119.17984 87.524031 
L 118.430457 87.202983 
L 118.28058 84.506181 
L 117.231444 85.790373 
L 117.231444 84.955648 
L 115.732678 84.827229 
L 115.283048 89.450319 
L 115.133172 84.185133 
L 113.934159 88.101918 
L 113.634406 85.084067 
L 113.934159 84.69881 
L 112.58527 87.588241 
L 111.68601 86.304049 
L 111.68601 86.753516 
L 110.936627 88.294546 
L 109.887491 86.111421 
L 110.187244 83.735666 
L 109.437861 86.625097 
L 108.688478 85.726163 
L 107.939095 85.661953 
L 106.590206 87.973498 
L 106.140576 88.166127 
L 105.09144 84.056714 
L 104.491933 87.395612 
L 104.342057 88.872433 
L 103.892427 85.854582 
L 102.243784 85.918792 
L 102.543537 83.864085 
L 101.644278 82.965151 
L 101.044771 85.084067 
L 99.246252 84.120923 
L 100.295389 86.047211 
L 98.646746 85.212486 
L 96.848227 82.194636 
L 96.548474 86.560888 
L 95.499337 85.019858 
L 94.600078 83.029361 
L 94.150448 85.340906 
L 92.501805 82.323055 
L 92.202052 84.120923 
L 90.55341 82.387265 
L 89.354397 81.745169 
L 88.605014 82.708313 
L 86.656618 83.286199 
L 85.457605 80.525187 
L 83.209456 77.443127 
L 82.010443 75.067372 
L 80.361801 72.884246 
L 77.214392 72.563198 
L 73.317601 65.564354 
L 70.919575 57.473946 
L 67.472413 43.861515 
L 65.524017 46.429898 
L 62.526485 46.686736 
" clip-path="url(#p891bd834f8)" style="fill: none; stroke: #67000d; stroke-width: 1.5; stroke-linecap: square"/>
   </g>
   <g id="line2d_22">
    <path d="M 72.867971 36.027945 
L 74.366737 36.541622 
L 73.917107 37.761604 
L 74.21686 38.018442 
L 74.516613 39.88052 
L 75.265996 37.697395 
L 75.265996 41.871017 
L 76.315133 39.110005 
L 76.165256 42.577323 
L 77.364269 42.705742 
L 77.064516 39.431053 
L 77.514145 42.705742 
L 78.413405 44.246772 
L 79.162788 42.127856 
L 79.012911 40.651035 
L 80.511677 46.17306 
L 81.860567 47.842509 
L 81.71069 54.327677 
L 82.460073 54.841353 
L 84.858099 59.079186 
L 86.356865 65.564354 
L 89.054644 62.610713 
L 88.605014 68.774833 
L 91.152916 75.067372 
L 92.801559 76.801031 
L 92.202052 75.709468 
L 93.550942 76.415773 
L 94.450201 78.984157 
L 95.499337 78.919947 
L 95.349461 78.277851 
L 96.24872 78.984157 
L 96.998103 78.149432 
L 97.297857 76.479983 
L 97.447733 79.562043 
L 99.396129 81.61675 
L 98.346993 81.424121 
L 99.246252 79.176785 
L 98.346993 75.260001 
L 98.946499 77.378917 
L 99.546006 82.772522 
L 101.794154 76.672612 
L 102.093908 77.956803 
L 102.993167 77.057869 
L 102.243784 77.892594 
L 101.944031 79.240995 
L 103.892427 82.258845 
L 104.64181 79.112576 
L 105.09144 80.139929 
L 104.64181 84.827229 
L 105.541069 84.056714 
L 105.391193 83.735666 
L 105.391193 82.965151 
L 106.440329 81.937798 
L 106.290452 86.368259 
L 106.740082 82.772522 
L 109.737614 86.111421 
L 107.789218 86.368259 
L 108.688478 82.194636 
L 108.088972 86.560888 
L 109.287984 86.047211 
L 108.838355 82.258845 
L 109.437861 85.469325 
L 110.187244 84.120923 
L 110.78675 88.101918 
L 111.835887 86.817726 
L 111.985763 86.817726 
L 111.23638 85.983001 
L 111.985763 85.469325 
L 111.68601 85.597744 
L 111.835887 86.560888 
L 112.13564 88.487175 
L 112.285516 87.010355 
L 113.334653 89.514528 
L 114.084036 88.744013 
L 113.634406 85.983001 
L 114.683542 90.670301 
L 114.833419 89.3219 
L 115.283048 88.551385 
L 116.781814 86.753516 
L 116.182308 91.248187 
L 117.231444 87.78087 
L 118.130704 88.166127 
L 117.381321 90.349253 
L 117.830951 91.183978 
L 117.830951 89.899786 
L 119.029963 87.78087 
L 119.17984 86.560888 
L 118.580334 87.267193 
L 119.029963 89.3219 
L 119.479593 90.606091 
L 119.779346 88.936642 
L 120.228976 92.660798 
L 120.678606 91.761864 
L 119.929223 89.450319 
L 120.528729 87.71666 
L 120.378853 88.551385 
L 121.427989 89.25769 
" clip-path="url(#p891bd834f8)" style="fill: none; stroke: #94c4df; stroke-width: 1.5; stroke-linecap: square"/>
   </g>
   <g id="line2d_23">
    <path d="M 73.76723 34.101658 
L 73.917107 34.872173 
L 74.516613 34.294287 
L 75.265996 40.329987 
L 75.715626 37.119508 
L 75.715626 35.000592 
L 76.914639 36.284784 
L 76.465009 38.981586 
L 78.113652 40.137359 
L 78.413405 41.54997 
L 79.462541 39.366844 
L 78.263528 38.660538 
L 78.713158 41.742598 
L 78.863035 40.329987 
L 80.062048 39.495263 
L 80.811431 42.898371 
L 80.661554 42.577323 
L 81.860567 44.63203 
L 82.909703 44.054143 
L 82.310197 45.017287 
L 83.958839 50.218263 
L 86.206988 50.860359 
L 87.406001 55.997126 
L 89.65415 64.729629 
L 92.351929 73.590552 
L 92.202052 74.104228 
L 93.101312 69.673767 
L 94.450201 73.141085 
L 95.649214 72.627408 
L 95.199584 75.773678 
L 96.998103 78.727318 
L 96.998103 77.956803 
L 97.747486 75.645258 
L 98.04724 76.158935 
L 98.796623 75.709468 
L 98.646746 74.938953 
L 98.646746 76.92945 
L 99.845759 76.86524 
L 100.295389 75.260001 
L 99.995635 80.268348 
L 101.344525 81.167283 
L 101.344525 78.919947 
L 102.243784 81.680959 
L 102.693414 83.09357 
L 101.944031 78.021013 
L 102.243784 80.846235 
L 104.19218 82.644103 
L 104.791686 83.09357 
L 105.391193 80.589396 
L 104.042303 79.818881 
L 104.342057 82.836732 
L 104.342057 80.268348 
L 105.690946 80.460977 
L 106.140576 83.671456 
L 106.290452 83.221989 
L 106.590206 81.937798 
L 107.939095 82.258845 
L 107.039835 84.249343 
L 108.238848 84.891438 
L 109.138108 86.23984 
L 108.238848 82.451474 
L 108.988231 86.368259 
L 109.587738 84.763019 
L 109.887491 83.15778 
L 109.887491 84.6346 
L 110.936627 85.212486 
L 110.636874 86.17563 
L 110.936627 88.294546 
L 111.23638 84.185133 
L 112.285516 81.424121 
L 113.034899 86.432468 
L 113.484529 84.827229 
L 113.934159 83.09357 
L 114.833419 88.422966 
L 115.283048 85.019858 
L 115.133172 85.469325 
L 114.833419 88.166127 
L 114.533665 89.25769 
L 116.032431 83.799876 
L 115.882555 86.047211 
L 116.482061 88.358756 
L 116.332185 88.422966 
L 117.081568 86.047211 
L 118.28058 83.864085 
L 116.482061 85.276696 
L 117.980827 86.689307 
L 117.681074 84.506181 
L 117.980827 84.827229 
L 118.580334 84.570391 
L 119.17984 86.304049 
L 119.779346 88.744013 
L 118.73021 84.313552 
L 119.479593 86.111421 
L 119.62947 84.056714 
L 120.828483 88.872433 
L 120.828483 86.368259 
L 120.378853 87.524031 
" clip-path="url(#p891bd834f8)" style="fill: none; stroke: #4a98c9; stroke-width: 1.5; stroke-linecap: square"/>
   </g>
   <g id="line2d_24">
    <path d="M 73.76723 38.275281 
L 74.21686 34.936382 
L 74.966243 36.734251 
L 74.816367 36.156365 
L 76.015379 35.642688 
L 76.465009 38.275281 
L 77.064516 37.568975 
L 78.113652 37.055299 
L 77.364269 40.201568 
L 77.514145 38.917377 
L 79.312665 39.302634 
L 79.462541 37.761604 
L 80.361801 41.100502 
L 79.462541 40.843664 
L 80.661554 42.256275 
L 80.961307 43.797305 
L 81.560814 41.935227 
L 82.60995 39.045796 
L 81.71069 42.577323 
L 83.958839 43.668886 
L 83.359333 41.871017 
L 86.506741 53.043485 
L 87.555878 52.20876 
L 87.705754 53.814 
L 88.305261 58.308671 
L 89.054644 57.538156 
L 90.10378 58.822348 
L 91.602546 64.793839 
L 92.501805 66.463288 
L 94.300325 71.792683 
L 96.098844 72.30636 
L 96.848227 72.498989 
L 96.998103 74.168438 
L 97.14798 70.957959 
L 98.796623 71.921103 
L 98.04724 74.168438 
L 99.246252 73.141085 
L 99.396129 74.425276 
L 99.695882 75.32421 
L 100.745018 75.32421 
L 100.145512 76.92945 
L 101.944031 76.92945 
L 102.393661 78.855738 
L 102.693414 75.067372 
L 102.543537 75.131582 
L 103.29292 78.213642 
L 103.29292 78.919947 
L 104.19218 80.07572 
L 104.491933 76.608402 
L 104.64181 77.186288 
L 105.09144 77.956803 
L 105.391193 77.699965 
L 105.990699 79.112576 
L 107.039835 81.680959 
L 107.339589 78.919947 
L 107.339589 82.836732 
L 108.088972 79.883091 
L 108.238848 79.562043 
L 107.939095 79.626253 
L 109.138108 83.543037 
L 108.988231 80.589396 
L 108.538601 79.112576 
L 110.78675 84.891438 
L 111.386257 82.644103 
L 111.386257 85.469325 
L 111.68601 84.955648 
L 112.58527 81.745169 
L 112.285516 83.15778 
L 112.885023 84.6346 
L 113.334653 83.992504 
L 113.334653 83.543037 
L 114.683542 82.002007 
L 114.233912 83.286199 
L 114.983295 85.726163 
L 114.084036 85.790373 
L 114.533665 85.084067 
L 114.533665 87.524031 
L 115.133172 84.441971 
L 116.032431 82.836732 
L 117.381321 83.09357 
L 116.182308 85.918792 
L 117.081568 83.543037 
L 117.381321 82.387265 
L 117.980827 83.09357 
L 117.531197 86.817726 
L 116.631938 86.111421 
L 118.28058 88.230337 
L 118.880087 86.111421 
L 119.62947 86.946145 
L 120.528729 87.202983 
L 120.678606 88.679804 
L 120.978359 85.854582 
L 120.528729 88.551385 
L 121.128236 88.744013 
L 121.877619 84.763019 
L 121.427989 88.230337 
L 122.477125 85.790373 
" clip-path="url(#p891bd834f8)" style="fill: none; stroke: #1764ab; stroke-width: 1.5; stroke-linecap: square"/>
   </g>
   <g id="line2d_25">
    <path d="M 74.66649 35.771107 
L 75.265996 31.533275 
L 75.56575 35.963736 
L 76.165256 42.320485 
L 76.764762 39.302634 
L 77.514145 35.38585 
L 77.514145 36.79846 
L 77.963775 35.064802 
L 77.813899 35.32164 
L 79.162788 41.036293 
L 79.912171 40.201568 
L 81.111184 42.127856 
L 81.26106 40.651035 
L 81.111184 42.192065 
L 80.961307 42.320485 
L 82.60995 42.577323 
L 82.310197 40.201568 
L 82.60995 41.614179 
L 83.05958 37.954233 
L 84.258592 39.174215 
L 84.258592 42.898371 
L 84.258592 44.953077 
L 85.607482 45.980431 
L 86.206988 44.888868 
L 87.106248 44.375191 
L 88.305261 45.081497 
L 88.005507 48.869862 
L 89.354397 53.043485 
L 90.703286 50.154054 
L 91.152916 55.35503 
L 92.351929 63.445438 
L 95.049708 65.435935 
L 95.349461 69.095881 
L 95.499337 64.537 
L 95.649214 64.922258 
L 96.548474 68.710623 
L 97.747486 68.839043 
L 97.897363 68.710623 
L 99.096376 68.325366 
L 100.445265 73.654761 
L 100.445265 75.003163 
L 102.243784 76.92945 
L 102.693414 75.837887 
L 102.843291 74.232648 
L 102.543537 78.855738 
L 102.693414 77.314708 
L 103.74255 77.314708 
L 104.19218 78.855738 
L 104.64181 79.9473 
L 105.840823 80.717815 
L 106.290452 80.139929 
L 106.590206 82.644103 
L 107.939095 79.690462 
L 108.088972 84.120923 
L 108.388725 83.607247 
L 108.388725 82.130426 
L 108.988231 79.690462 
L 109.437861 83.478828 
L 110.636874 80.525187 
L 111.086504 84.056714 
L 110.486997 80.268348 
L 111.23638 84.377762 
L 111.68601 81.745169 
L 111.68601 81.359911 
L 112.285516 82.836732 
L 112.13564 81.103073 
L 113.484529 83.029361 
L 112.735146 83.09357 
L 112.885023 81.61675 
L 113.934159 80.589396 
L 114.084036 82.965151 
L 114.233912 84.827229 
L 114.833419 82.387265 
L 114.233912 82.900941 
L 115.283048 84.570391 
L 115.283048 84.056714 
L 115.432925 83.029361 
L 116.631938 83.992504 
L 116.332185 81.61675 
L 117.231444 83.350408 
L 116.931691 84.313552 
L 117.531197 83.864085 
L 117.980827 86.689307 
L 118.580334 82.965151 
L 118.73021 81.873588 
L 119.329717 86.753516 
L 119.779346 87.652451 
L 119.17984 83.607247 
L 119.329717 87.973498 
L 120.828483 86.689307 
L 119.779346 81.295702 
L 120.828483 85.084067 
L 120.978359 86.817726 
L 121.577866 87.588241 
L 120.978359 86.625097 
L 121.427989 84.891438 
L 122.027495 86.817726 
" clip-path="url(#p891bd834f8)" style="fill: none; stroke: #08306b; stroke-width: 1.5; stroke-linecap: square"/>
   </g>
   <g id="line2d_26">
    <path d="M 76.165256 33.010095 
L 76.165256 34.679544 
L 76.465009 39.623682 
L 76.914639 37.954233 
L 77.664022 38.788957 
L 78.113652 33.973239 
L 78.413405 38.917377 
L 79.012911 36.991089 
L 79.012911 37.055299 
L 79.012911 37.440556 
L 80.511677 34.807963 
L 80.661554 38.33949 
L 80.661554 38.788957 
L 81.26106 37.568975 
L 82.010443 38.788957 
L 82.460073 39.687892 
L 82.759826 33.138514 
L 83.209456 40.522616 
L 83.209456 41.935227 
L 83.958839 38.4037 
L 84.558346 41.42155 
L 85.157852 43.091 
L 85.757358 40.137359 
L 86.506741 41.614179 
L 87.256124 44.182562 
L 87.406001 46.04464 
L 88.904767 47.328832 
L 88.904767 48.548814 
L 89.20452 44.953077 
L 89.953903 47.457251 
L 90.253656 46.879365 
L 90.703286 52.722437 
L 93.101312 53.814 
L 93.550942 57.923413 
L 94.300325 58.758138 
L 94.450201 59.91391 
L 96.69835 64.087533 
L 97.897363 66.527498 
L 98.496869 72.627408 
L 99.096376 66.784336 
L 100.295389 74.489486 
L 100.595142 70.508492 
L 101.494401 75.32421 
L 102.243784 75.45263 
L 102.843291 74.682115 
L 104.042303 77.314708 
L 104.342057 79.112576 
L 103.592674 77.892594 
L 105.690946 83.350408 
L 105.391193 78.277851 
L 105.690946 79.112576 
L 106.740082 80.653606 
L 106.889959 77.057869 
L 107.339589 79.240995 
L 107.039835 79.562043 
L 107.789218 78.663109 
L 107.939095 84.185133 
L 108.238848 82.066217 
L 108.688478 81.103073 
L 109.287984 81.424121 
L 109.737614 82.579893 
L 110.486997 78.149432 
L 110.037367 81.167283 
L 110.337121 78.342061 
L 111.68601 81.038863 
L 111.68601 83.09357 
L 112.435393 81.103073 
L 111.835887 83.15778 
L 112.735146 81.937798 
L 113.184776 82.836732 
L 113.184776 80.589396 
L 113.634406 80.460977 
L 113.934159 80.139929 
L 114.383789 81.809378 
L 115.133172 83.029361 
L 115.283048 80.268348 
L 115.283048 82.258845 
L 115.133172 84.120923 
L 115.732678 84.891438 
L 115.882555 82.258845 
L 116.332185 85.019858 
L 116.781814 84.377762 
L 117.531197 83.928295 
L 117.381321 85.340906 
L 117.681074 85.661953 
L 118.28058 87.074564 
L 118.28058 84.891438 
L 118.73021 85.084067 
L 118.580334 83.671456 
L 118.880087 84.056714 
L 119.62947 85.148277 
L 119.329717 84.506181 
L 119.329717 85.084067 
L 120.228976 86.304049 
L 120.828483 84.6346 
L 121.427989 85.148277 
L 121.577866 87.395612 
" clip-path="url(#p891bd834f8)" style="fill: none; stroke: #08306b; stroke-width: 1.5; stroke-linecap: square"/>
   </g>
  </g>
  <g id="axes_2">
   <g id="patch_7">
    <path d="M 152.952658 96.828 
L 241.2 96.828 
L 241.2 10.8 
L 152.952658 10.8 
z
" style="fill: #ffffff"/>
   </g>
   <g id="line2d_27">
    <path d="M 232.537133 89.386109 
L 231.487996 89.642948 
L 232.387256 88.808223 
L 232.387256 88.487175 
L 232.087503 88.358756 
L 231.33812 88.487175 
L 230.139107 89.129271 
L 229.839354 90.092415 
L 228.940094 86.753516 
L 229.389724 89.129271 
L 227.441328 89.578738 
L 227.890958 89.25769 
L 226.991698 87.845079 
L 225.942562 88.936642 
L 225.642809 89.3219 
L 223.694413 86.946145 
L 223.84429 87.331403 
L 223.694413 86.817726 
L 222.045771 89.642948 
L 222.4954 88.422966 
L 221.296388 84.763019 
L 221.296388 88.230337 
L 219.797622 85.212486 
L 218.448732 88.487175 
L 216.80009 89.963996 
L 217.399596 87.524031 
L 216.050707 86.817726 
L 215.601077 87.010355 
L 213.952434 88.037708 
L 215.301324 88.744013 
L 214.402064 88.166127 
L 211.704285 89.000852 
L 211.554409 86.753516 
L 212.153915 90.734511 
L 209.905766 86.496678 
L 209.006506 86.17563 
L 209.30626 88.422966 
L 207.807494 84.506181 
L 205.709221 85.276696 
L 204.809962 84.377762 
L 203.461072 83.799876 
L 203.011442 84.891438 
L 201.212923 82.836732 
L 200.313664 79.497833 
L 199.414404 78.598899 
L 198.814898 81.231492 
L 197.615885 80.332558 
L 196.716625 82.451474 
L 195.967242 78.40627 
L 194.468476 85.148277 
L 192.819834 79.112576 
L 191.171191 76.86524 
L 186.37514 68.517995 
L 180.380076 50.66773 
L 178.88131 45.274125 
L 175.284271 41.54997 
L 173.935382 32.945885 
L 172.436616 28.065957 
L 170.338344 31.918532 
" clip-path="url(#p692d2a0edc)" style="fill: none; stroke: #fc8a6a; stroke-width: 1.5; stroke-linecap: square"/>
   </g>
   <g id="matplotlib.axis_3">
    <g id="xtick_5">
     <g id="line2d_28">
      <g>
       <use xlink:href="#ma5d43eba98" x="156.789499" y="96.828" style="stroke: #000000; stroke-width: 1.2"/>
      </g>
     </g>
     <g id="line2d_29">
      <g>
       <use xlink:href="#m7fcefb82a2" x="156.789499" y="10.8" style="stroke: #000000; stroke-width: 1.2"/>
      </g>
     </g>
     <g id="text_21">
      <!-- 2.8 -->
      <g transform="translate(151.230124 106.0405) scale(0.08 -0.08)">
       <use xlink:href="#HelveticaNeue-32"/>
       <use xlink:href="#HelveticaNeue-2e" transform="translate(55.599991 0)"/>
       <use xlink:href="#HelveticaNeue-38" transform="translate(83.399979 0)"/>
      </g>
     </g>
    </g>
    <g id="xtick_6">
     <g id="line2d_30">
      <g>
       <use xlink:href="#ma5d43eba98" x="179.810545" y="96.828" style="stroke: #000000; stroke-width: 1.2"/>
      </g>
     </g>
     <g id="line2d_31">
      <g>
       <use xlink:href="#m7fcefb82a2" x="179.810545" y="10.8" style="stroke: #000000; stroke-width: 1.2"/>
      </g>
     </g>
     <g id="text_22">
      <!-- 3.1 -->
      <g transform="translate(174.25117 106.0405) scale(0.08 -0.08)">
       <use xlink:href="#HelveticaNeue-33"/>
       <use xlink:href="#HelveticaNeue-2e" transform="translate(55.599991 0)"/>
       <use xlink:href="#HelveticaNeue-31" transform="translate(83.399979 0)"/>
      </g>
     </g>
    </g>
    <g id="xtick_7">
     <g id="line2d_32">
      <g>
       <use xlink:href="#ma5d43eba98" x="202.83159" y="96.828" style="stroke: #000000; stroke-width: 1.2"/>
      </g>
     </g>
     <g id="line2d_33">
      <g>
       <use xlink:href="#m7fcefb82a2" x="202.83159" y="10.8" style="stroke: #000000; stroke-width: 1.2"/>
      </g>
     </g>
     <g id="text_23">
      <!-- 3.4 -->
      <g transform="translate(197.272215 106.0405) scale(0.08 -0.08)">
       <use xlink:href="#HelveticaNeue-33"/>
       <use xlink:href="#HelveticaNeue-2e" transform="translate(55.599991 0)"/>
       <use xlink:href="#HelveticaNeue-34" transform="translate(83.399979 0)"/>
      </g>
     </g>
    </g>
    <g id="xtick_8">
     <g id="line2d_34">
      <g>
       <use xlink:href="#ma5d43eba98" x="225.852636" y="96.828" style="stroke: #000000; stroke-width: 1.2"/>
      </g>
     </g>
     <g id="line2d_35">
      <g>
       <use xlink:href="#m7fcefb82a2" x="225.852636" y="10.8" style="stroke: #000000; stroke-width: 1.2"/>
      </g>
     </g>
     <g id="text_24">
      <!-- 3.7 -->
      <g transform="translate(220.293261 106.0405) scale(0.08 -0.08)">
       <use xlink:href="#HelveticaNeue-33"/>
       <use xlink:href="#HelveticaNeue-2e" transform="translate(55.599991 0)"/>
       <use xlink:href="#HelveticaNeue-37" transform="translate(83.399979 0)"/>
      </g>
     </g>
    </g>
    <g id="text_25">
     <!-- $G_2^{\text{H}}(0.5,1.0)$ -->
     <g transform="translate(170.616329 119.71675) scale(0.09 -0.09)">
      <use xlink:href="#DejaVuSans-Oblique-47" transform="translate(0 0.684375)"/>
      <use xlink:href="#DejaVuSans-48" transform="translate(84.690755 38.965625) scale(0.7)"/>
      <use xlink:href="#DejaVuSans-32" transform="translate(77.490234 -26.659375) scale(0.7)"/>
      <use xlink:href="#DejaVuSans-28" transform="translate(140.061849 0.684375)"/>
      <use xlink:href="#DejaVuSans-30" transform="translate(179.075521 0.684375)"/>
      <use xlink:href="#DejaVuSans-2e" transform="translate(242.698568 0.684375)"/>
      <use xlink:href="#DejaVuSans-35" transform="translate(274.485677 0.684375)"/>
      <use xlink:href="#DejaVuSans-2c" transform="translate(338.108724 0.684375)"/>
      <use xlink:href="#DejaVuSans-31" transform="translate(389.378255 0.684375)"/>
      <use xlink:href="#DejaVuSans-2e" transform="translate(453.001302 0.684375)"/>
      <use xlink:href="#DejaVuSans-30" transform="translate(484.788411 0.684375)"/>
      <use xlink:href="#DejaVuSans-29" transform="translate(548.411458 0.684375)"/>
     </g>
    </g>
   </g>
   <g id="matplotlib.axis_4">
    <g id="ytick_5">
     <g id="line2d_36">
      <g>
       <use xlink:href="#mf0f70faa5b" x="152.952658" y="79.644231" style="stroke: #000000; stroke-width: 1.2"/>
      </g>
     </g>
     <g id="line2d_37">
      <g>
       <use xlink:href="#mba85cbfe9c" x="241.2" y="79.644231" style="stroke: #000000; stroke-width: 1.2"/>
      </g>
     </g>
    </g>
    <g id="ytick_6">
     <g id="line2d_38">
      <g>
       <use xlink:href="#mf0f70faa5b" x="152.952658" y="58.604035" style="stroke: #000000; stroke-width: 1.2"/>
      </g>
     </g>
     <g id="line2d_39">
      <g>
       <use xlink:href="#mba85cbfe9c" x="241.2" y="58.604035" style="stroke: #000000; stroke-width: 1.2"/>
      </g>
     </g>
    </g>
    <g id="ytick_7">
     <g id="line2d_40">
      <g>
       <use xlink:href="#mf0f70faa5b" x="152.952658" y="37.563839" style="stroke: #000000; stroke-width: 1.2"/>
      </g>
     </g>
     <g id="line2d_41">
      <g>
       <use xlink:href="#mba85cbfe9c" x="241.2" y="37.563839" style="stroke: #000000; stroke-width: 1.2"/>
      </g>
     </g>
    </g>
    <g id="ytick_8">
     <g id="line2d_42">
      <g>
       <use xlink:href="#mf0f70faa5b" x="152.952658" y="16.523642" style="stroke: #000000; stroke-width: 1.2"/>
      </g>
     </g>
     <g id="line2d_43">
      <g>
       <use xlink:href="#mba85cbfe9c" x="241.2" y="16.523642" style="stroke: #000000; stroke-width: 1.2"/>
      </g>
     </g>
    </g>
   </g>
   <g id="line2d_44">
    <path d="M 233.286516 89.835576 
L 234.035899 88.294546 
L 234.035899 91.312397 
L 231.78775 88.615594 
L 231.78775 89.065061 
L 230.139107 87.909289 
L 230.738613 90.927139 
L 229.689477 91.505026 
L 229.689477 89.835576 
L 229.539601 92.018702 
L 228.190711 89.642948 
L 227.141575 89.963996 
L 226.242315 85.340906 
L 225.942562 91.248187 
L 225.942562 88.615594 
L 225.942562 89.129271 
L 224.593673 89.642948 
L 224.144043 87.331403 
L 222.195647 90.092415 
L 221.746017 90.413463 
L 221.146511 86.17563 
L 220.547005 89.386109 
L 220.996634 90.156624 
L 219.647745 88.358756 
L 218.898362 88.294546 
L 218.448732 87.524031 
L 217.999102 89.450319 
L 216.949966 89.3219 
L 215.750953 88.936642 
L 214.851694 85.726163 
L 214.701817 89.065061 
L 212.603545 83.029361 
L 211.854162 87.71666 
L 211.404532 88.551385 
L 211.254655 86.23984 
L 209.755889 88.422966 
L 207.807494 88.551385 
L 207.95737 84.441971 
L 206.908234 82.836732 
L 204.809962 83.671456 
L 205.409468 81.55254 
L 204.210455 82.836732 
L 203.461072 84.506181 
L 201.81243 87.395612 
L 200.763293 84.506181 
L 201.81243 82.194636 
L 200.163787 84.955648 
L 198.065515 84.955648 
L 195.817366 78.663109 
L 194.168723 79.690462 
L 192.669957 77.828384 
L 191.470944 76.351564 
L 187.574153 69.481138 
L 182.478348 47.906718 
L 177.082791 31.918532 
L 176.183531 31.790113 
L 175.434148 22.800771 
L 172.136863 26.524927 
" clip-path="url(#p692d2a0edc)" style="fill: none; stroke: #f14432; stroke-width: 1.5; stroke-linecap: square"/>
   </g>
   <g id="patch_8">
    <path d="M 152.952658 96.828 
L 152.952658 10.8 
" style="fill: none; stroke: #000000; stroke-width: 1.2; stroke-linejoin: miter; stroke-linecap: square"/>
   </g>
   <g id="patch_9">
    <path d="M 241.2 96.828 
L 241.2 10.8 
" style="fill: none; stroke: #000000; stroke-width: 1.2; stroke-linejoin: miter; stroke-linecap: square"/>
   </g>
   <g id="patch_10">
    <path d="M 152.952658 96.828 
L 241.2 96.828 
" style="fill: none; stroke: #000000; stroke-width: 1.2; stroke-linejoin: miter; stroke-linecap: square"/>
   </g>
   <g id="patch_11">
    <path d="M 152.952658 10.8 
L 241.2 10.8 
" style="fill: none; stroke: #000000; stroke-width: 1.2; stroke-linejoin: miter; stroke-linecap: square"/>
   </g>
   <g id="text_26">
    <!-- B -->
    <g transform="translate(223.550532 27.97155) scale(0.12 -0.12)">
     <defs>
      <path id="HelveticaNeue-42" d="M 1107 2605 
L 1107 4058 
L 2323 4058 
Q 2522 4058 2698 4035 
Q 2874 4013 3008 3936 
Q 3142 3859 3219 3718 
Q 3296 3578 3296 3334 
Q 3296 2970 3069 2787 
Q 2842 2605 2323 2605 
L 1107 2605 
z
M 499 4570 
L 499 0 
L 2707 0 
Q 3046 0 3305 112 
Q 3565 224 3741 406 
Q 3917 589 4006 825 
Q 4096 1062 4096 1312 
Q 4096 1734 3872 2028 
Q 3648 2323 3226 2413 
L 3226 2426 
Q 3552 2554 3728 2819 
Q 3904 3085 3904 3450 
Q 3904 3795 3747 4032 
Q 3590 4269 3366 4403 
Q 3264 4467 3120 4499 
Q 2976 4531 2809 4547 
Q 2643 4563 2473 4566 
Q 2304 4570 2157 4570 
L 499 4570 
z
M 1107 512 
L 1107 2093 
L 2496 2093 
Q 2688 2093 2867 2057 
Q 3046 2022 3184 1936 
Q 3322 1850 3405 1702 
Q 3488 1555 3488 1331 
Q 3488 947 3261 729 
Q 3034 512 2630 512 
L 1107 512 
z
" transform="scale(0.015625)"/>
     </defs>
     <use xlink:href="#HelveticaNeue-42"/>
    </g>
   </g>
   <g id="text_27">
    <!-- B -->
    <g transform="translate(223.550532 27.97155) scale(0.12 -0.12)">
     <use xlink:href="#HelveticaNeue-42"/>
    </g>
   </g>
   <g id="text_28">
    <!-- B -->
    <g transform="translate(223.550532 27.97155) scale(0.12 -0.12)">
     <use xlink:href="#HelveticaNeue-42"/>
    </g>
   </g>
   <g id="text_29">
    <!-- B -->
    <g transform="translate(223.550532 27.97155) scale(0.12 -0.12)">
     <use xlink:href="#HelveticaNeue-42"/>
    </g>
   </g>
   <g id="text_30">
    <!-- B -->
    <g transform="translate(223.550532 27.97155) scale(0.12 -0.12)">
     <use xlink:href="#HelveticaNeue-42"/>
    </g>
   </g>
   <g id="text_31">
    <!-- B -->
    <g transform="translate(223.550532 27.97155) scale(0.12 -0.12)">
     <use xlink:href="#HelveticaNeue-42"/>
    </g>
   </g>
   <g id="text_32">
    <!-- B -->
    <g transform="translate(223.550532 27.97155) scale(0.12 -0.12)">
     <use xlink:href="#HelveticaNeue-42"/>
    </g>
   </g>
   <g id="line2d_45">
    <path d="M 233.886022 88.101918 
L 233.736145 87.074564 
L 232.237379 89.642948 
L 233.136639 89.450319 
L 232.986762 88.294546 
L 232.237379 89.707157 
L 230.738613 88.551385 
L 228.490464 88.615594 
L 229.839354 89.899786 
L 229.539601 90.156624 
L 228.340588 87.909289 
L 227.291452 88.551385 
L 226.392192 86.689307 
L 225.792686 85.597744 
L 225.642809 87.71666 
L 224.893426 90.79872 
L 224.593673 91.376606 
L 223.544537 91.505026 
L 222.4954 88.101918 
L 223.244783 90.028205 
L 221.296388 85.533534 
L 221.146511 91.697654 
L 220.846758 89.450319 
L 219.647745 92.082912 
L 218.748485 86.881936 
L 218.598609 87.909289 
L 217.549473 89.450319 
L 215.4512 87.524031 
L 215.750953 87.71666 
L 214.701817 87.973498 
L 214.551941 85.019858 
L 213.802558 91.440816 
L 211.854162 84.763019 
L 211.254655 87.010355 
L 210.055643 87.652451 
L 208.85663 86.23984 
L 208.706753 83.09357 
L 208.257123 86.753516 
L 208.556877 85.276696 
L 208.407 84.6346 
L 205.109715 82.708313 
L 204.809962 87.909289 
L 204.510208 84.6346 
L 202.711689 84.69881 
L 203.311196 82.258845 
L 201.212923 83.09357 
L 200.163787 84.506181 
L 197.466008 76.608402 
L 197.016378 78.149432 
L 194.618353 74.425276 
L 194.3186 77.378917 
L 192.220327 74.617905 
L 190.571685 75.837887 
L 188.473412 70.380073 
L 182.927978 57.217108 
L 177.98205 42.127856 
L 176.932914 39.88052 
L 172.586493 26.01125 
L 170.338344 21.773418 
" clip-path="url(#p692d2a0edc)" style="fill: none; stroke: #bc141a; stroke-width: 1.5; stroke-linecap: square"/>
   </g>
   <g id="text_33">
    <!-- B -->
    <g transform="translate(223.550532 27.97155) scale(0.12 -0.12)">
     <use xlink:href="#HelveticaNeue-42"/>
    </g>
   </g>
   <g id="text_34">
    <!-- B -->
    <g transform="translate(223.550532 27.97155) scale(0.12 -0.12)">
     <use xlink:href="#HelveticaNeue-42"/>
    </g>
   </g>
   <g id="text_35">
    <!-- B -->
    <g transform="translate(223.550532 27.97155) scale(0.12 -0.12)">
     <use xlink:href="#HelveticaNeue-42"/>
    </g>
   </g>
   <g id="line2d_46">
    <path d="M 233.736145 89.771367 
L 233.436392 85.854582 
L 232.237379 88.615594 
L 231.78775 84.763019 
L 231.637873 86.817726 
L 230.88849 88.037708 
L 230.43886 89.129271 
L 230.43886 88.358756 
L 229.089971 90.927139 
L 228.790218 90.541882 
L 228.190711 86.753516 
L 227.441328 87.652451 
L 226.691945 87.845079 
L 226.392192 88.294546 
L 225.942562 87.909289 
L 225.193179 87.588241 
L 224.893426 85.790373 
L 223.544537 87.909289 
L 223.84429 90.028205 
L 222.345524 90.670301 
L 222.045771 89.25769 
L 220.097375 90.79872 
L 220.247251 90.028205 
L 220.397128 88.872433 
L 219.497868 90.285043 
L 218.298856 87.395612 
L 217.849226 88.679804 
L 217.699349 87.909289 
L 216.200583 89.450319 
L 214.402064 88.615594 
L 213.952434 86.23984 
L 212.603545 86.625097 
L 212.153915 87.78087 
L 212.004038 86.17563 
L 210.954902 86.368259 
L 209.30626 83.478828 
L 208.556877 85.661953 
L 208.556877 82.708313 
L 206.608481 86.881936 
L 206.908234 85.533534 
L 205.109715 89.963996 
L 203.610949 81.48833 
L 203.161319 81.424121 
L 202.112183 82.900941 
L 201.3628 77.122079 
L 200.46354 82.579893 
L 199.714157 79.369414 
L 197.166255 77.057869 
L 195.967242 79.690462 
L 195.367736 77.956803 
L 194.018846 75.38842 
L 191.770697 74.553695 
L 189.972178 70.187444 
L 187.574153 65.821192 
L 184.426744 57.859204 
L 181.429212 56.83185 
L 176.783037 36.79846 
L 175.434148 32.753257 
L 170.638097 27.55228 
" clip-path="url(#p692d2a0edc)" style="fill: none; stroke: #67000d; stroke-width: 1.5; stroke-linecap: square"/>
   </g>
   <g id="line2d_47">
    <path d="M 234.335652 85.405115 
L 234.335652 87.524031 
L 233.736145 85.726163 
L 231.937626 84.891438 
L 231.937626 83.15778 
L 231.637873 86.23984 
L 229.539601 86.17563 
L 229.98923 86.753516 
L 229.239847 91.633445 
L 228.790218 88.936642 
L 228.940094 89.3219 
L 227.441328 91.440816 
L 227.441328 87.331403 
L 226.542069 88.037708 
L 226.542069 87.973498 
L 225.043303 88.872433 
L 224.144043 85.918792 
L 223.544537 89.065061 
L 222.645277 84.377762 
L 221.296388 84.313552 
L 221.746017 84.827229 
L 220.097375 88.166127 
L 220.397128 88.936642 
L 220.097375 85.019858 
L 218.748485 86.817726 
L 217.849226 84.891438 
L 217.849226 84.313552 
L 217.099843 85.212486 
L 216.500336 83.414618 
L 215.00157 82.066217 
L 214.102311 83.799876 
L 213.502804 85.533534 
L 213.203051 85.533534 
L 211.854162 81.937798 
L 210.805026 87.395612 
L 210.805026 81.48833 
L 210.505272 84.185133 
L 208.407 83.478828 
L 208.107247 82.772522 
L 208.407 81.167283 
L 206.608481 81.359911 
L 204.959838 86.368259 
L 203.161319 80.846235 
L 202.411936 81.424121 
L 201.063047 84.955648 
L 200.01391 81.809378 
L 198.515144 82.515684 
L 197.765761 78.021013 
L 195.817366 77.828384 
L 194.3186 74.553695 
L 193.719093 75.837887 
L 191.920574 71.150588 
L 190.271931 67.169593 
L 189.072919 68.646414 
L 187.873906 64.66542 
L 184.576621 63.638066 
L 180.080323 47.842509 
L 177.832174 45.787802 
L 173.935382 28.579634 
L 171.38748 30.891179 
" clip-path="url(#p692d2a0edc)" style="fill: none; stroke: #67000d; stroke-width: 1.5; stroke-linecap: square"/>
   </g>
   <g id="line2d_48">
    <path d="M 184.576621 24.598639 
L 183.977114 21.002903 
L 184.426744 22.672352 
L 185.92551 22.158675 
L 186.075387 21.38816 
L 187.274399 21.002903 
L 186.674893 23.314448 
L 186.225263 21.901837 
L 188.323536 21.002903 
L 187.274399 21.131322 
L 188.323536 23.828124 
L 188.473412 24.727059 
L 188.323536 22.415514 
L 189.522548 18.434519 
L 189.822302 20.360807 
L 189.822302 23.571286 
L 190.571685 22.543933 
L 191.021314 28.964891 
L 190.271931 23.186029 
L 190.271931 24.598639 
L 191.321068 24.084963 
L 192.669957 25.112316 
L 192.370204 25.754412 
L 192.819834 28.194376 
L 192.96971 24.727059 
L 193.269463 28.194376 
L 193.269463 27.295442 
L 194.3186 26.910185 
L 194.618353 28.065957 
L 194.3186 25.369155 
L 194.3186 26.910185 
L 194.768229 28.836472 
L 196.117119 27.295442 
L 195.817366 28.322795 
L 196.266995 33.652191 
L 197.466008 33.909029 
L 197.016378 31.661694 
L 198.814898 36.92688 
L 201.512676 51.887712 
L 208.257123 78.342061 
L 210.205519 81.103073 
L 211.554409 78.984157 
L 211.554409 80.139929 
L 212.153915 82.066217 
L 213.203051 82.772522 
L 212.603545 80.396768 
L 214.102311 82.066217 
L 213.502804 81.359911 
L 213.502804 80.974654 
L 214.851694 84.185133 
L 215.301324 82.579893 
L 214.701817 86.111421 
L 216.050707 80.782025 
L 216.650213 82.323055 
L 217.699349 83.671456 
L 216.949966 81.48833 
L 216.500336 85.597744 
L 217.999102 86.689307 
L 218.298856 85.019858 
L 217.849226 83.607247 
L 218.898362 88.744013 
L 219.347992 85.597744 
L 219.497868 87.524031 
L 221.146511 84.185133 
L 220.846758 85.983001 
L 221.895894 88.166127 
L 222.195647 86.368259 
L 220.397128 85.084067 
L 221.746017 85.019858 
L 222.045771 88.551385 
L 222.345524 84.185133 
L 223.39466 86.946145 
L 222.345524 85.918792 
L 224.443796 82.965151 
L 224.443796 84.056714 
L 225.642809 88.422966 
L 225.343056 86.817726 
L 224.743549 84.763019 
L 224.443796 87.395612 
L 225.942562 85.661953 
L 225.193179 85.533534 
L 227.141575 86.23984 
L 226.242315 84.185133 
L 225.492932 89.771367 
L 227.890958 89.3219 
L 226.691945 82.579893 
L 228.640341 86.304049 
L 226.841822 87.845079 
L 227.441328 86.817726 
L 228.040835 88.294546 
L 229.839354 86.881936 
L 229.839354 87.010355 
L 229.98923 91.312397 
L 230.588737 92.725008 
L 230.288984 87.845079 
L 231.487996 89.963996 
L 232.387256 87.652451 
" clip-path="url(#p692d2a0edc)" style="fill: none; stroke: #94c4df; stroke-width: 1.5; stroke-linecap: square"/>
   </g>
   <g id="line2d_49">
    <path d="M 184.876374 16.251394 
L 185.176127 20.103969 
L 185.775633 20.617645 
L 186.525016 22.415514 
L 186.525016 21.131322 
L 186.525016 23.057609 
L 186.37514 18.434519 
L 187.124523 23.699705 
L 187.424276 22.415514 
L 188.473412 22.287094 
L 188.323536 24.213382 
L 189.222795 20.232388 
L 188.773165 22.415514 
L 189.372672 19.590292 
L 189.672425 24.213382 
L 190.271931 22.287094 
L 191.620821 26.01125 
L 191.171191 20.617645 
L 191.321068 23.571286 
L 191.470944 22.158675 
L 192.220327 20.489226 
L 192.96971 24.983897 
L 192.819834 27.167023 
L 193.119587 25.497574 
L 193.569217 20.874484 
L 193.569217 25.882831 
L 194.3186 26.396508 
L 193.719093 26.910185 
L 194.918106 29.478568 
L 195.217859 26.01125 
L 196.266995 27.038604 
L 195.367736 28.065957 
L 196.866502 27.6807 
L 197.166255 29.863825 
L 196.716625 29.992245 
L 196.866502 28.065957 
L 197.316132 29.350149 
L 197.615885 33.010095 
L 198.665021 30.76276 
L 197.915638 33.78061 
L 199.264527 34.294287 
L 199.564281 37.697395 
L 200.91317 39.687892 
L 203.161319 53.171904 
L 207.95737 69.481138 
L 210.055643 76.736821 
L 211.704285 77.186288 
L 212.303792 78.919947 
L 212.903298 78.40627 
L 213.352928 78.213642 
L 214.252187 80.589396 
L 215.750953 79.754672 
L 215.601077 85.854582 
L 214.701817 82.066217 
L 215.750953 83.286199 
L 218.148979 83.350408 
L 216.80009 83.543037 
L 218.148979 81.359911 
L 217.849226 84.827229 
L 218.298856 85.340906 
L 219.347992 85.340906 
L 218.598609 79.754672 
L 219.347992 82.451474 
L 219.048239 83.543037 
L 221.596141 80.846235 
L 221.146511 84.185133 
L 221.446264 86.432468 
L 221.296388 83.350408 
L 221.596141 84.891438 
L 221.146511 85.019858 
L 223.544537 82.002007 
L 222.045771 84.441971 
L 222.94503 85.019858 
L 223.84429 84.120923 
L 223.84429 82.708313 
L 224.29392 88.487175 
L 224.593673 84.441971 
L 224.743549 83.350408 
L 225.193179 83.735666 
L 226.542069 82.965151 
L 226.092439 84.313552 
L 226.392192 82.965151 
L 226.841822 84.570391 
L 228.040835 87.074564 
L 229.389724 84.506181 
L 229.839354 87.71666 
L 230.288984 87.074564 
L 230.288984 87.267193 
L 230.139107 86.753516 
L 231.637873 88.744013 
L 230.88849 87.845079 
L 231.487996 87.331403 
L 232.836886 87.524031 
L 232.836886 87.331403 
L 232.687009 87.331403 
L 232.537133 88.936642 
L 232.687009 90.156624 
" clip-path="url(#p692d2a0edc)" style="fill: none; stroke: #4a98c9; stroke-width: 1.5; stroke-linecap: square"/>
   </g>
   <g id="line2d_50">
    <path d="M 185.47588 19.975549 
L 185.47588 18.177681 
L 185.92551 19.076615 
L 186.225263 20.103969 
L 186.674893 22.672352 
L 187.274399 14.710364 
L 187.873906 20.617645 
L 188.173659 19.718711 
L 188.773165 19.333454 
L 188.473412 23.314448 
L 188.473412 23.186029 
L 189.822302 19.975549 
L 190.571685 21.131322 
L 189.972178 21.131322 
L 190.721561 26.524927 
L 190.421808 23.699705 
L 190.871438 21.38816 
L 191.470944 25.882831 
L 192.220327 21.259741 
L 192.370204 23.057609 
L 192.52008 21.644999 
L 192.070451 23.571286 
L 193.41934 24.084963 
L 193.569217 24.084963 
L 194.3186 25.369155 
L 194.168723 25.240735 
L 194.3186 22.415514 
L 195.367736 26.268089 
L 194.918106 23.571286 
L 195.667489 23.699705 
L 194.768229 26.01125 
L 196.117119 26.524927 
L 196.866502 30.120664 
L 196.866502 24.983897 
L 196.866502 26.910185 
L 197.615885 29.992245 
L 197.615885 29.606987 
L 198.215391 32.17537 
L 198.515144 30.249083 
L 198.964774 29.22173 
L 198.665021 31.918532 
L 199.864034 31.918532 
L 199.414404 32.945885 
L 200.163787 30.76276 
L 200.46354 32.432209 
L 206.158851 62.289665 
L 212.753421 77.635755 
L 213.502804 76.030516 
L 214.102311 80.974654 
L 215.151447 81.295702 
L 215.301324 81.424121 
L 216.35046 79.176785 
L 216.200583 81.680959 
L 216.949966 80.07572 
L 216.80009 80.782025 
L 217.249719 84.056714 
L 218.448732 82.579893 
L 218.748485 80.589396 
L 219.048239 81.745169 
L 219.198115 83.992504 
L 219.797622 82.258845 
L 220.696881 80.910444 
L 221.296388 85.533534 
L 220.996634 82.194636 
L 222.195647 83.478828 
L 223.694413 86.496678 
L 222.045771 84.570391 
L 222.645277 85.854582 
L 224.144043 84.056714 
L 222.94503 85.405115 
L 223.244783 84.441971 
L 224.893426 86.753516 
L 224.29392 84.506181 
L 224.443796 82.579893 
L 225.043303 85.854582 
L 224.593673 87.845079 
L 226.242315 83.864085 
L 225.792686 85.340906 
L 226.991698 87.074564 
L 226.991698 86.17563 
L 226.841822 85.340906 
L 227.141575 86.946145 
L 226.991698 83.671456 
L 228.040835 85.726163 
L 228.340588 83.928295 
L 229.089971 86.496678 
L 229.089971 84.185133 
L 229.689477 84.441971 
L 230.288984 83.414618 
L 231.78775 86.304049 
L 230.738613 88.230337 
L 231.038367 86.496678 
L 230.738613 87.845079 
L 231.487996 88.872433 
L 233.136639 88.551385 
L 231.78775 88.808223 
L 233.136639 88.551385 
" clip-path="url(#p692d2a0edc)" style="fill: none; stroke: #1764ab; stroke-width: 1.5; stroke-linecap: square"/>
   </g>
   <g id="line2d_51">
    <path d="M 185.775633 15.994555 
L 186.37514 24.47022 
L 186.674893 21.259741 
L 187.274399 20.746064 
L 187.574153 20.360807 
L 188.773165 19.84713 
L 188.023782 25.112316 
L 188.623289 21.901837 
L 189.522548 20.232388 
L 188.923042 21.901837 
L 189.222795 19.590292 
L 189.672425 24.727059 
L 190.271931 20.746064 
L 191.321068 20.617645 
L 191.171191 22.030256 
L 191.920574 22.800771 
L 192.070451 22.287094 
L 191.620821 22.800771 
L 191.620821 21.644999 
L 192.52008 23.571286 
L 193.119587 20.489226 
L 193.269463 24.598639 
L 193.569217 21.644999 
L 194.168723 21.901837 
L 194.168723 24.47022 
L 194.468476 24.855478 
L 195.367736 25.754412 
L 195.367736 23.186029 
L 195.667489 25.754412 
L 195.817366 25.754412 
L 196.566749 26.653346 
L 197.016378 25.497574 
L 196.716625 23.571286 
L 197.316132 24.341801 
L 197.615885 27.167023 
L 197.466008 28.065957 
L 197.615885 27.6807 
L 198.814898 24.47022 
L 198.814898 27.167023 
L 199.114651 28.579634 
L 199.864034 29.478568 
L 199.414404 28.579634 
L 199.414404 31.276436 
L 200.01391 31.790113 
L 200.313664 36.605832 
L 200.91317 27.6807 
L 200.763293 33.074305 
L 201.962306 35.064802 
L 201.662553 35.514269 
L 202.112183 38.596329 
L 211.254655 71.279007 
L 214.551941 77.314708 
L 216.200583 80.910444 
L 216.050707 80.653606 
L 217.699349 82.515684 
L 217.999102 80.910444 
L 219.347992 80.460977 
L 219.497868 79.369414 
L 219.048239 80.204139 
L 220.097375 82.130426 
L 220.097375 83.799876 
L 220.846758 81.745169 
L 219.797622 78.598899 
L 222.4954 84.056714 
L 221.746017 84.185133 
L 222.645277 82.194636 
L 222.4954 84.570391 
L 222.045771 83.029361 
L 222.795154 83.992504 
L 224.743549 84.763019 
L 223.994166 83.928295 
L 223.994166 85.084067 
L 224.893426 84.570391 
L 224.443796 82.836732 
L 225.043303 83.992504 
L 225.792686 85.597744 
L 226.841822 86.23984 
L 227.591205 84.6346 
L 226.542069 86.047211 
L 226.991698 84.506181 
L 228.040835 85.148277 
L 228.040835 83.221989 
L 228.190711 82.900941 
L 229.239847 82.708313 
L 229.239847 85.918792 
L 228.790218 81.103073 
L 228.940094 83.350408 
L 230.288984 84.056714 
L 231.33812 87.395612 
L 230.288984 83.286199 
L 230.139107 85.084067 
L 231.637873 87.138774 
L 231.78775 87.459822 
L 231.487996 85.597744 
L 232.237379 85.918792 
L 232.986762 85.854582 
L 231.937626 83.735666 
" clip-path="url(#p692d2a0edc)" style="fill: none; stroke: #08306b; stroke-width: 1.5; stroke-linecap: square"/>
   </g>
   <g id="line2d_52">
    <path d="M 186.525016 19.205034 
L 187.274399 17.278747 
L 187.274399 19.461873 
L 188.023782 18.691358 
L 188.323536 17.664004 
L 188.023782 19.975549 
L 188.923042 19.333454 
L 189.072919 21.002903 
L 189.372672 19.590292 
L 189.672425 20.360807 
L 190.421808 20.617645 
L 190.871438 22.415514 
L 191.171191 16.76507 
L 191.620821 20.617645 
L 191.770697 20.874484 
L 191.770697 22.415514 
L 192.52008 20.232388 
L 192.669957 22.158675 
L 193.119587 22.92919 
L 192.819834 22.287094 
L 193.269463 20.489226 
L 194.018846 23.186029 
L 194.168723 22.800771 
L 194.018846 23.442867 
L 194.3186 23.699705 
L 195.067983 24.213382 
L 195.217859 24.598639 
L 195.517612 22.158675 
L 196.117119 23.828124 
L 196.266995 24.341801 
L 196.416872 25.369155 
L 197.316132 22.030256 
L 197.016378 24.598639 
L 197.765761 24.213382 
L 197.915638 23.956544 
L 198.515144 25.112316 
L 198.215391 26.524927 
L 198.964774 25.497574 
L 199.114651 26.653346 
L 199.714157 22.287094 
L 199.714157 30.505921 
L 199.864034 28.708053 
L 200.01391 27.937538 
L 200.313664 29.735406 
L 200.613417 28.836472 
L 201.212923 33.138514 
L 201.063047 32.432209 
L 201.512676 31.790113 
L 201.962306 33.78061 
L 201.662553 32.17537 
L 201.81243 32.753257 
L 203.161319 30.63434 
L 202.711689 35.25743 
L 206.308728 45.274125 
L 213.352928 68.261156 
L 216.35046 78.53469 
L 216.650213 81.231492 
L 217.699349 82.965151 
L 218.298856 80.07572 
L 217.999102 79.626253 
L 218.598609 82.130426 
L 219.048239 82.194636 
L 220.696881 81.809378 
L 220.397128 83.221989 
L 220.846758 82.066217 
L 220.547005 82.644103 
L 221.146511 80.974654 
L 222.195647 82.836732 
L 222.795154 78.149432 
L 223.244783 81.167283 
L 223.39466 81.103073 
L 223.994166 81.359911 
L 223.994166 82.772522 
L 224.29392 80.396768 
L 224.893426 83.09357 
L 225.642809 80.910444 
L 226.092439 83.928295 
L 225.942562 80.846235 
L 227.141575 83.543037 
L 226.991698 80.974654 
L 227.291452 80.974654 
L 226.991698 83.478828 
L 227.591205 80.782025 
L 228.640341 82.451474 
L 228.640341 85.469325 
L 229.089971 82.708313 
L 229.089971 80.910444 
L 229.689477 80.782025 
L 230.588737 83.735666 
L 229.389724 82.194636 
L 231.038367 82.387265 
L 231.78775 83.414618 
L 231.038367 82.900941 
L 231.188243 82.387265 
L 230.738613 83.286199 
L 231.637873 84.249343 
L 232.087503 85.276696 
" clip-path="url(#p692d2a0edc)" style="fill: none; stroke: #08306b; stroke-width: 1.5; stroke-linecap: square"/>
   </g>
  </g>
 </g>
 <defs>
  <clipPath id="p891bd834f8">
   <rect x="52.185" y="10.8" width="88.247342" height="86.028"/>
  </clipPath>
  <clipPath id="p692d2a0edc">
   <rect x="152.952658" y="10.8" width="88.247342" height="86.028"/>
  </clipPath>
 </defs>
</svg>
